<?xml version="1.0" encoding="windows-1252" standalone="no"?>
<svg xmlns="http://www.w3.org/2000/svg" xmlns:xlink="http://www.w3.org/1999/xlink" contentStyleType="text/css" height="636px" preserveAspectRatio="none" style="width:1721px;height:636px;background:#FFFFFF;" version="1.1" viewBox="0 0 1721 636" width="1721px" zoomAndPan="magnify"><defs/><g><!--class Drawable--><g id="elem_Drawable"><rect codeLine="3" fill="#F1F1F1" height="80.5938" id="Drawable" rx="2.5" ry="2.5" style="stroke:#181818;stroke-width:0.5;" width="233" x="862.5" y="47.5"/><ellipse cx="940.75" cy="63.5" fill="#B4A7E5" rx="11" ry="11" style="stroke:#181818;stroke-width:1.0;"/><path d="M941.7031,60.2813 L943.4219,60.2813 C943.8125,60.2813 944,60.25 944.125,60.1719 C944.3906,60.0156 944.5313,59.7344 944.5313,59.4375 C944.5313,59.1719 944.4219,58.9063 944.1875,58.7344 C944.0156,58.625 943.875,58.5938 943.4219,58.5938 L938.2813,58.5938 C937.8438,58.5938 937.7188,58.6094 937.5625,58.7031 C937.3125,58.8594 937.1563,59.1563 937.1563,59.4375 C937.1563,59.7188 937.2969,59.9688 937.5156,60.1406 C937.6719,60.25 937.8594,60.2813 938.2813,60.2813 L940,60.2813 L940,66.7969 L938.2813,66.7969 C937.8438,66.7969 937.7188,66.8125 937.5625,66.9219 C937.3125,67.0781 937.1563,67.3594 937.1563,67.6563 C937.1563,67.9063 937.2969,68.1719 937.5156,68.3281 C937.6719,68.4531 937.875,68.5 938.2813,68.5 L943.4219,68.5 C944.1719,68.5 944.5313,68.2188 944.5313,67.6563 C944.5313,67.375 944.4219,67.125 944.1875,66.9531 C944.0156,66.8281 943.875,66.7969 943.4219,66.7969 L941.7031,66.7969 L941.7031,60.2813 Z " fill="#000000"/><text fill="#000000" font-family="sans-serif" font-size="14" font-style="italic" lengthAdjust="spacing" textLength="68" x="961.25" y="68.3467">Drawable</text><line style="stroke:#181818;stroke-width:0.5;" x1="863.5" x2="1094.5" y1="79.5" y2="79.5"/><line style="stroke:#181818;stroke-width:0.5;" x1="863.5" x2="1094.5" y1="87.5" y2="87.5"/><ellipse cx="873.5" cy="101.1484" fill="#84BE84" rx="3" ry="3" style="stroke:#038048;stroke-width:1.0;"/><text fill="#000000" font-family="sans-serif" font-size="14" lengthAdjust="spacing" textLength="207" x="882.5" y="104.4951">dispose(batch : SpriteBatch)</text><ellipse cx="873.5" cy="117.4453" fill="#84BE84" rx="3" ry="3" style="stroke:#038048;stroke-width:1.0;"/><text fill="#000000" font-family="sans-serif" font-size="14" lengthAdjust="spacing" textLength="200" x="882.5" y="120.792">render(batch : SpriteBatch)</text></g><!--class Area--><g id="elem_Area"><rect codeLine="8" fill="#F1F1F1" height="194.6719" id="Area" rx="2.5" ry="2.5" style="stroke:#181818;stroke-width:0.5;" width="734" x="7" y="237"/><ellipse cx="353.25" cy="253" fill="#ADD1B2" rx="11" ry="11" style="stroke:#181818;stroke-width:1.0;"/><path d="M355.5938,248.6719 C354.6563,248.2344 354.0625,248.0938 353.1875,248.0938 C350.5625,248.0938 348.5625,250.1719 348.5625,252.8906 L348.5625,254.0156 C348.5625,256.5938 350.6719,258.4844 353.5625,258.4844 C354.7813,258.4844 355.9375,258.1875 356.6875,257.6406 C357.2656,257.2344 357.5938,256.7813 357.5938,256.3906 C357.5938,255.9375 357.2031,255.5469 356.7344,255.5469 C356.5156,255.5469 356.3125,255.625 356.125,255.8125 C355.6719,256.2969 355.6719,256.2969 355.4844,256.3906 C355.0625,256.6563 354.375,256.7813 353.6094,256.7813 C351.5625,256.7813 350.2656,255.6875 350.2656,253.9844 L350.2656,252.8906 C350.2656,251.1094 351.5156,249.7969 353.25,249.7969 C353.8281,249.7969 354.4375,249.9531 354.9063,250.2031 C355.3906,250.4844 355.5625,250.7031 355.6563,251.1094 C355.7188,251.5156 355.75,251.6406 355.8906,251.7656 C356.0313,251.9063 356.2656,252.0156 356.4844,252.0156 C356.75,252.0156 357.0156,251.875 357.1875,251.6563 C357.2969,251.5 357.3281,251.3125 357.3281,250.8906 L357.3281,249.4688 C357.3281,249.0313 357.3125,248.9063 357.2188,248.75 C357.0625,248.4844 356.7813,248.3438 356.4844,248.3438 C356.1875,248.3438 355.9844,248.4375 355.7656,248.75 L355.5938,248.6719 Z " fill="#000000"/><text fill="#000000" font-family="sans-serif" font-size="14" lengthAdjust="spacing" textLength="33" x="373.75" y="257.8467">Area</text><line style="stroke:#181818;stroke-width:0.5;" x1="8" x2="740" y1="269" y2="269"/><line style="stroke:#181818;stroke-width:0.5;" x1="8" x2="740" y1="277" y2="277"/><ellipse cx="18" cy="290.6484" fill="#84BE84" rx="3" ry="3" style="stroke:#038048;stroke-width:1.0;"/><text fill="#000000" font-family="sans-serif" font-size="14" lengthAdjust="spacing" textLength="316" x="27" y="293.9951">addInteractable(interactable : Interactable)</text><ellipse cx="18" cy="306.9453" fill="#84BE84" rx="3" ry="3" style="stroke:#038048;stroke-width:1.0;"/><text fill="#000000" font-family="sans-serif" font-size="14" lengthAdjust="spacing" textLength="312" x="27" y="310.292">updateView(camera : OrthographicCamera)</text><ellipse cx="18" cy="323.2422" fill="#84BE84" rx="3" ry="3" style="stroke:#038048;stroke-width:1.0;"/><text fill="#000000" font-family="sans-serif" font-size="14" lengthAdjust="spacing" textLength="157" x="27" y="326.5889">getMapWidth() : Float</text><ellipse cx="18" cy="339.5391" fill="#84BE84" rx="3" ry="3" style="stroke:#038048;stroke-width:1.0;"/><text fill="#000000" font-family="sans-serif" font-size="14" lengthAdjust="spacing" textLength="162" x="27" y="342.8857">getMapHeight() : Float</text><ellipse cx="18" cy="355.8359" fill="#84BE84" rx="3" ry="3" style="stroke:#038048;stroke-width:1.0;"/><text fill="#000000" font-family="sans-serif" font-size="14" lengthAdjust="spacing" textLength="43" x="27" y="359.1826">step()</text><ellipse cx="18" cy="372.1328" fill="#84BE84" rx="3" ry="3" style="stroke:#038048;stroke-width:1.0;"/><text fill="#000000" font-family="sans-serif" font-size="14" lengthAdjust="spacing" textLength="708" x="27" y="375.4795">registerCollisionBody(initialPosition : Vector2, type : BodyType, width : Float, height : Float) : Body</text><ellipse cx="18" cy="388.4297" fill="#84BE84" rx="3" ry="3" style="stroke:#038048;stroke-width:1.0;"/><text fill="#000000" font-family="sans-serif" font-size="14" lengthAdjust="spacing" textLength="380" x="27" y="391.7764">registerCharacter(width : Float, height : Float) : Body</text><ellipse cx="18" cy="404.7266" fill="#84BE84" rx="3" ry="3" style="stroke:#038048;stroke-width:1.0;"/><text fill="#000000" font-family="sans-serif" font-size="14" lengthAdjust="spacing" textLength="274" x="27" y="408.0732">getInitialCharacterPosition() : Vector2</text><ellipse cx="18" cy="421.0234" fill="#84BE84" rx="3" ry="3" style="stroke:#038048;stroke-width:1.0;"/><text fill="#000000" font-family="sans-serif" font-size="14" lengthAdjust="spacing" textLength="412" x="27" y="424.3701">Area(mapPath : String, initialCharacterPosition : Vector2)</text></g><!--class Character--><g id="elem_Character"><rect codeLine="20" fill="#F1F1F1" height="210.9688" id="Character" rx="2.5" ry="2.5" style="stroke:#181818;stroke-width:0.5;" width="406" x="776" y="229"/><ellipse cx="939.25" cy="245" fill="#ADD1B2" rx="11" ry="11" style="stroke:#181818;stroke-width:1.0;"/><path d="M941.5938,240.6719 C940.6563,240.2344 940.0625,240.0938 939.1875,240.0938 C936.5625,240.0938 934.5625,242.1719 934.5625,244.8906 L934.5625,246.0156 C934.5625,248.5938 936.6719,250.4844 939.5625,250.4844 C940.7813,250.4844 941.9375,250.1875 942.6875,249.6406 C943.2656,249.2344 943.5938,248.7813 943.5938,248.3906 C943.5938,247.9375 943.2031,247.5469 942.7344,247.5469 C942.5156,247.5469 942.3125,247.625 942.125,247.8125 C941.6719,248.2969 941.6719,248.2969 941.4844,248.3906 C941.0625,248.6563 940.375,248.7813 939.6094,248.7813 C937.5625,248.7813 936.2656,247.6875 936.2656,245.9844 L936.2656,244.8906 C936.2656,243.1094 937.5156,241.7969 939.25,241.7969 C939.8281,241.7969 940.4375,241.9531 940.9063,242.2031 C941.3906,242.4844 941.5625,242.7031 941.6563,243.1094 C941.7188,243.5156 941.75,243.6406 941.8906,243.7656 C942.0313,243.9063 942.2656,244.0156 942.4844,244.0156 C942.75,244.0156 943.0156,243.875 943.1875,243.6563 C943.2969,243.5 943.3281,243.3125 943.3281,242.8906 L943.3281,241.4688 C943.3281,241.0313 943.3125,240.9063 943.2188,240.75 C943.0625,240.4844 942.7813,240.3438 942.4844,240.3438 C942.1875,240.3438 941.9844,240.4375 941.7656,240.75 L941.5938,240.6719 Z " fill="#000000"/><text fill="#000000" font-family="sans-serif" font-size="14" lengthAdjust="spacing" textLength="71" x="959.75" y="249.8467">Character</text><line style="stroke:#181818;stroke-width:0.5;" x1="777" x2="1181" y1="261" y2="261"/><line style="stroke:#181818;stroke-width:0.5;" x1="777" x2="1181" y1="269" y2="269"/><ellipse cx="787" cy="282.6484" fill="#84BE84" rx="3" ry="3" style="stroke:#038048;stroke-width:1.0;"/><text fill="#000000" font-family="sans-serif" font-size="14" lengthAdjust="spacing" textLength="69" x="796" y="285.9951">moveUp()</text><ellipse cx="787" cy="298.9453" fill="#84BE84" rx="3" ry="3" style="stroke:#038048;stroke-width:1.0;"/><text fill="#000000" font-family="sans-serif" font-size="14" lengthAdjust="spacing" textLength="90" x="796" y="302.292">moveDown()</text><ellipse cx="787" cy="315.2422" fill="#84BE84" rx="3" ry="3" style="stroke:#038048;stroke-width:1.0;"/><text fill="#000000" font-family="sans-serif" font-size="14" lengthAdjust="spacing" textLength="80" x="796" y="318.5889">moveLeft()</text><ellipse cx="787" cy="331.5391" fill="#84BE84" rx="3" ry="3" style="stroke:#038048;stroke-width:1.0;"/><text fill="#000000" font-family="sans-serif" font-size="14" lengthAdjust="spacing" textLength="89" x="796" y="334.8857">moveRight()</text><ellipse cx="787" cy="347.8359" fill="#84BE84" rx="3" ry="3" style="stroke:#038048;stroke-width:1.0;"/><text fill="#000000" font-family="sans-serif" font-size="14" lengthAdjust="spacing" textLength="50" x="796" y="351.1826">move()</text><ellipse cx="787" cy="364.1328" fill="#84BE84" rx="3" ry="3" style="stroke:#038048;stroke-width:1.0;"/><text fill="#000000" font-family="sans-serif" font-size="14" lengthAdjust="spacing" textLength="335" x="796" y="367.4795">isWithinHorizontalBound(area : Area) : Boolean</text><ellipse cx="787" cy="380.4297" fill="#84BE84" rx="3" ry="3" style="stroke:#038048;stroke-width:1.0;"/><text fill="#000000" font-family="sans-serif" font-size="14" lengthAdjust="spacing" textLength="317" x="796" y="383.7764">isWithinVerticalBound(area : Area) : Boolean</text><ellipse cx="787" cy="396.7266" fill="#84BE84" rx="3" ry="3" style="stroke:#038048;stroke-width:1.0;"/><text fill="#000000" font-family="sans-serif" font-size="14" lengthAdjust="spacing" textLength="163" x="796" y="400.0732">getPosition() : Vector2</text><ellipse cx="787" cy="413.0234" fill="#84BE84" rx="3" ry="3" style="stroke:#038048;stroke-width:1.0;"/><text fill="#000000" font-family="sans-serif" font-size="14" lengthAdjust="spacing" textLength="304" x="796" y="416.3701">switchCharacterContext(areaIdx : Integer)</text><ellipse cx="787" cy="429.3203" fill="#84BE84" rx="3" ry="3" style="stroke:#038048;stroke-width:1.0;"/><text fill="#000000" font-family="sans-serif" font-size="14" lengthAdjust="spacing" textLength="380" x="796" y="432.667">Character(areas : Area[0..*], defaultAreaIdx : Integer)</text></g><!--class Item--><g id="elem_Item"><rect codeLine="33" fill="#F1F1F1" height="64.2969" id="Item" rx="2.5" ry="2.5" style="stroke:#181818;stroke-width:0.5;" width="189" x="1217.5" y="302.5"/><ellipse cx="1290.75" cy="318.5" fill="#ADD1B2" rx="11" ry="11" style="stroke:#181818;stroke-width:1.0;"/><path d="M1293.0938,314.1719 C1292.1563,313.7344 1291.5625,313.5938 1290.6875,313.5938 C1288.0625,313.5938 1286.0625,315.6719 1286.0625,318.3906 L1286.0625,319.5156 C1286.0625,322.0938 1288.1719,323.9844 1291.0625,323.9844 C1292.2813,323.9844 1293.4375,323.6875 1294.1875,323.1406 C1294.7656,322.7344 1295.0938,322.2813 1295.0938,321.8906 C1295.0938,321.4375 1294.7031,321.0469 1294.2344,321.0469 C1294.0156,321.0469 1293.8125,321.125 1293.625,321.3125 C1293.1719,321.7969 1293.1719,321.7969 1292.9844,321.8906 C1292.5625,322.1563 1291.875,322.2813 1291.1094,322.2813 C1289.0625,322.2813 1287.7656,321.1875 1287.7656,319.4844 L1287.7656,318.3906 C1287.7656,316.6094 1289.0156,315.2969 1290.75,315.2969 C1291.3281,315.2969 1291.9375,315.4531 1292.4063,315.7031 C1292.8906,315.9844 1293.0625,316.2031 1293.1563,316.6094 C1293.2188,317.0156 1293.25,317.1406 1293.3906,317.2656 C1293.5313,317.4063 1293.7656,317.5156 1293.9844,317.5156 C1294.25,317.5156 1294.5156,317.375 1294.6875,317.1563 C1294.7969,317 1294.8281,316.8125 1294.8281,316.3906 L1294.8281,314.9688 C1294.8281,314.5313 1294.8125,314.4063 1294.7188,314.25 C1294.5625,313.9844 1294.2813,313.8438 1293.9844,313.8438 C1293.6875,313.8438 1293.4844,313.9375 1293.2656,314.25 L1293.0938,314.1719 Z " fill="#000000"/><text fill="#000000" font-family="sans-serif" font-size="14" lengthAdjust="spacing" textLength="34" x="1311.25" y="323.3467">Item</text><line style="stroke:#181818;stroke-width:0.5;" x1="1218.5" x2="1405.5" y1="334.5" y2="334.5"/><line style="stroke:#181818;stroke-width:0.5;" x1="1218.5" x2="1405.5" y1="342.5" y2="342.5"/><ellipse cx="1228.5" cy="356.1484" fill="#84BE84" rx="3" ry="3" style="stroke:#038048;stroke-width:1.0;"/><text fill="#000000" font-family="sans-serif" font-size="14" lengthAdjust="spacing" textLength="163" x="1237.5" y="359.4951">getPosition() : Vector2</text></g><!--class Interactable--><g id="elem_Interactable"><rect codeLine="37" fill="#F1F1F1" height="129.4844" id="Interactable" rx="2.5" ry="2.5" style="stroke:#181818;stroke-width:0.5;" width="804" x="910" y="500"/><ellipse cx="1263.25" cy="516" fill="#ADD1B2" rx="11" ry="11" style="stroke:#181818;stroke-width:1.0;"/><path d="M1265.5938,511.6719 C1264.6563,511.2344 1264.0625,511.0938 1263.1875,511.0938 C1260.5625,511.0938 1258.5625,513.1719 1258.5625,515.8906 L1258.5625,517.0156 C1258.5625,519.5938 1260.6719,521.4844 1263.5625,521.4844 C1264.7813,521.4844 1265.9375,521.1875 1266.6875,520.6406 C1267.2656,520.2344 1267.5938,519.7813 1267.5938,519.3906 C1267.5938,518.9375 1267.2031,518.5469 1266.7344,518.5469 C1266.5156,518.5469 1266.3125,518.625 1266.125,518.8125 C1265.6719,519.2969 1265.6719,519.2969 1265.4844,519.3906 C1265.0625,519.6563 1264.375,519.7813 1263.6094,519.7813 C1261.5625,519.7813 1260.2656,518.6875 1260.2656,516.9844 L1260.2656,515.8906 C1260.2656,514.1094 1261.5156,512.7969 1263.25,512.7969 C1263.8281,512.7969 1264.4375,512.9531 1264.9063,513.2031 C1265.3906,513.4844 1265.5625,513.7031 1265.6563,514.1094 C1265.7188,514.5156 1265.75,514.6406 1265.8906,514.7656 C1266.0313,514.9063 1266.2656,515.0156 1266.4844,515.0156 C1266.75,515.0156 1267.0156,514.875 1267.1875,514.6563 C1267.2969,514.5 1267.3281,514.3125 1267.3281,513.8906 L1267.3281,512.4688 C1267.3281,512.0313 1267.3125,511.9063 1267.2188,511.75 C1267.0625,511.4844 1266.7813,511.3438 1266.4844,511.3438 C1266.1875,511.3438 1265.9844,511.4375 1265.7656,511.75 L1265.5938,511.6719 Z " fill="#000000"/><text fill="#000000" font-family="sans-serif" font-size="14" lengthAdjust="spacing" textLength="89" x="1283.75" y="520.8467">Interactable</text><line style="stroke:#181818;stroke-width:0.5;" x1="911" x2="1713" y1="532" y2="532"/><line style="stroke:#181818;stroke-width:0.5;" x1="911" x2="1713" y1="540" y2="540"/><ellipse cx="921" cy="553.6484" fill="#84BE84" rx="3" ry="3" style="stroke:#038048;stroke-width:1.0;"/><text fill="#000000" font-family="sans-serif" font-size="14" lengthAdjust="spacing" textLength="68" x="930" y="556.9951">interact()</text><ellipse cx="921" cy="569.9453" fill="#84BE84" rx="3" ry="3" style="stroke:#038048;stroke-width:1.0;"/><text fill="#000000" font-family="sans-serif" font-size="14" lengthAdjust="spacing" textLength="89" x="930" y="573.292">toggleHide()</text><ellipse cx="921" cy="586.2422" fill="#84BE84" rx="3" ry="3" style="stroke:#038048;stroke-width:1.0;"/><text fill="#000000" font-family="sans-serif" font-size="14" lengthAdjust="spacing" textLength="142" x="930" y="589.5889">isHidden() : Boolean</text><ellipse cx="921" cy="602.5391" fill="#84BE84" rx="3" ry="3" style="stroke:#038048;stroke-width:1.0;"/><text fill="#000000" font-family="sans-serif" font-size="14" lengthAdjust="spacing" textLength="272" x="930" y="605.8857">isClose(candidate : Vector2) : Boolean</text><ellipse cx="921" cy="618.8359" fill="#84BE84" rx="3" ry="3" style="stroke:#038048;stroke-width:1.0;"/><text fill="#000000" font-family="sans-serif" font-size="14" lengthAdjust="spacing" textLength="778" x="930" y="622.1826">Interactable(position : Vector2, texture : Texture, area : Area, width : Float, height : Float, action : Runnable)</text></g><!--class PlayScreen--><g id="elem_PlayScreen"><rect codeLine="45" fill="#F1F1F1" height="162.0781" id="PlayScreen" rx="2.5" ry="2.5" style="stroke:#181818;stroke-width:0.5;" width="306" x="1131" y="7"/><ellipse cx="1240.25" cy="23" fill="#ADD1B2" rx="11" ry="11" style="stroke:#181818;stroke-width:1.0;"/><path d="M1242.5938,18.6719 C1241.6563,18.2344 1241.0625,18.0938 1240.1875,18.0938 C1237.5625,18.0938 1235.5625,20.1719 1235.5625,22.8906 L1235.5625,24.0156 C1235.5625,26.5938 1237.6719,28.4844 1240.5625,28.4844 C1241.7813,28.4844 1242.9375,28.1875 1243.6875,27.6406 C1244.2656,27.2344 1244.5938,26.7813 1244.5938,26.3906 C1244.5938,25.9375 1244.2031,25.5469 1243.7344,25.5469 C1243.5156,25.5469 1243.3125,25.625 1243.125,25.8125 C1242.6719,26.2969 1242.6719,26.2969 1242.4844,26.3906 C1242.0625,26.6563 1241.375,26.7813 1240.6094,26.7813 C1238.5625,26.7813 1237.2656,25.6875 1237.2656,23.9844 L1237.2656,22.8906 C1237.2656,21.1094 1238.5156,19.7969 1240.25,19.7969 C1240.8281,19.7969 1241.4375,19.9531 1241.9063,20.2031 C1242.3906,20.4844 1242.5625,20.7031 1242.6563,21.1094 C1242.7188,21.5156 1242.75,21.6406 1242.8906,21.7656 C1243.0313,21.9063 1243.2656,22.0156 1243.4844,22.0156 C1243.75,22.0156 1244.0156,21.875 1244.1875,21.6563 C1244.2969,21.5 1244.3281,21.3125 1244.3281,20.8906 L1244.3281,19.4688 C1244.3281,19.0313 1244.3125,18.9063 1244.2188,18.75 C1244.0625,18.4844 1243.7813,18.3438 1243.4844,18.3438 C1243.1875,18.3438 1242.9844,18.4375 1242.7656,18.75 L1242.5938,18.6719 Z " fill="#000000"/><text fill="#000000" font-family="sans-serif" font-size="14" lengthAdjust="spacing" textLength="79" x="1260.75" y="27.8467">PlayScreen</text><line style="stroke:#181818;stroke-width:0.5;" x1="1132" x2="1436" y1="39" y2="39"/><line style="stroke:#181818;stroke-width:0.5;" x1="1132" x2="1436" y1="47" y2="47"/><ellipse cx="1142" cy="60.6484" fill="#84BE84" rx="3" ry="3" style="stroke:#038048;stroke-width:1.0;"/><text fill="#000000" font-family="sans-serif" font-size="14" lengthAdjust="spacing" textLength="61" x="1151" y="63.9951">update()</text><ellipse cx="1142" cy="76.9453" fill="#84BE84" rx="3" ry="3" style="stroke:#038048;stroke-width:1.0;"/><text fill="#000000" font-family="sans-serif" font-size="14" lengthAdjust="spacing" textLength="280" x="1151" y="80.292">resize(width : Integer, height : Integer)</text><ellipse cx="1142" cy="93.2422" fill="#84BE84" rx="3" ry="3" style="stroke:#038048;stroke-width:1.0;"/><text fill="#000000" font-family="sans-serif" font-size="14" lengthAdjust="spacing" textLength="46" x="1151" y="96.5889">show()</text><ellipse cx="1142" cy="109.5391" fill="#84BE84" rx="3" ry="3" style="stroke:#038048;stroke-width:1.0;"/><text fill="#000000" font-family="sans-serif" font-size="14" lengthAdjust="spacing" textLength="41" x="1151" y="112.8857">hide()</text><ellipse cx="1142" cy="125.8359" fill="#84BE84" rx="3" ry="3" style="stroke:#038048;stroke-width:1.0;"/><text fill="#000000" font-family="sans-serif" font-size="14" lengthAdjust="spacing" textLength="52" x="1151" y="129.1826">pause()</text><ellipse cx="1142" cy="142.1328" fill="#84BE84" rx="3" ry="3" style="stroke:#038048;stroke-width:1.0;"/><text fill="#000000" font-family="sans-serif" font-size="14" lengthAdjust="spacing" textLength="63" x="1151" y="145.4795">resume()</text><ellipse cx="1142" cy="158.4297" fill="#84BE84" rx="3" ry="3" style="stroke:#038048;stroke-width:1.0;"/><text fill="#000000" font-family="sans-serif" font-size="14" lengthAdjust="spacing" textLength="231" x="1151" y="161.7764">PlayScreen(batch : SpriteBatch)</text></g><!--reverse link Drawable to Area--><g id="link_Drawable_Area"><path codeLine="56" d="M864.4353,135.2995 C791.9473,164.5945 706.637,199.071 613.105,236.87 " fill="none" id="Drawable-backto-Area" style="stroke:#181818;stroke-width:1.0;stroke-dasharray:7.0,7.0;"/><polygon fill="none" points="881.124,128.555,862.1872,129.7366,866.6835,140.8624,881.124,128.555" style="stroke:#181818;stroke-width:1.0;"/></g><!--reverse link Drawable to Character--><g id="link_Drawable_Character"><path codeLine="57" d="M979,146.555 C979,173.788 979,193.329 979,228.846 " fill="none" id="Drawable-backto-Character" style="stroke:#181818;stroke-width:1.0;stroke-dasharray:7.0,7.0;"/><polygon fill="none" points="979,128.555,973,146.555,985,146.555,979,128.555" style="stroke:#181818;stroke-width:1.0;"/></g><!--reverse link Drawable to Item--><g id="link_Drawable_Item"><path codeLine="58" d="M1059.8079,137.9899 C1114.5279,171.4389 1172.55,207.794 1200,229 C1229.25,251.598 1259.76,280.464 1281.53,302.129 " fill="none" id="Drawable-backto-Item" style="stroke:#181818;stroke-width:1.0;stroke-dasharray:7.0,7.0;"/><polygon fill="none" points="1044.45,128.602,1056.6786,143.1093,1062.9373,132.8706,1044.45,128.602" style="stroke:#181818;stroke-width:1.0;"/></g><!--reverse link Item to Interactable--><g id="link_Item_Interactable"><path codeLine="59" d="M1312,384.724 C1312,418.873 1312,456.522 1312,499.942 " fill="none" id="Item-backto-Interactable" style="stroke:#181818;stroke-width:1.0;"/><polygon fill="none" points="1312,366.724,1306,384.724,1318,384.724,1312,366.724" style="stroke:#181818;stroke-width:1.0;"/></g><!--SRC=[bLHDRzim3BtxL_WsPyl7i6FGIvDYI80D2vgkFGmxi1PZ4v0bGwBdfkl- -oH_HV4QRCibflJ8HpwIUfCpbtQvM9GI55U5dAUwMAGIh9q9Win04KMa6Cq1Kenl3DJmA37-6SNkzqwGBRN5v14upUDbl2yDCQwyDMaH1fL0yphWLnGrJF6rGUX3WX1RpmSfUwQ40iC52EywYgeKm7XFM2Sf5ExMmRuOphNBlimfNJU77JX3_Wpb0mdEaua3VfGQEBpQ86KvZ-yiOvaC9MNaRBFMKf8bhLPQ75sUn0HofwtxrygvtsFAsdoOndmiVUeUTkS-ft7jwNk2QPmtbBqzwQ0ZiXnysKxA_t1s5MtRj0RtFh-cm2x35koRa1HGxg09lsT3Afl6T270oJrev83gkrde7_XrKCvRDxfMeVq93npQjwtyfuF-c-m3SKvgemqzQyKWLxfI8W4_FCjcXjhgjKHGvpxtQ9ZIV_5mabsMoDRa1dSeSksom2Tkuct5KpUT6PekurFFFC9sbD_Up-TllqzZWGUe95__wJp8kMKiUYKl9NO2XulIEVNBqsl8EiiaRaW4gZfBO1jpfDrQ-jrEGGdo6nPqV8mzszZojHLmEbN6XxXhlwPnq8M_R8J3fbt0sqgfTlM7kdSIZllK8Ag-wlP1EAshfMSSrgPJEU0uRvhDTTsxve5G9LGsZ5aLWtNAuE8x5mqlvzNBVDuKFJeQXcLqxcSWQWRXwcKsE-loRm00]--></g></svg>