<?xml version="1.0" encoding="windows-1252" standalone="no"?>
<svg xmlns="http://www.w3.org/2000/svg" xmlns:xlink="http://www.w3.org/1999/xlink" contentStyleType="text/css" height="1933px" preserveAspectRatio="none" style="width:1305px;height:1933px;background:#FFFFFF;" version="1.1" viewBox="0 0 1305 1933" width="1305px" zoomAndPan="magnify"><defs/><g><rect fill="none" height="75.3984" style="stroke:#000000;stroke-width:1.5;" width="438" x="20" y="198.6953"/><rect fill="none" height="75.3984" style="stroke:#000000;stroke-width:1.5;" width="438" x="20" y="288.0938"/><rect fill="none" height="75.3984" style="stroke:#000000;stroke-width:1.5;" width="438" x="20" y="377.4922"/><rect fill="none" height="59.2656" style="stroke:#000000;stroke-width:1.5;" width="365" x="382" y="583.4219"/><rect fill="none" height="75.3984" style="stroke:#000000;stroke-width:1.5;" width="438" x="20" y="918.8828"/><rect fill="none" height="59.2656" style="stroke:#000000;stroke-width:1.5;" width="280" x="1019.5" y="1008.2813"/><rect fill="none" height="148.6641" style="stroke:#000000;stroke-width:1.5;" width="1254" x="10" y="1081.5469"/><rect fill="none" height="75.3984" style="stroke:#000000;stroke-width:1.5;" width="1086.5" x="20" y="1147.8125"/><rect fill="none" height="59.2656" style="stroke:#000000;stroke-width:1.5;" width="280" x="382" y="1244.2109"/><rect fill="none" height="193.9297" style="stroke:#000000;stroke-width:1.5;" width="1086.5" x="20" y="1434.0078"/><rect fill="none" height="135.6641" style="stroke:#000000;stroke-width:1.5;" width="1086.5" x="20" y="1700.2031"/><line style="stroke:#181818;stroke-width:0.5;stroke-dasharray:5.0,5.0;" x1="55" x2="55" y1="81.2969" y2="1852.8672"/><line style="stroke:#181818;stroke-width:0.5;stroke-dasharray:5.0,5.0;" x1="420" x2="420" y1="81.2969" y2="1852.8672"/><line style="stroke:#181818;stroke-width:0.5;stroke-dasharray:5.0,5.0;" x1="586" x2="586" y1="81.2969" y2="1852.8672"/><line style="stroke:#181818;stroke-width:0.5;stroke-dasharray:5.0,5.0;" x1="777.5" x2="777.5" y1="81.2969" y2="1852.8672"/><line style="stroke:#181818;stroke-width:0.5;stroke-dasharray:5.0,5.0;" x1="957.5" x2="957.5" y1="81.2969" y2="1852.8672"/><line style="stroke:#181818;stroke-width:0.5;stroke-dasharray:5.0,5.0;" x1="1062.5" x2="1062.5" y1="81.2969" y2="1852.8672"/><text fill="#000000" font-family="sans-serif" font-size="14" lengthAdjust="spacing" textLength="44" x="30" y="77.9951">Player</text><ellipse cx="55" cy="13.5" fill="#E2E2F0" rx="8" ry="8" style="stroke:#181818;stroke-width:0.5;"/><path d="M55,21.5 L55,48.5 M42,29.5 L68,29.5 M55,48.5 L42,63.5 M55,48.5 L68,63.5 " fill="none" style="stroke:#181818;stroke-width:0.5;"/><text fill="#000000" font-family="sans-serif" font-size="14" lengthAdjust="spacing" textLength="44" x="30" y="1864.8623">Player</text><ellipse cx="55" cy="1876.6641" fill="#E2E2F0" rx="8" ry="8" style="stroke:#181818;stroke-width:0.5;"/><path d="M55,1884.6641 L55,1911.6641 M42,1892.6641 L68,1892.6641 M55,1911.6641 L42,1926.6641 M55,1911.6641 L68,1926.6641 " fill="none" style="stroke:#181818;stroke-width:0.5;"/><rect fill="#E2E2F0" height="30.2969" rx="2.5" ry="2.5" style="stroke:#181818;stroke-width:0.5;" width="56" x="392" y="50"/><text fill="#000000" font-family="sans-serif" font-size="14" lengthAdjust="spacing" textLength="42" x="399" y="69.9951">Game</text><rect fill="#E2E2F0" height="30.2969" rx="2.5" ry="2.5" style="stroke:#181818;stroke-width:0.5;" width="56" x="392" y="1851.8672"/><text fill="#000000" font-family="sans-serif" font-size="14" lengthAdjust="spacing" textLength="42" x="399" y="1871.8623">Game</text><rect fill="#E2E2F0" height="30.2969" rx="2.5" ry="2.5" style="stroke:#181818;stroke-width:0.5;" width="44" x="564" y="50"/><text fill="#000000" font-family="sans-serif" font-size="14" lengthAdjust="spacing" textLength="30" x="571" y="69.9951">Map</text><rect fill="#E2E2F0" height="30.2969" rx="2.5" ry="2.5" style="stroke:#181818;stroke-width:0.5;" width="44" x="564" y="1851.8672"/><text fill="#000000" font-family="sans-serif" font-size="14" lengthAdjust="spacing" textLength="30" x="571" y="1871.8623">Map</text><rect fill="#E2E2F0" height="30.2969" rx="2.5" ry="2.5" style="stroke:#181818;stroke-width:0.5;" width="61" x="747.5" y="50"/><text fill="#000000" font-family="sans-serif" font-size="14" lengthAdjust="spacing" textLength="47" x="754.5" y="69.9951">Avatar</text><rect fill="#E2E2F0" height="30.2969" rx="2.5" ry="2.5" style="stroke:#181818;stroke-width:0.5;" width="61" x="747.5" y="1851.8672"/><text fill="#000000" font-family="sans-serif" font-size="14" lengthAdjust="spacing" textLength="47" x="754.5" y="1871.8623">Avatar</text><rect fill="#E2E2F0" height="30.2969" rx="2.5" ry="2.5" style="stroke:#181818;stroke-width:0.5;" width="63" x="926.5" y="50"/><text fill="#000000" font-family="sans-serif" font-size="14" lengthAdjust="spacing" textLength="49" x="933.5" y="69.9951">Object</text><rect fill="#E2E2F0" height="30.2969" rx="2.5" ry="2.5" style="stroke:#181818;stroke-width:0.5;" width="63" x="926.5" y="1851.8672"/><text fill="#000000" font-family="sans-serif" font-size="14" lengthAdjust="spacing" textLength="49" x="933.5" y="1871.8623">Object</text><rect fill="#E2E2F0" height="30.2969" rx="2.5" ry="2.5" style="stroke:#181818;stroke-width:0.5;" width="67" x="1029.5" y="50"/><text fill="#000000" font-family="sans-serif" font-size="14" lengthAdjust="spacing" textLength="53" x="1036.5" y="69.9951">Metrics</text><rect fill="#E2E2F0" height="30.2969" rx="2.5" ry="2.5" style="stroke:#181818;stroke-width:0.5;" width="67" x="1029.5" y="1851.8672"/><text fill="#000000" font-family="sans-serif" font-size="14" lengthAdjust="spacing" textLength="53" x="1036.5" y="1871.8623">Metrics</text><polygon fill="#181818" points="408,108.4297,418,112.4297,408,116.4297,412,112.4297" style="stroke:#181818;stroke-width:1.0;"/><line style="stroke:#181818;stroke-width:1.0;" x1="55" x2="414" y1="112.4297" y2="112.4297"/><text fill="#000000" font-family="sans-serif" font-size="13" lengthAdjust="spacing" textLength="72" x="62" y="107.3638">select start</text><line style="stroke:#181818;stroke-width:1.0;" x1="420" x2="462" y1="141.5625" y2="141.5625"/><line style="stroke:#181818;stroke-width:1.0;" x1="462" x2="462" y1="141.5625" y2="154.5625"/><line style="stroke:#181818;stroke-width:1.0;" x1="421" x2="462" y1="154.5625" y2="154.5625"/><polygon fill="#181818" points="431,150.5625,421,154.5625,431,158.5625,427,154.5625" style="stroke:#181818;stroke-width:1.0;"/><text fill="#000000" font-family="sans-serif" font-size="13" lengthAdjust="spacing" textLength="152" x="427" y="136.4966">scale the game window</text><polygon fill="#181818" points="66,179.6953,56,183.6953,66,187.6953,62,183.6953" style="stroke:#181818;stroke-width:1.0;"/><line style="stroke:#181818;stroke-width:1.0;" x1="60" x2="419" y1="183.6953" y2="183.6953"/><text fill="#000000" font-family="sans-serif" font-size="13" lengthAdjust="spacing" textLength="122" x="72" y="178.6294">display main menu</text><path d="M20,198.6953 L86,198.6953 L86,205.8281 L76,215.8281 L20,215.8281 L20,198.6953 " fill="#EEEEEE" style="stroke:#000000;stroke-width:1.5;"/><rect fill="none" height="75.3984" style="stroke:#000000;stroke-width:1.5;" width="438" x="20" y="198.6953"/><text fill="#000000" font-family="sans-serif" font-size="13" font-weight="bold" lengthAdjust="spacing" textLength="21" x="35" y="211.7622">alt</text><text fill="#000000" font-family="sans-serif" font-size="11" font-weight="bold" lengthAdjust="spacing" textLength="112" x="101" y="210.9058">[close the game]</text><polygon fill="#181818" points="408,232.9609,418,236.9609,408,240.9609,412,236.9609" style="stroke:#181818;stroke-width:1.0;"/><line style="stroke:#181818;stroke-width:1.0;" x1="55" x2="414" y1="236.9609" y2="236.9609"/><text fill="#000000" font-family="sans-serif" font-size="13" lengthAdjust="spacing" textLength="90" x="62" y="231.895">exit the game</text><polygon fill="#181818" points="66,262.0938,56,266.0938,66,270.0938,62,266.0938" style="stroke:#181818;stroke-width:1.0;"/><line style="stroke:#181818;stroke-width:1.0;" x1="60" x2="419" y1="266.0938" y2="266.0938"/><text fill="#000000" font-family="sans-serif" font-size="13" lengthAdjust="spacing" textLength="172" x="72" y="261.0278">close the game application</text><path d="M20,288.0938 L180,288.0938 L180,295.2266 L170,305.2266 L20,305.2266 L20,288.0938 " fill="#EEEEEE" style="stroke:#000000;stroke-width:1.5;"/><rect fill="none" height="75.3984" style="stroke:#000000;stroke-width:1.5;" width="438" x="20" y="288.0938"/><text fill="#000000" font-family="sans-serif" font-size="13" font-weight="bold" lengthAdjust="spacing" textLength="110" x="35" y="301.1606">mdify settings</text><text fill="#000000" font-family="sans-serif" font-size="11" font-weight="bold" lengthAdjust="spacing" textLength="159" x="195" y="300.3042">[optional functionality]</text><polygon fill="#181818" points="408,322.3594,418,326.3594,408,330.3594,412,326.3594" style="stroke:#181818;stroke-width:1.0;"/><line style="stroke:#181818;stroke-width:1.0;" x1="55" x2="414" y1="326.3594" y2="326.3594"/><text fill="#000000" font-family="sans-serif" font-size="13" lengthAdjust="spacing" textLength="100" x="62" y="321.2935">modify settings</text><polygon fill="#181818" points="66,351.4922,56,355.4922,66,359.4922,62,355.4922" style="stroke:#181818;stroke-width:1.0;"/><line style="stroke:#181818;stroke-width:1.0;" x1="60" x2="419" y1="355.4922" y2="355.4922"/><text fill="#000000" font-family="sans-serif" font-size="13" lengthAdjust="spacing" textLength="90" x="72" y="350.4263">apply settings</text><path d="M20,377.4922 L179,377.4922 L179,384.625 L169,394.625 L20,394.625 L20,377.4922 " fill="#EEEEEE" style="stroke:#000000;stroke-width:1.5;"/><rect fill="none" height="75.3984" style="stroke:#000000;stroke-width:1.5;" width="438" x="20" y="377.4922"/><text fill="#000000" font-family="sans-serif" font-size="13" font-weight="bold" lengthAdjust="spacing" textLength="109" x="35" y="390.5591">customisation</text><text fill="#000000" font-family="sans-serif" font-size="11" font-weight="bold" lengthAdjust="spacing" textLength="159" x="194" y="389.7026">[optional functionality]</text><polygon fill="#181818" points="408,411.7578,418,415.7578,408,419.7578,412,415.7578" style="stroke:#181818;stroke-width:1.0;"/><line style="stroke:#181818;stroke-width:1.0;" x1="55" x2="414" y1="415.7578" y2="415.7578"/><text fill="#000000" font-family="sans-serif" font-size="13" lengthAdjust="spacing" textLength="236" x="62" y="410.6919">customise the character appearence</text><polygon fill="#181818" points="66,440.8906,56,444.8906,66,448.8906,62,444.8906" style="stroke:#181818;stroke-width:1.0;"/><line style="stroke:#181818;stroke-width:1.0;" x1="60" x2="419" y1="444.8906" y2="444.8906"/><text fill="#000000" font-family="sans-serif" font-size="13" lengthAdjust="spacing" textLength="129" x="72" y="439.8247">apply customisation</text><polygon fill="#181818" points="408,477.0234,418,481.0234,408,485.0234,412,481.0234" style="stroke:#181818;stroke-width:1.0;"/><line style="stroke:#181818;stroke-width:1.0;" x1="55" x2="414" y1="481.0234" y2="481.0234"/><text fill="#000000" font-family="sans-serif" font-size="13" lengthAdjust="spacing" textLength="96" x="62" y="475.9575">start the game</text><polygon fill="#181818" points="574,506.1563,584,510.1563,574,514.1563,578,510.1563" style="stroke:#181818;stroke-width:1.0;"/><line style="stroke:#181818;stroke-width:1.0;" x1="420" x2="580" y1="510.1563" y2="510.1563"/><text fill="#000000" font-family="sans-serif" font-size="13" lengthAdjust="spacing" textLength="108" x="427" y="505.0903">rennder the map</text><polygon fill="#181818" points="766,535.2891,776,539.2891,766,543.2891,770,539.2891" style="stroke:#181818;stroke-width:1.0;"/><line style="stroke:#181818;stroke-width:1.0;" x1="420" x2="772" y1="539.2891" y2="539.2891"/><text fill="#000000" font-family="sans-serif" font-size="13" lengthAdjust="spacing" textLength="129" x="427" y="534.2231">generate the avatar</text><polygon fill="#181818" points="597,564.4219,587,568.4219,597,572.4219,593,568.4219" style="stroke:#181818;stroke-width:1.0;"/><line style="stroke:#181818;stroke-width:1.0;" x1="591" x2="777" y1="568.4219" y2="568.4219"/><text fill="#000000" font-family="sans-serif" font-size="13" lengthAdjust="spacing" textLength="113" x="603" y="563.356">render the avatar</text><path d="M382,583.4219 L568,583.4219 L568,590.5547 L558,600.5547 L382,600.5547 L382,583.4219 " fill="#EEEEEE" style="stroke:#000000;stroke-width:1.5;"/><rect fill="none" height="59.2656" style="stroke:#000000;stroke-width:1.5;" width="365" x="382" y="583.4219"/><text fill="#000000" font-family="sans-serif" font-size="13" font-weight="bold" lengthAdjust="spacing" textLength="136" x="397" y="596.4888">background music</text><text fill="#000000" font-family="sans-serif" font-size="11" font-weight="bold" lengthAdjust="spacing" textLength="159" x="583" y="595.6323">[optional functionality]</text><line style="stroke:#181818;stroke-width:1.0;" x1="420" x2="462" y1="621.6875" y2="621.6875"/><line style="stroke:#181818;stroke-width:1.0;" x1="462" x2="462" y1="621.6875" y2="634.6875"/><line style="stroke:#181818;stroke-width:1.0;" x1="421" x2="462" y1="634.6875" y2="634.6875"/><polygon fill="#181818" points="431,630.6875,421,634.6875,431,638.6875,427,634.6875" style="stroke:#181818;stroke-width:1.0;"/><text fill="#000000" font-family="sans-serif" font-size="13" lengthAdjust="spacing" textLength="148" x="427" y="616.6216">play background music</text><polygon fill="#181818" points="946,666.8203,956,670.8203,946,674.8203,950,670.8203" style="stroke:#181818;stroke-width:1.0;"/><line style="stroke:#181818;stroke-width:1.0;" x1="420" x2="952" y1="670.8203" y2="670.8203"/><text fill="#000000" font-family="sans-serif" font-size="13" lengthAdjust="spacing" textLength="162" x="427" y="665.7544">generate studying places</text><polygon fill="#181818" points="597,695.9531,587,699.9531,597,703.9531,593,699.9531" style="stroke:#181818;stroke-width:1.0;"/><line style="stroke:#181818;stroke-width:1.0;" x1="591" x2="957" y1="699.9531" y2="699.9531"/><text fill="#000000" font-family="sans-serif" font-size="13" lengthAdjust="spacing" textLength="146" x="603" y="694.8872">render studying places</text><polygon fill="#181818" points="946,725.0859,956,729.0859,946,733.0859,950,729.0859" style="stroke:#181818;stroke-width:1.0;"/><line style="stroke:#181818;stroke-width:1.0;" x1="420" x2="952" y1="729.0859" y2="729.0859"/><text fill="#000000" font-family="sans-serif" font-size="13" lengthAdjust="spacing" textLength="160" x="427" y="724.02">generate sleeping places</text><polygon fill="#181818" points="597,754.2188,587,758.2188,597,762.2188,593,758.2188" style="stroke:#181818;stroke-width:1.0;"/><line style="stroke:#181818;stroke-width:1.0;" x1="591" x2="957" y1="758.2188" y2="758.2188"/><text fill="#000000" font-family="sans-serif" font-size="13" lengthAdjust="spacing" textLength="144" x="603" y="753.1528">render sleeping places</text><polygon fill="#181818" points="946,783.3516,956,787.3516,946,791.3516,950,787.3516" style="stroke:#181818;stroke-width:1.0;"/><line style="stroke:#181818;stroke-width:1.0;" x1="420" x2="952" y1="787.3516" y2="787.3516"/><text fill="#000000" font-family="sans-serif" font-size="13" lengthAdjust="spacing" textLength="183" x="427" y="782.2856">generate recreational places</text><polygon fill="#181818" points="597,812.4844,587,816.4844,597,820.4844,593,816.4844" style="stroke:#181818;stroke-width:1.0;"/><line style="stroke:#181818;stroke-width:1.0;" x1="591" x2="957" y1="816.4844" y2="816.4844"/><text fill="#000000" font-family="sans-serif" font-size="13" lengthAdjust="spacing" textLength="167" x="603" y="811.4185">render recreational places</text><polygon fill="#181818" points="1051,841.6172,1061,845.6172,1051,849.6172,1055,845.6172" style="stroke:#181818;stroke-width:1.0;"/><line style="stroke:#181818;stroke-width:1.0;" x1="420" x2="1057" y1="845.6172" y2="845.6172"/><text fill="#000000" font-family="sans-serif" font-size="13" lengthAdjust="spacing" textLength="110" x="427" y="840.5513">generate metrics</text><polygon fill="#181818" points="66,870.75,56,874.75,66,878.75,62,874.75" style="stroke:#181818;stroke-width:1.0;"/><line style="stroke:#181818;stroke-width:1.0;" x1="60" x2="1062" y1="874.75" y2="874.75"/><text fill="#000000" font-family="sans-serif" font-size="13" lengthAdjust="spacing" textLength="97" x="72" y="869.6841">display metrics</text><polygon fill="#181818" points="66,899.8828,56,903.8828,66,907.8828,62,903.8828" style="stroke:#181818;stroke-width:1.0;"/><line style="stroke:#181818;stroke-width:1.0;" x1="60" x2="419" y1="903.8828" y2="903.8828"/><text fill="#000000" font-family="sans-serif" font-size="13" lengthAdjust="spacing" textLength="106" x="72" y="898.8169">display a tutorial</text><path d="M20,918.8828 L86,918.8828 L86,926.0156 L76,936.0156 L20,936.0156 L20,918.8828 " fill="#EEEEEE" style="stroke:#000000;stroke-width:1.5;"/><rect fill="none" height="75.3984" style="stroke:#000000;stroke-width:1.5;" width="438" x="20" y="918.8828"/><text fill="#000000" font-family="sans-serif" font-size="13" font-weight="bold" lengthAdjust="spacing" textLength="21" x="35" y="931.9497">alt</text><text fill="#000000" font-family="sans-serif" font-size="11" font-weight="bold" lengthAdjust="spacing" textLength="120" x="101" y="931.0933">[skip the tutorial]</text><polygon fill="#181818" points="408,953.1484,418,957.1484,408,961.1484,412,957.1484" style="stroke:#181818;stroke-width:1.0;"/><line style="stroke:#181818;stroke-width:1.0;" x1="55" x2="414" y1="957.1484" y2="957.1484"/><text fill="#000000" font-family="sans-serif" font-size="13" lengthAdjust="spacing" textLength="99" x="62" y="952.0825">skip the tutorial</text><polygon fill="#181818" points="66,982.2813,56,986.2813,66,990.2813,62,986.2813" style="stroke:#181818;stroke-width:1.0;"/><line style="stroke:#181818;stroke-width:1.0;" x1="60" x2="419" y1="986.2813" y2="986.2813"/><text fill="#000000" font-family="sans-serif" font-size="13" lengthAdjust="spacing" textLength="107" x="72" y="981.2153">close the tutorial</text><path d="M1019.5,1008.2813 L1097.5,1008.2813 L1097.5,1015.4141 L1087.5,1025.4141 L1019.5,1025.4141 L1019.5,1008.2813 " fill="#EEEEEE" style="stroke:#000000;stroke-width:1.5;"/><rect fill="none" height="59.2656" style="stroke:#000000;stroke-width:1.5;" width="280" x="1019.5" y="1008.2813"/><text fill="#000000" font-family="sans-serif" font-size="13" font-weight="bold" lengthAdjust="spacing" textLength="33" x="1034.5" y="1021.3481">loop</text><text fill="#000000" font-family="sans-serif" font-size="11" font-weight="bold" lengthAdjust="spacing" textLength="182" x="1112.5" y="1020.4917">[throughout the game day]</text><line style="stroke:#181818;stroke-width:1.0;" x1="1063" x2="1105" y1="1046.5469" y2="1046.5469"/><line style="stroke:#181818;stroke-width:1.0;" x1="1105" x2="1105" y1="1046.5469" y2="1059.5469"/><line style="stroke:#181818;stroke-width:1.0;" x1="1064" x2="1105" y1="1059.5469" y2="1059.5469"/><polygon fill="#181818" points="1074,1055.5469,1064,1059.5469,1074,1063.5469,1070,1059.5469" style="stroke:#181818;stroke-width:1.0;"/><text fill="#000000" font-family="sans-serif" font-size="13" lengthAdjust="spacing" textLength="122" x="1070" y="1041.481">deplete the energy</text><path d="M10,1081.5469 L88,1081.5469 L88,1088.6797 L78,1098.6797 L10,1098.6797 L10,1081.5469 " fill="#EEEEEE" style="stroke:#000000;stroke-width:1.5;"/><rect fill="none" height="148.6641" style="stroke:#000000;stroke-width:1.5;" width="1254" x="10" y="1081.5469"/><text fill="#000000" font-family="sans-serif" font-size="13" font-weight="bold" lengthAdjust="spacing" textLength="33" x="25" y="1094.6138">loop</text><text fill="#000000" font-family="sans-serif" font-size="11" font-weight="bold" lengthAdjust="spacing" textLength="155" x="103" y="1093.7573">[throughout the game]</text><line style="stroke:#181818;stroke-width:1.0;" x1="1063" x2="1105" y1="1119.8125" y2="1119.8125"/><line style="stroke:#181818;stroke-width:1.0;" x1="1105" x2="1105" y1="1119.8125" y2="1132.8125"/><line style="stroke:#181818;stroke-width:1.0;" x1="1064" x2="1105" y1="1132.8125" y2="1132.8125"/><polygon fill="#181818" points="1074,1128.8125,1064,1132.8125,1074,1136.8125,1070,1132.8125" style="stroke:#181818;stroke-width:1.0;"/><text fill="#000000" font-family="sans-serif" font-size="13" lengthAdjust="spacing" textLength="182" x="1070" y="1114.7466">check the amount of energy</text><path d="M20,1147.8125 L86,1147.8125 L86,1154.9453 L76,1164.9453 L20,1164.9453 L20,1147.8125 " fill="#EEEEEE" style="stroke:#000000;stroke-width:1.5;"/><rect fill="none" height="75.3984" style="stroke:#000000;stroke-width:1.5;" width="1086.5" x="20" y="1147.8125"/><text fill="#000000" font-family="sans-serif" font-size="13" font-weight="bold" lengthAdjust="spacing" textLength="21" x="35" y="1160.8794">alt</text><text fill="#000000" font-family="sans-serif" font-size="11" font-weight="bold" lengthAdjust="spacing" textLength="109" x="101" y="1160.0229">[energy ran out]</text><polygon fill="#181818" points="431,1182.0781,421,1186.0781,431,1190.0781,427,1186.0781" style="stroke:#181818;stroke-width:1.0;"/><line style="stroke:#181818;stroke-width:1.0;" x1="425" x2="1062" y1="1186.0781" y2="1186.0781"/><text fill="#000000" font-family="sans-serif" font-size="13" lengthAdjust="spacing" textLength="103" x="437" y="1181.0122">the game is lost</text><polygon fill="#181818" points="66,1211.2109,56,1215.2109,66,1219.2109,62,1215.2109" style="stroke:#181818;stroke-width:1.0;"/><line style="stroke:#181818;stroke-width:1.0;" x1="60" x2="419" y1="1215.2109" y2="1215.2109"/><text fill="#000000" font-family="sans-serif" font-size="13" lengthAdjust="spacing" textLength="141" x="72" y="1210.145">display loosing screen</text><path d="M382,1244.2109 L460,1244.2109 L460,1251.3438 L450,1261.3438 L382,1261.3438 L382,1244.2109 " fill="#EEEEEE" style="stroke:#000000;stroke-width:1.5;"/><rect fill="none" height="59.2656" style="stroke:#000000;stroke-width:1.5;" width="280" x="382" y="1244.2109"/><text fill="#000000" font-family="sans-serif" font-size="13" font-weight="bold" lengthAdjust="spacing" textLength="33" x="397" y="1257.2778">loop</text><text fill="#000000" font-family="sans-serif" font-size="11" font-weight="bold" lengthAdjust="spacing" textLength="182" x="475" y="1256.4214">[throughout the game day]</text><line style="stroke:#181818;stroke-width:1.0;" x1="420" x2="462" y1="1282.4766" y2="1282.4766"/><line style="stroke:#181818;stroke-width:1.0;" x1="462" x2="462" y1="1282.4766" y2="1295.4766"/><line style="stroke:#181818;stroke-width:1.0;" x1="421" x2="462" y1="1295.4766" y2="1295.4766"/><polygon fill="#181818" points="431,1291.4766,421,1295.4766,431,1299.4766,427,1295.4766" style="stroke:#181818;stroke-width:1.0;"/><text fill="#000000" font-family="sans-serif" font-size="13" lengthAdjust="spacing" textLength="150" x="427" y="1277.4106">initiate a random event</text><polygon fill="#181818" points="766,1327.6094,776,1331.6094,766,1335.6094,770,1331.6094" style="stroke:#181818;stroke-width:1.0;"/><line style="stroke:#181818;stroke-width:1.0;" x1="55" x2="772" y1="1331.6094" y2="1331.6094"/><text fill="#000000" font-family="sans-serif" font-size="13" lengthAdjust="spacing" textLength="108" x="62" y="1326.5435">move the avatar</text><polygon fill="#181818" points="597,1356.7422,587,1360.7422,597,1364.7422,593,1360.7422" style="stroke:#181818;stroke-width:1.0;"/><line style="stroke:#181818;stroke-width:1.0;" x1="591" x2="777" y1="1360.7422" y2="1360.7422"/><text fill="#000000" font-family="sans-serif" font-size="13" lengthAdjust="spacing" textLength="126" x="603" y="1355.6763">change the position</text><polygon fill="#181818" points="408,1385.875,418,1389.875,408,1393.875,412,1389.875" style="stroke:#181818;stroke-width:1.0;"/><line style="stroke:#181818;stroke-width:1.0;" x1="55" x2="414" y1="1389.875" y2="1389.875"/><text fill="#000000" font-family="sans-serif" font-size="13" lengthAdjust="spacing" textLength="143" x="62" y="1384.8091">interact with an object</text><polygon fill="#181818" points="766,1415.0078,776,1419.0078,766,1423.0078,770,1419.0078" style="stroke:#181818;stroke-width:1.0;"/><line style="stroke:#181818;stroke-width:1.0;" x1="420" x2="772" y1="1419.0078" y2="1419.0078"/><text fill="#000000" font-family="sans-serif" font-size="13" lengthAdjust="spacing" textLength="334" x="427" y="1413.9419">check if the avatar is able to interact with the object</text><path d="M20,1434.0078 L86,1434.0078 L86,1441.1406 L76,1451.1406 L20,1451.1406 L20,1434.0078 " fill="#EEEEEE" style="stroke:#000000;stroke-width:1.5;"/><rect fill="none" height="193.9297" style="stroke:#000000;stroke-width:1.5;" width="1086.5" x="20" y="1434.0078"/><text fill="#000000" font-family="sans-serif" font-size="13" font-weight="bold" lengthAdjust="spacing" textLength="21" x="35" y="1447.0747">alt</text><text fill="#000000" font-family="sans-serif" font-size="11" font-weight="bold" lengthAdjust="spacing" textLength="287" x="101" y="1446.2183">[avatar is able to interact with the object]</text><polygon fill="#181818" points="946,1468.2734,956,1472.2734,946,1476.2734,950,1472.2734" style="stroke:#181818;stroke-width:1.0;"/><line style="stroke:#181818;stroke-width:1.0;" x1="778" x2="952" y1="1472.2734" y2="1472.2734"/><text fill="#000000" font-family="sans-serif" font-size="13" lengthAdjust="spacing" textLength="156" x="785" y="1467.2075">start interaction process</text><polygon fill="#181818" points="66,1497.4063,56,1501.4063,66,1505.4063,62,1501.4063" style="stroke:#181818;stroke-width:1.0;"/><line style="stroke:#181818;stroke-width:1.0;" x1="60" x2="957" y1="1501.4063" y2="1501.4063"/><text fill="#000000" font-family="sans-serif" font-size="13" lengthAdjust="spacing" textLength="171" x="72" y="1496.3403">display interaction process</text><polygon fill="#181818" points="1051,1526.5391,1061,1530.5391,1051,1534.5391,1055,1530.5391" style="stroke:#181818;stroke-width:1.0;"/><line style="stroke:#181818;stroke-width:1.0;" x1="958" x2="1057" y1="1530.5391" y2="1530.5391"/><text fill="#000000" font-family="sans-serif" font-size="13" lengthAdjust="spacing" textLength="81" x="965" y="1525.4731">alter metrics</text><polygon fill="#181818" points="431,1555.6719,421,1559.6719,431,1563.6719,427,1559.6719" style="stroke:#181818;stroke-width:1.0;"/><line style="stroke:#181818;stroke-width:1.0;" x1="425" x2="957" y1="1559.6719" y2="1559.6719"/><text fill="#000000" font-family="sans-serif" font-size="13" lengthAdjust="spacing" textLength="150" x="437" y="1554.606">end interaction process</text><polygon fill="#181818" points="66,1584.8047,56,1588.8047,66,1592.8047,62,1588.8047" style="stroke:#181818;stroke-width:1.0;"/><line style="stroke:#181818;stroke-width:1.0;" x1="60" x2="419" y1="1588.8047" y2="1588.8047"/><text fill="#000000" font-family="sans-serif" font-size="13" lengthAdjust="spacing" textLength="266" x="72" y="1583.7388">display the end of the interaction process</text><line style="stroke:#000000;stroke-width:1.0;stroke-dasharray:2.0,2.0;" x1="20" x2="1106.5" y1="1597.8047" y2="1597.8047"/><polygon fill="#181818" points="431,1615.9375,421,1619.9375,431,1623.9375,427,1619.9375" style="stroke:#181818;stroke-width:1.0;"/><line style="stroke:#181818;stroke-width:1.0;" x1="425" x2="777" y1="1619.9375" y2="1619.9375"/><text fill="#000000" font-family="sans-serif" font-size="13" lengthAdjust="spacing" textLength="306" x="437" y="1614.8716">the avatar is not able to interact with the object</text><polygon fill="#181818" points="408,1652.0703,418,1656.0703,408,1660.0703,412,1656.0703" style="stroke:#181818;stroke-width:1.0;"/><line style="stroke:#181818;stroke-width:1.0;" x1="55" x2="414" y1="1656.0703" y2="1656.0703"/><text fill="#000000" font-family="sans-serif" font-size="13" lengthAdjust="spacing" textLength="341" x="62" y="1651.0044">eventually procced to the end of the last gaming day</text><polygon fill="#181818" points="1051,1681.2031,1061,1685.2031,1051,1689.2031,1055,1685.2031" style="stroke:#181818;stroke-width:1.0;"/><line style="stroke:#181818;stroke-width:1.0;" x1="420" x2="1057" y1="1685.2031" y2="1685.2031"/><text fill="#000000" font-family="sans-serif" font-size="13" lengthAdjust="spacing" textLength="114" x="427" y="1680.1372">check the metrics</text><path d="M20,1700.2031 L86,1700.2031 L86,1707.3359 L76,1717.3359 L20,1717.3359 L20,1700.2031 " fill="#EEEEEE" style="stroke:#000000;stroke-width:1.5;"/><rect fill="none" height="135.6641" style="stroke:#000000;stroke-width:1.5;" width="1086.5" x="20" y="1700.2031"/><text fill="#000000" font-family="sans-serif" font-size="13" font-weight="bold" lengthAdjust="spacing" textLength="21" x="35" y="1713.27">alt</text><text fill="#000000" font-family="sans-serif" font-size="11" font-weight="bold" lengthAdjust="spacing" textLength="100" x="101" y="1712.4136">[win condition]</text><polygon fill="#181818" points="431,1734.4688,421,1738.4688,431,1742.4688,427,1738.4688" style="stroke:#181818;stroke-width:1.0;"/><line style="stroke:#181818;stroke-width:1.0;" x1="425" x2="1062" y1="1738.4688" y2="1738.4688"/><text fill="#000000" font-family="sans-serif" font-size="13" lengthAdjust="spacing" textLength="107" x="437" y="1733.4028">the game is won</text><polygon fill="#181818" points="66,1763.6016,56,1767.6016,66,1771.6016,62,1767.6016" style="stroke:#181818;stroke-width:1.0;"/><line style="stroke:#181818;stroke-width:1.0;" x1="60" x2="419" y1="1767.6016" y2="1767.6016"/><text fill="#000000" font-family="sans-serif" font-size="13" lengthAdjust="spacing" textLength="145" x="72" y="1762.5356">display winning screen</text><line style="stroke:#000000;stroke-width:1.0;stroke-dasharray:2.0,2.0;" x1="20" x2="1106.5" y1="1776.6016" y2="1776.6016"/><polygon fill="#181818" points="431,1794.7344,421,1798.7344,431,1802.7344,427,1798.7344" style="stroke:#181818;stroke-width:1.0;"/><line style="stroke:#181818;stroke-width:1.0;" x1="425" x2="1062" y1="1798.7344" y2="1798.7344"/><text fill="#000000" font-family="sans-serif" font-size="13" lengthAdjust="spacing" textLength="103" x="437" y="1793.6685">the game is lost</text><polygon fill="#181818" points="66,1823.8672,56,1827.8672,66,1831.8672,62,1827.8672" style="stroke:#181818;stroke-width:1.0;"/><line style="stroke:#181818;stroke-width:1.0;" x1="60" x2="419" y1="1827.8672" y2="1827.8672"/><text fill="#000000" font-family="sans-serif" font-size="13" lengthAdjust="spacing" textLength="141" x="72" y="1822.8013">display loosing screen</text><!--SRC=[bLL9hjim3Dth5Bn0Bv15WQwwAjfzqGKZCOuQMH8iEQblNzBo50_9_mi3WlJuE3tIg7Deu9V3ZXh0D9oK6cw-V8NlMDC94ZdI6LB69eEIkyMRHaUGhmILt3-iD-4nOGhJ2OnDaOzGe_LGasyLkWpQXJJRAbZxfNysBvxNfC_cW34wgp7Ru1Lvewecj15gOoyTPv2pzLM2to4A01rSMg_BqURkpzPv7Puij-x5t-9zTgdRb4DjKn_A9poETYKdVSK6TPREn4ZOaDTq5CIJnpwIJGlxtasr76b-O3m1Ktl3O7cjCKwFt-x8LYUeo5E3kOI5_QKgRqkAaM40b5ASKT_av0tKRRBwHJMUPTMhPMtTPpRYVfx_iYWNqQNScevR8RQQaYg0TOXhr36T8uhlwLQeGxg6T4CuvFwISWyvzOjoOtLQyDRbHWqlkqCtG8w64Y6tl0Wikdugqyt6lfFJxKQfEv3ZuPmmqZqNWbXoKwjhQ6T5Wi5EmIA9ALD3qT4WFacwwbuIxPFeA-bRaMVDUieGBYCPICxb30rwO385IvAIyXIeJS2f2UQedXnQ4aaaxYDv1H8kVm1lid-U0Ejjjj9XbB1Cg87kvFDgkiSPhSFzrNpoCl5L0KGEhbyJwwPQpyk6Dmxly7m5gKGlpyqwABMqbuKxAGgUvJyGLZI26NYapf-0mvp2E4nbYOqMibnZ4tWyU3dFexJknXlu914EZwinpie2CVoBk86xL4SgA7ereZGvxjcIIxJCSrRQN2SVyljQxMtyNYqjEluzY3zDHYXMKJbCMHGeSXKDRlRCF3XZPQID_9S77RmfGdezB0z171M9YVnYL4f1FZ1x7nmzplG_]--></g></svg>