<?xml version="1.0" encoding="windows-1252" standalone="no"?>
<svg xmlns="http://www.w3.org/2000/svg" xmlns:xlink="http://www.w3.org/1999/xlink" contentStyleType="text/css" height="993px" preserveAspectRatio="none" style="width:925px;height:993px;background:#FFFFFF;" version="1.1" viewBox="0 0 925 993" width="925px" zoomAndPan="magnify"><defs/><g><rect fill="none" height="75.3984" style="stroke:#000000;stroke-width:1.5;" width="287.5" x="30" y="169.5625"/><rect fill="none" height="258.1953" style="stroke:#000000;stroke-width:1.5;" width="908" x="10" y="637.6875"/><rect fill="none" height="166.7969" style="stroke:#000000;stroke-width:1.5;" width="888" x="20" y="690.9531"/><rect fill="none" height="46.2656" style="stroke:#000000;stroke-width:1.5;" width="287.5" x="30" y="744.2188"/><line style="stroke:#181818;stroke-width:0.5;stroke-dasharray:5.0,5.0;" x1="65" x2="65" y1="81.2969" y2="912.8828"/><line style="stroke:#181818;stroke-width:0.5;stroke-dasharray:5.0,5.0;" x1="260.5" x2="260.5" y1="81.2969" y2="912.8828"/><line style="stroke:#181818;stroke-width:0.5;stroke-dasharray:5.0,5.0;" x1="556.5" x2="556.5" y1="81.2969" y2="912.8828"/><line style="stroke:#181818;stroke-width:0.5;stroke-dasharray:5.0,5.0;" x1="640.5" x2="640.5" y1="81.2969" y2="912.8828"/><line style="stroke:#181818;stroke-width:0.5;stroke-dasharray:5.0,5.0;" x1="790" x2="790" y1="81.2969" y2="912.8828"/><line style="stroke:#181818;stroke-width:0.5;stroke-dasharray:5.0,5.0;" x1="864" x2="864" y1="81.2969" y2="912.8828"/><text fill="#000000" font-family="sans-serif" font-size="14" lengthAdjust="spacing" textLength="44" x="40" y="77.9951">Player</text><ellipse cx="65" cy="13.5" fill="#E2E2F0" rx="8" ry="8" style="stroke:#181818;stroke-width:0.5;"/><path d="M65,21.5 L65,48.5 M52,29.5 L78,29.5 M65,48.5 L52,63.5 M65,48.5 L78,63.5 " fill="none" style="stroke:#181818;stroke-width:0.5;"/><text fill="#000000" font-family="sans-serif" font-size="14" lengthAdjust="spacing" textLength="44" x="40" y="924.8779">Player</text><ellipse cx="65" cy="936.6797" fill="#E2E2F0" rx="8" ry="8" style="stroke:#181818;stroke-width:0.5;"/><path d="M65,944.6797 L65,971.6797 M52,952.6797 L78,952.6797 M65,971.6797 L52,986.6797 M65,971.6797 L78,986.6797 " fill="none" style="stroke:#181818;stroke-width:0.5;"/><rect fill="#E2E2F0" height="30.2969" rx="2.5" ry="2.5" style="stroke:#181818;stroke-width:0.5;" width="93" x="214.5" y="50"/><text fill="#000000" font-family="sans-serif" font-size="14" lengthAdjust="spacing" textLength="79" x="221.5" y="69.9951">PlayScreen</text><rect fill="#E2E2F0" height="30.2969" rx="2.5" ry="2.5" style="stroke:#181818;stroke-width:0.5;" width="93" x="214.5" y="911.8828"/><text fill="#000000" font-family="sans-serif" font-size="14" lengthAdjust="spacing" textLength="79" x="221.5" y="931.8779">PlayScreen</text><rect fill="#E2E2F0" height="30.2969" rx="2.5" ry="2.5" style="stroke:#181818;stroke-width:0.5;" width="103" x="505.5" y="50"/><text fill="#000000" font-family="sans-serif" font-size="14" lengthAdjust="spacing" textLength="89" x="512.5" y="69.9951">Interactable</text><rect fill="#E2E2F0" height="30.2969" rx="2.5" ry="2.5" style="stroke:#181818;stroke-width:0.5;" width="103" x="505.5" y="911.8828"/><text fill="#000000" font-family="sans-serif" font-size="14" lengthAdjust="spacing" textLength="89" x="512.5" y="931.8779">Interactable</text><rect fill="#E2E2F0" height="30.2969" rx="2.5" ry="2.5" style="stroke:#181818;stroke-width:0.5;" width="44" x="618.5" y="50"/><text fill="#000000" font-family="sans-serif" font-size="14" lengthAdjust="spacing" textLength="30" x="625.5" y="69.9951">Map</text><rect fill="#E2E2F0" height="30.2969" rx="2.5" ry="2.5" style="stroke:#181818;stroke-width:0.5;" width="44" x="618.5" y="911.8828"/><text fill="#000000" font-family="sans-serif" font-size="14" lengthAdjust="spacing" textLength="30" x="625.5" y="931.8779">Map</text><rect fill="#E2E2F0" height="30.2969" rx="2.5" ry="2.5" style="stroke:#181818;stroke-width:0.5;" width="61" x="760" y="50"/><text fill="#000000" font-family="sans-serif" font-size="14" lengthAdjust="spacing" textLength="47" x="767" y="69.9951">Avatar</text><rect fill="#E2E2F0" height="30.2969" rx="2.5" ry="2.5" style="stroke:#181818;stroke-width:0.5;" width="61" x="760" y="911.8828"/><text fill="#000000" font-family="sans-serif" font-size="14" lengthAdjust="spacing" textLength="47" x="767" y="931.8779">Avatar</text><rect fill="#E2E2F0" height="30.2969" rx="2.5" ry="2.5" style="stroke:#181818;stroke-width:0.5;" width="67" x="831" y="50"/><text fill="#000000" font-family="sans-serif" font-size="14" lengthAdjust="spacing" textLength="53" x="838" y="69.9951">Metrics</text><rect fill="#E2E2F0" height="30.2969" rx="2.5" ry="2.5" style="stroke:#181818;stroke-width:0.5;" width="67" x="831" y="911.8828"/><text fill="#000000" font-family="sans-serif" font-size="14" lengthAdjust="spacing" textLength="53" x="838" y="931.8779">Metrics</text><polygon fill="#181818" points="249,108.4297,259,112.4297,249,116.4297,253,112.4297" style="stroke:#181818;stroke-width:1.0;"/><line style="stroke:#181818;stroke-width:1.0;" x1="65" x2="255" y1="112.4297" y2="112.4297"/><text fill="#000000" font-family="sans-serif" font-size="13" lengthAdjust="spacing" textLength="72" x="72" y="107.3638">select start</text><line style="stroke:#181818;stroke-width:1.0;" x1="261" x2="303" y1="141.5625" y2="141.5625"/><line style="stroke:#181818;stroke-width:1.0;" x1="303" x2="303" y1="141.5625" y2="154.5625"/><line style="stroke:#181818;stroke-width:1.0;" x1="262" x2="303" y1="154.5625" y2="154.5625"/><polygon fill="#181818" points="272,150.5625,262,154.5625,272,158.5625,268,154.5625" style="stroke:#181818;stroke-width:1.0;"/><text fill="#000000" font-family="sans-serif" font-size="13" lengthAdjust="spacing" textLength="152" x="268" y="136.4966">scale the game window</text><path d="M30,169.5625 L96,169.5625 L96,176.6953 L86,186.6953 L30,186.6953 L30,169.5625 " fill="#EEEEEE" style="stroke:#000000;stroke-width:1.5;"/><rect fill="none" height="75.3984" style="stroke:#000000;stroke-width:1.5;" width="287.5" x="30" y="169.5625"/><text fill="#000000" font-family="sans-serif" font-size="13" font-weight="bold" lengthAdjust="spacing" textLength="21" x="45" y="182.6294">alt</text><text fill="#000000" font-family="sans-serif" font-size="11" font-weight="bold" lengthAdjust="spacing" textLength="112" x="111" y="181.7729">[close the game]</text><polygon fill="#181818" points="249,203.8281,259,207.8281,249,211.8281,253,207.8281" style="stroke:#181818;stroke-width:1.0;"/><line style="stroke:#181818;stroke-width:1.0;" x1="65" x2="255" y1="207.8281" y2="207.8281"/><text fill="#000000" font-family="sans-serif" font-size="13" lengthAdjust="spacing" textLength="90" x="72" y="202.7622">exit the game</text><polygon fill="#181818" points="76,232.9609,66,236.9609,76,240.9609,72,236.9609" style="stroke:#181818;stroke-width:1.0;"/><line style="stroke:#181818;stroke-width:1.0;" x1="70" x2="260" y1="236.9609" y2="236.9609"/><text fill="#000000" font-family="sans-serif" font-size="13" lengthAdjust="spacing" textLength="172" x="82" y="231.895">close the game application</text><polygon fill="#181818" points="249,269.0938,259,273.0938,249,277.0938,253,273.0938" style="stroke:#181818;stroke-width:1.0;"/><line style="stroke:#181818;stroke-width:1.0;" x1="65" x2="255" y1="273.0938" y2="273.0938"/><text fill="#000000" font-family="sans-serif" font-size="13" lengthAdjust="spacing" textLength="96" x="72" y="268.0278">start the game</text><polygon fill="#181818" points="628.5,298.2266,638.5,302.2266,628.5,306.2266,632.5,302.2266" style="stroke:#181818;stroke-width:1.0;"/><line style="stroke:#181818;stroke-width:1.0;" x1="261" x2="634.5" y1="302.2266" y2="302.2266"/><text fill="#000000" font-family="sans-serif" font-size="13" lengthAdjust="spacing" textLength="100" x="268" y="297.1606">render the map</text><polygon fill="#181818" points="778.5,327.3594,788.5,331.3594,778.5,335.3594,782.5,331.3594" style="stroke:#181818;stroke-width:1.0;"/><line style="stroke:#181818;stroke-width:1.0;" x1="261" x2="784.5" y1="331.3594" y2="331.3594"/><text fill="#000000" font-family="sans-serif" font-size="13" lengthAdjust="spacing" textLength="129" x="268" y="326.2935">generate the avatar</text><polygon fill="#181818" points="545,356.4922,555,360.4922,545,364.4922,549,360.4922" style="stroke:#181818;stroke-width:1.0;"/><line style="stroke:#181818;stroke-width:1.0;" x1="261" x2="551" y1="360.4922" y2="360.4922"/><text fill="#000000" font-family="sans-serif" font-size="13" lengthAdjust="spacing" textLength="162" x="268" y="355.4263">generate studying places</text><polygon fill="#181818" points="545,385.625,555,389.625,545,393.625,549,389.625" style="stroke:#181818;stroke-width:1.0;"/><line style="stroke:#181818;stroke-width:1.0;" x1="261" x2="551" y1="389.625" y2="389.625"/><text fill="#000000" font-family="sans-serif" font-size="13" lengthAdjust="spacing" textLength="160" x="268" y="384.5591">generate sleeping places</text><polygon fill="#181818" points="545,414.7578,555,418.7578,545,422.7578,549,418.7578" style="stroke:#181818;stroke-width:1.0;"/><line style="stroke:#181818;stroke-width:1.0;" x1="261" x2="551" y1="418.7578" y2="418.7578"/><text fill="#000000" font-family="sans-serif" font-size="13" lengthAdjust="spacing" textLength="183" x="268" y="413.6919">generate recreational places</text><polygon fill="#181818" points="545,443.8906,555,447.8906,545,451.8906,549,447.8906" style="stroke:#181818;stroke-width:1.0;"/><line style="stroke:#181818;stroke-width:1.0;" x1="261" x2="551" y1="447.8906" y2="447.8906"/><text fill="#000000" font-family="sans-serif" font-size="13" lengthAdjust="spacing" textLength="272" x="268" y="442.8247">generate randomly spawned interactables</text><polygon fill="#181818" points="852.5,473.0234,862.5,477.0234,852.5,481.0234,856.5,477.0234" style="stroke:#181818;stroke-width:1.0;"/><line style="stroke:#181818;stroke-width:1.0;" x1="261" x2="858.5" y1="477.0234" y2="477.0234"/><text fill="#000000" font-family="sans-serif" font-size="13" lengthAdjust="spacing" textLength="110" x="268" y="471.9575">generate metrics</text><polygon fill="#181818" points="76,502.1563,66,506.1563,76,510.1563,72,506.1563" style="stroke:#181818;stroke-width:1.0;"/><line style="stroke:#181818;stroke-width:1.0;" x1="70" x2="863.5" y1="506.1563" y2="506.1563"/><text fill="#000000" font-family="sans-serif" font-size="13" lengthAdjust="spacing" textLength="97" x="82" y="501.0903">display metrics</text><polygon fill="#181818" points="778.5,531.2891,788.5,535.2891,778.5,539.2891,782.5,535.2891" style="stroke:#181818;stroke-width:1.0;"/><line style="stroke:#181818;stroke-width:1.0;" x1="65" x2="784.5" y1="535.2891" y2="535.2891"/><text fill="#000000" font-family="sans-serif" font-size="13" lengthAdjust="spacing" textLength="108" x="72" y="530.2231">move the avatar</text><polygon fill="#181818" points="651.5,560.4219,641.5,564.4219,651.5,568.4219,647.5,564.4219" style="stroke:#181818;stroke-width:1.0;"/><line style="stroke:#181818;stroke-width:1.0;" x1="645.5" x2="789.5" y1="564.4219" y2="564.4219"/><text fill="#000000" font-family="sans-serif" font-size="13" lengthAdjust="spacing" textLength="126" x="657.5" y="559.356">change the position</text><polygon fill="#181818" points="249,589.5547,259,593.5547,249,597.5547,253,593.5547" style="stroke:#181818;stroke-width:1.0;"/><line style="stroke:#181818;stroke-width:1.0;" x1="65" x2="255" y1="593.5547" y2="593.5547"/><text fill="#000000" font-family="sans-serif" font-size="13" lengthAdjust="spacing" textLength="143" x="72" y="588.4888">interact with an object</text><polygon fill="#181818" points="778.5,618.6875,788.5,622.6875,778.5,626.6875,782.5,622.6875" style="stroke:#181818;stroke-width:1.0;"/><line style="stroke:#181818;stroke-width:1.0;" x1="261" x2="784.5" y1="622.6875" y2="622.6875"/><text fill="#000000" font-family="sans-serif" font-size="13" lengthAdjust="spacing" textLength="334" x="268" y="617.6216">check if the avatar is able to interact with the object</text><path d="M10,637.6875 L76,637.6875 L76,644.8203 L66,654.8203 L10,654.8203 L10,637.6875 " fill="#EEEEEE" style="stroke:#000000;stroke-width:1.5;"/><rect fill="none" height="258.1953" style="stroke:#000000;stroke-width:1.5;" width="908" x="10" y="637.6875"/><text fill="#000000" font-family="sans-serif" font-size="13" font-weight="bold" lengthAdjust="spacing" textLength="21" x="25" y="650.7544">alt</text><text fill="#000000" font-family="sans-serif" font-size="11" font-weight="bold" lengthAdjust="spacing" textLength="347" x="91" y="649.8979">[avatar is close enough to interact with the object]</text><polygon fill="#181818" points="568,671.9531,558,675.9531,568,679.9531,564,675.9531" style="stroke:#181818;stroke-width:1.0;"/><line style="stroke:#181818;stroke-width:1.0;" x1="562" x2="789.5" y1="675.9531" y2="675.9531"/><text fill="#000000" font-family="sans-serif" font-size="13" lengthAdjust="spacing" textLength="156" x="574" y="670.8872">start interaction process</text><path d="M20,690.9531 L86,690.9531 L86,698.0859 L76,708.0859 L20,708.0859 L20,690.9531 " fill="#EEEEEE" style="stroke:#000000;stroke-width:1.5;"/><rect fill="none" height="166.7969" style="stroke:#000000;stroke-width:1.5;" width="888" x="20" y="690.9531"/><text fill="#000000" font-family="sans-serif" font-size="13" font-weight="bold" lengthAdjust="spacing" textLength="21" x="35" y="704.02">alt</text><text fill="#000000" font-family="sans-serif" font-size="11" font-weight="bold" lengthAdjust="spacing" textLength="217" x="101" y="703.1636">[interaction with sleeping place]</text><polygon fill="#181818" points="272,725.2188,262,729.2188,272,733.2188,268,729.2188" style="stroke:#181818;stroke-width:1.0;"/><line style="stroke:#181818;stroke-width:1.0;" x1="266" x2="556" y1="729.2188" y2="729.2188"/><text fill="#000000" font-family="sans-serif" font-size="13" lengthAdjust="spacing" textLength="155" x="278" y="724.1528">proceed to the next day</text><path d="M30,744.2188 L96,744.2188 L96,751.3516 L86,761.3516 L30,761.3516 L30,744.2188 " fill="#EEEEEE" style="stroke:#000000;stroke-width:1.5;"/><rect fill="none" height="46.2656" style="stroke:#000000;stroke-width:1.5;" width="287.5" x="30" y="744.2188"/><text fill="#000000" font-family="sans-serif" font-size="13" font-weight="bold" lengthAdjust="spacing" textLength="21" x="45" y="757.2856">alt</text><text fill="#000000" font-family="sans-serif" font-size="11" font-weight="bold" lengthAdjust="spacing" textLength="126" x="111" y="756.4292">[the day is Sunday]</text><polygon fill="#181818" points="76,778.4844,66,782.4844,76,786.4844,72,782.4844" style="stroke:#181818;stroke-width:1.0;"/><line style="stroke:#181818;stroke-width:1.0;" x1="70" x2="260" y1="782.4844" y2="782.4844"/><text fill="#000000" font-family="sans-serif" font-size="13" lengthAdjust="spacing" textLength="145" x="82" y="777.4185">display the end screen</text><line style="stroke:#000000;stroke-width:1.0;stroke-dasharray:2.0,2.0;" x1="20" x2="908" y1="798.4844" y2="798.4844"/><polygon fill="#181818" points="852.5,816.6172,862.5,820.6172,852.5,824.6172,856.5,820.6172" style="stroke:#181818;stroke-width:1.0;"/><line style="stroke:#181818;stroke-width:1.0;" x1="557" x2="858.5" y1="820.6172" y2="820.6172"/><text fill="#000000" font-family="sans-serif" font-size="13" lengthAdjust="spacing" textLength="81" x="564" y="815.5513">alter metrics</text><polygon fill="#181818" points="76,845.75,66,849.75,76,853.75,72,849.75" style="stroke:#181818;stroke-width:1.0;"/><line style="stroke:#181818;stroke-width:1.0;" x1="70" x2="863.5" y1="849.75" y2="849.75"/><text fill="#000000" font-family="sans-serif" font-size="13" lengthAdjust="spacing" textLength="174" x="82" y="844.6841">display an updated metrics</text><line style="stroke:#000000;stroke-width:1.0;stroke-dasharray:2.0,2.0;" x1="10" x2="918" y1="865.75" y2="865.75"/><polygon fill="#181818" points="272,883.8828,262,887.8828,272,891.8828,268,887.8828" style="stroke:#181818;stroke-width:1.0;"/><line style="stroke:#181818;stroke-width:1.0;" x1="266" x2="789.5" y1="887.8828" y2="887.8828"/><text fill="#000000" font-family="sans-serif" font-size="13" lengthAdjust="spacing" textLength="68" x="278" y="882.8169">do nothing</text><!--SRC=[ZLDBZjim3Dth5Bn0Bv15WLaLinYqG4x0aJYsMbaI92OPttueoROS1qXdPvFlFNuUXPf3WZyEPqg0UVbI4HDRRIDwhg6pJaI-07xXH01tW5VFb50plZigaD_lVqcpKelgZv-LT89CJkAGMRYWgb3FQHGoZmH3YT-iD-6cq35e5tBFA3YgqgVbNNgLRR3JWGuOexCQsGQlo9l77cjpczogzeRn14a8WYt92UEMUxcYa4uma9SrS2k6DRXXsafscCmNCri_G7IeAJy1EgBu7M0YyQWEXkx_O9JzJcw67F7coO3TUTXvRyJ9whmZJYsYbin-qyPcAJjlaBxQTKDJkDvjfyMt_UeH_T00CMHRFJhwi_Of5y8Ze8VGZkreXXv9_mFxiIi7DaCzKGu7cO9PTCh5TNWx7lBXCenFQT17MNVTBcbbo2mGKn1Jie9IP9-eQlT6ArY4-kYLBbP97wMofqy6WxCWgs29oMzf-tpnI-BXEQmc5RISixoxyh0BjBm689VlIsyN82N4XzLRW2S78AvSef5hCHrVr9jutrGRomJmWKUPl3p8Bm00]--></g></svg>