<?xml version="1.0" encoding="windows-1252" standalone="no"?>
<svg xmlns="http://www.w3.org/2000/svg" xmlns:xlink="http://www.w3.org/1999/xlink" contentStyleType="text/css" height="554px" preserveAspectRatio="none" style="width:3589px;height:554px;background:#FFFFFF;" version="1.1" viewBox="0 0 3589 554" width="3589px" zoomAndPan="magnify"><defs/><g><!--class Drawable--><g id="elem_Drawable"><rect codeLine="3" fill="#F1F1F1" height="80.5938" id="Drawable" rx="2.5" ry="2.5" style="stroke:#181818;stroke-width:0.5;" width="233" x="2144.5" y="31"/><ellipse cx="2222.75" cy="47" fill="#B4A7E5" rx="11" ry="11" style="stroke:#181818;stroke-width:1.0;"/><path d="M2223.7031,43.7813 L2225.4219,43.7813 C2225.8125,43.7813 2226,43.75 2226.125,43.6719 C2226.3906,43.5156 2226.5313,43.2344 2226.5313,42.9375 C2226.5313,42.6719 2226.4219,42.4063 2226.1875,42.2344 C2226.0156,42.125 2225.875,42.0938 2225.4219,42.0938 L2220.2813,42.0938 C2219.8438,42.0938 2219.7188,42.1094 2219.5625,42.2031 C2219.3125,42.3594 2219.1563,42.6563 2219.1563,42.9375 C2219.1563,43.2188 2219.2969,43.4688 2219.5156,43.6406 C2219.6719,43.75 2219.8594,43.7813 2220.2813,43.7813 L2222,43.7813 L2222,50.2969 L2220.2813,50.2969 C2219.8438,50.2969 2219.7188,50.3125 2219.5625,50.4219 C2219.3125,50.5781 2219.1563,50.8594 2219.1563,51.1563 C2219.1563,51.4063 2219.2969,51.6719 2219.5156,51.8281 C2219.6719,51.9531 2219.875,52 2220.2813,52 L2225.4219,52 C2226.1719,52 2226.5313,51.7188 2226.5313,51.1563 C2226.5313,50.875 2226.4219,50.625 2226.1875,50.4531 C2226.0156,50.3281 2225.875,50.2969 2225.4219,50.2969 L2223.7031,50.2969 L2223.7031,43.7813 Z " fill="#000000"/><text fill="#000000" font-family="sans-serif" font-size="14" font-style="italic" lengthAdjust="spacing" textLength="68" x="2243.25" y="51.8467">Drawable</text><line style="stroke:#181818;stroke-width:0.5;" x1="2145.5" x2="2376.5" y1="63" y2="63"/><line style="stroke:#181818;stroke-width:0.5;" x1="2145.5" x2="2376.5" y1="71" y2="71"/><ellipse cx="2155.5" cy="84.6484" fill="#84BE84" rx="3" ry="3" style="stroke:#038048;stroke-width:1.0;"/><text fill="#000000" font-family="sans-serif" font-size="14" lengthAdjust="spacing" textLength="207" x="2164.5" y="87.9951">dispose(batch : SpriteBatch)</text><ellipse cx="2155.5" cy="100.9453" fill="#84BE84" rx="3" ry="3" style="stroke:#038048;stroke-width:1.0;"/><text fill="#000000" font-family="sans-serif" font-size="14" lengthAdjust="spacing" textLength="200" x="2164.5" y="104.292">render(batch : SpriteBatch)</text></g><!--class AreaName--><g id="elem_AreaName"><rect codeLine="8" fill="#F1F1F1" height="113.1875" id="AreaName" rx="2.5" ry="2.5" style="stroke:#181818;stroke-width:0.5;" width="137" x="165.5" y="15"/><ellipse cx="194.45" cy="31" fill="#EB937F" rx="11" ry="11" style="stroke:#181818;stroke-width:1.0;"/><path d="M193.2469,31.875 L194.7,31.875 L194.7,31.9844 C194.7,32.3906 194.7313,32.5469 194.8094,32.7031 C194.9656,32.9531 195.2469,33.1094 195.5438,33.1094 C195.7938,33.1094 196.0594,32.9688 196.2156,32.75 C196.3406,32.5938 196.3719,32.4375 196.3719,31.9844 L196.3719,30.0625 C196.3719,29.9063 196.3719,29.8594 196.3563,29.7031 C196.2938,29.2344 195.9813,28.9219 195.5281,28.9219 C195.2781,28.9219 195.0125,29.0625 194.8406,29.2813 C194.7313,29.4531 194.7,29.6094 194.7,30.0625 L194.7,30.1875 L193.2469,30.1875 L193.2469,27.7813 L197.2313,27.7813 L197.2313,28.6406 C197.2313,29.0469 197.2625,29.2188 197.3406,29.375 C197.5125,29.625 197.7938,29.7813 198.075,29.7813 C198.3406,29.7813 198.6063,29.6406 198.7781,29.4219 C198.8875,29.25 198.9188,29.1094 198.9188,28.6406 L198.9188,26.0938 L191.2938,26.0938 C190.8563,26.0938 190.7313,26.1094 190.575,26.2031 C190.325,26.3594 190.1688,26.6563 190.1688,26.9375 C190.1688,27.2188 190.3094,27.4688 190.5281,27.6406 C190.6844,27.75 190.8719,27.7813 191.2938,27.7813 L191.5438,27.7813 L191.5438,34.2969 L191.2938,34.2969 C190.8875,34.2969 190.7313,34.3125 190.575,34.4219 C190.325,34.5938 190.1688,34.8594 190.1688,35.1563 C190.1688,35.4219 190.3094,35.6719 190.5281,35.8281 C190.6688,35.9531 190.9031,36 191.2938,36 L199.2938,36 L199.2938,33.4219 C199.2938,32.9844 199.2625,32.8438 199.1844,32.6875 C199.0125,32.4375 198.7313,32.2813 198.45,32.2813 C198.1844,32.2813 197.9188,32.3906 197.7469,32.6406 C197.6375,32.7969 197.6063,32.9375 197.6063,33.4219 L197.6063,34.2969 L193.2469,34.2969 L193.2469,31.875 Z " fill="#000000"/><text fill="#000000" font-family="sans-serif" font-size="14" lengthAdjust="spacing" textLength="74" x="211.55" y="35.8467">AreaName</text><line style="stroke:#181818;stroke-width:0.5;" x1="166.5" x2="301.5" y1="47" y2="47"/><text fill="#000000" font-family="sans-serif" font-size="14" lengthAdjust="spacing" textLength="66" x="171.5" y="63.9951">TestMap,</text><text fill="#000000" font-family="sans-serif" font-size="14" lengthAdjust="spacing" textLength="106" x="171.5" y="80.292">PiazzaBuilding,</text><text fill="#000000" font-family="sans-serif" font-size="14" lengthAdjust="spacing" textLength="125" x="171.5" y="96.5889">CompSciBuilding,</text><text fill="#000000" font-family="sans-serif" font-size="14" lengthAdjust="spacing" textLength="123" x="171.5" y="112.8857">BedroomBuilding</text><line style="stroke:#181818;stroke-width:0.5;" x1="166.5" x2="301.5" y1="120.1875" y2="120.1875"/></g><!--class Area--><g id="elem_Area"><rect codeLine="15" fill="#F1F1F1" height="194.6719" id="Area" rx="2.5" ry="2.5" style="stroke:#181818;stroke-width:0.5;" width="734" x="837" y="196"/><ellipse cx="1183.25" cy="212" fill="#ADD1B2" rx="11" ry="11" style="stroke:#181818;stroke-width:1.0;"/><path d="M1185.5938,207.6719 C1184.6563,207.2344 1184.0625,207.0938 1183.1875,207.0938 C1180.5625,207.0938 1178.5625,209.1719 1178.5625,211.8906 L1178.5625,213.0156 C1178.5625,215.5938 1180.6719,217.4844 1183.5625,217.4844 C1184.7813,217.4844 1185.9375,217.1875 1186.6875,216.6406 C1187.2656,216.2344 1187.5938,215.7813 1187.5938,215.3906 C1187.5938,214.9375 1187.2031,214.5469 1186.7344,214.5469 C1186.5156,214.5469 1186.3125,214.625 1186.125,214.8125 C1185.6719,215.2969 1185.6719,215.2969 1185.4844,215.3906 C1185.0625,215.6563 1184.375,215.7813 1183.6094,215.7813 C1181.5625,215.7813 1180.2656,214.6875 1180.2656,212.9844 L1180.2656,211.8906 C1180.2656,210.1094 1181.5156,208.7969 1183.25,208.7969 C1183.8281,208.7969 1184.4375,208.9531 1184.9063,209.2031 C1185.3906,209.4844 1185.5625,209.7031 1185.6563,210.1094 C1185.7188,210.5156 1185.75,210.6406 1185.8906,210.7656 C1186.0313,210.9063 1186.2656,211.0156 1186.4844,211.0156 C1186.75,211.0156 1187.0156,210.875 1187.1875,210.6563 C1187.2969,210.5 1187.3281,210.3125 1187.3281,209.8906 L1187.3281,208.4688 C1187.3281,208.0313 1187.3125,207.9063 1187.2188,207.75 C1187.0625,207.4844 1186.7813,207.3438 1186.4844,207.3438 C1186.1875,207.3438 1185.9844,207.4375 1185.7656,207.75 L1185.5938,207.6719 Z " fill="#000000"/><text fill="#000000" font-family="sans-serif" font-size="14" lengthAdjust="spacing" textLength="33" x="1203.75" y="216.8467">Area</text><line style="stroke:#181818;stroke-width:0.5;" x1="838" x2="1570" y1="228" y2="228"/><line style="stroke:#181818;stroke-width:0.5;" x1="838" x2="1570" y1="236" y2="236"/><ellipse cx="848" cy="249.6484" fill="#84BE84" rx="3" ry="3" style="stroke:#038048;stroke-width:1.0;"/><text fill="#000000" font-family="sans-serif" font-size="14" lengthAdjust="spacing" textLength="316" x="857" y="252.9951">addInteractable(interactable : Interactable)</text><ellipse cx="848" cy="265.9453" fill="#84BE84" rx="3" ry="3" style="stroke:#038048;stroke-width:1.0;"/><text fill="#000000" font-family="sans-serif" font-size="14" lengthAdjust="spacing" textLength="353" x="857" y="269.292">triggerInteractables(characterPosition : Vector2)</text><ellipse cx="848" cy="282.2422" fill="#84BE84" rx="3" ry="3" style="stroke:#038048;stroke-width:1.0;"/><text fill="#000000" font-family="sans-serif" font-size="14" lengthAdjust="spacing" textLength="493" x="857" y="285.5889">bound(candidate : Vector2, hGutter : Float, vGutter : Float) : Vector2</text><ellipse cx="848" cy="298.5391" fill="#84BE84" rx="3" ry="3" style="stroke:#038048;stroke-width:1.0;"/><text fill="#000000" font-family="sans-serif" font-size="14" lengthAdjust="spacing" textLength="312" x="857" y="301.8857">updateView(camera : OrthographicCamera)</text><ellipse cx="848" cy="314.8359" fill="#84BE84" rx="3" ry="3" style="stroke:#038048;stroke-width:1.0;"/><text fill="#000000" font-family="sans-serif" font-size="14" lengthAdjust="spacing" textLength="43" x="857" y="318.1826">step()</text><ellipse cx="848" cy="331.1328" fill="#84BE84" rx="3" ry="3" style="stroke:#038048;stroke-width:1.0;"/><text fill="#000000" font-family="sans-serif" font-size="14" lengthAdjust="spacing" textLength="708" x="857" y="334.4795">registerCollisionBody(initialPosition : Vector2, type : BodyType, width : Float, height : Float) : Body</text><ellipse cx="848" cy="347.4297" fill="#84BE84" rx="3" ry="3" style="stroke:#038048;stroke-width:1.0;"/><text fill="#000000" font-family="sans-serif" font-size="14" lengthAdjust="spacing" textLength="380" x="857" y="350.7764">registerCharacter(width : Float, height : Float) : Body</text><ellipse cx="848" cy="363.7266" fill="#84BE84" rx="3" ry="3" style="stroke:#038048;stroke-width:1.0;"/><text fill="#000000" font-family="sans-serif" font-size="14" lengthAdjust="spacing" textLength="274" x="857" y="367.0732">getInitialCharacterPosition() : Vector2</text><ellipse cx="848" cy="380.0234" fill="#84BE84" rx="3" ry="3" style="stroke:#038048;stroke-width:1.0;"/><text fill="#000000" font-family="sans-serif" font-size="14" lengthAdjust="spacing" textLength="412" x="857" y="383.3701">Area(mapPath : String, initialCharacterPosition : Vector2)</text></g><!--class AreaFactory--><g id="elem_AreaFactory"><rect codeLine="27" fill="#F1F1F1" height="129.4844" id="AreaFactory" rx="2.5" ry="2.5" style="stroke:#181818;stroke-width:0.5;" width="352" x="338" y="7"/><ellipse cx="466.25" cy="23" fill="#ADD1B2" rx="11" ry="11" style="stroke:#181818;stroke-width:1.0;"/><path d="M468.5938,18.6719 C467.6563,18.2344 467.0625,18.0938 466.1875,18.0938 C463.5625,18.0938 461.5625,20.1719 461.5625,22.8906 L461.5625,24.0156 C461.5625,26.5938 463.6719,28.4844 466.5625,28.4844 C467.7813,28.4844 468.9375,28.1875 469.6875,27.6406 C470.2656,27.2344 470.5938,26.7813 470.5938,26.3906 C470.5938,25.9375 470.2031,25.5469 469.7344,25.5469 C469.5156,25.5469 469.3125,25.625 469.125,25.8125 C468.6719,26.2969 468.6719,26.2969 468.4844,26.3906 C468.0625,26.6563 467.375,26.7813 466.6094,26.7813 C464.5625,26.7813 463.2656,25.6875 463.2656,23.9844 L463.2656,22.8906 C463.2656,21.1094 464.5156,19.7969 466.25,19.7969 C466.8281,19.7969 467.4375,19.9531 467.9063,20.2031 C468.3906,20.4844 468.5625,20.7031 468.6563,21.1094 C468.7188,21.5156 468.75,21.6406 468.8906,21.7656 C469.0313,21.9063 469.2656,22.0156 469.4844,22.0156 C469.75,22.0156 470.0156,21.875 470.1875,21.6563 C470.2969,21.5 470.3281,21.3125 470.3281,20.8906 L470.3281,19.4688 C470.3281,19.0313 470.3125,18.9063 470.2188,18.75 C470.0625,18.4844 469.7813,18.3438 469.4844,18.3438 C469.1875,18.3438 468.9844,18.4375 468.7656,18.75 L468.5938,18.6719 Z " fill="#000000"/><text fill="#000000" font-family="sans-serif" font-size="14" lengthAdjust="spacing" textLength="87" x="486.75" y="27.8467">AreaFactory</text><line style="stroke:#181818;stroke-width:0.5;" x1="339" x2="689" y1="39" y2="39"/><line style="stroke:#181818;stroke-width:0.5;" x1="339" x2="689" y1="47" y2="47"/><ellipse cx="349" cy="60.6484" fill="#84BE84" rx="3" ry="3" style="stroke:#038048;stroke-width:1.0;"/><text fill="#000000" font-family="sans-serif" font-size="14" lengthAdjust="spacing" textLength="165" x="358" y="63.9951">createTestMap() : Area</text><ellipse cx="349" cy="76.9453" fill="#84BE84" rx="3" ry="3" style="stroke:#038048;stroke-width:1.0;"/><text fill="#000000" font-family="sans-serif" font-size="14" lengthAdjust="spacing" textLength="178" x="358" y="80.292">createPiazzaMap() : Area</text><ellipse cx="349" cy="93.2422" fill="#84BE84" rx="3" ry="3" style="stroke:#038048;stroke-width:1.0;"/><text fill="#000000" font-family="sans-serif" font-size="14" lengthAdjust="spacing" textLength="197" x="358" y="96.5889">createCompSciMap() : Area</text><ellipse cx="349" cy="109.5391" fill="#84BE84" rx="3" ry="3" style="stroke:#038048;stroke-width:1.0;"/><text fill="#000000" font-family="sans-serif" font-size="14" lengthAdjust="spacing" textLength="226" x="358" y="112.8857">createBedroomBuilding() : Area</text><ellipse cx="349" cy="125.8359" fill="#84BE84" rx="3" ry="3" style="stroke:#038048;stroke-width:1.0;"/><text fill="#000000" font-family="sans-serif" font-size="14" lengthAdjust="spacing" textLength="326" x="358" y="129.1826">AreaFactory(metricManager : MetricManager)</text></g><!--class Character--><g id="elem_Character"><rect codeLine="35" fill="#F1F1F1" height="194.6719" id="Character" rx="2.5" ry="2.5" style="stroke:#181818;stroke-width:0.5;" width="504" x="1606" y="196"/><ellipse cx="1818.25" cy="212" fill="#ADD1B2" rx="11" ry="11" style="stroke:#181818;stroke-width:1.0;"/><path d="M1820.5938,207.6719 C1819.6563,207.2344 1819.0625,207.0938 1818.1875,207.0938 C1815.5625,207.0938 1813.5625,209.1719 1813.5625,211.8906 L1813.5625,213.0156 C1813.5625,215.5938 1815.6719,217.4844 1818.5625,217.4844 C1819.7813,217.4844 1820.9375,217.1875 1821.6875,216.6406 C1822.2656,216.2344 1822.5938,215.7813 1822.5938,215.3906 C1822.5938,214.9375 1822.2031,214.5469 1821.7344,214.5469 C1821.5156,214.5469 1821.3125,214.625 1821.125,214.8125 C1820.6719,215.2969 1820.6719,215.2969 1820.4844,215.3906 C1820.0625,215.6563 1819.375,215.7813 1818.6094,215.7813 C1816.5625,215.7813 1815.2656,214.6875 1815.2656,212.9844 L1815.2656,211.8906 C1815.2656,210.1094 1816.5156,208.7969 1818.25,208.7969 C1818.8281,208.7969 1819.4375,208.9531 1819.9063,209.2031 C1820.3906,209.4844 1820.5625,209.7031 1820.6563,210.1094 C1820.7188,210.5156 1820.75,210.6406 1820.8906,210.7656 C1821.0313,210.9063 1821.2656,211.0156 1821.4844,211.0156 C1821.75,211.0156 1822.0156,210.875 1822.1875,210.6563 C1822.2969,210.5 1822.3281,210.3125 1822.3281,209.8906 L1822.3281,208.4688 C1822.3281,208.0313 1822.3125,207.9063 1822.2188,207.75 C1822.0625,207.4844 1821.7813,207.3438 1821.4844,207.3438 C1821.1875,207.3438 1820.9844,207.4375 1820.7656,207.75 L1820.5938,207.6719 Z " fill="#000000"/><text fill="#000000" font-family="sans-serif" font-size="14" lengthAdjust="spacing" textLength="71" x="1838.75" y="216.8467">Character</text><line style="stroke:#181818;stroke-width:0.5;" x1="1607" x2="2109" y1="228" y2="228"/><line style="stroke:#181818;stroke-width:0.5;" x1="1607" x2="2109" y1="236" y2="236"/><ellipse cx="1617" cy="249.6484" fill="#84BE84" rx="3" ry="3" style="stroke:#038048;stroke-width:1.0;"/><text fill="#000000" font-family="sans-serif" font-size="14" lengthAdjust="spacing" textLength="69" x="1626" y="252.9951">moveUp()</text><ellipse cx="1617" cy="265.9453" fill="#84BE84" rx="3" ry="3" style="stroke:#038048;stroke-width:1.0;"/><text fill="#000000" font-family="sans-serif" font-size="14" lengthAdjust="spacing" textLength="90" x="1626" y="269.292">moveDown()</text><ellipse cx="1617" cy="282.2422" fill="#84BE84" rx="3" ry="3" style="stroke:#038048;stroke-width:1.0;"/><text fill="#000000" font-family="sans-serif" font-size="14" lengthAdjust="spacing" textLength="80" x="1626" y="285.5889">moveLeft()</text><ellipse cx="1617" cy="298.5391" fill="#84BE84" rx="3" ry="3" style="stroke:#038048;stroke-width:1.0;"/><text fill="#000000" font-family="sans-serif" font-size="14" lengthAdjust="spacing" textLength="89" x="1626" y="301.8857">moveRight()</text><ellipse cx="1617" cy="314.8359" fill="#84BE84" rx="3" ry="3" style="stroke:#038048;stroke-width:1.0;"/><text fill="#000000" font-family="sans-serif" font-size="14" lengthAdjust="spacing" textLength="50" x="1626" y="318.1826">move()</text><ellipse cx="1617" cy="331.1328" fill="#84BE84" rx="3" ry="3" style="stroke:#038048;stroke-width:1.0;"/><text fill="#000000" font-family="sans-serif" font-size="14" lengthAdjust="spacing" textLength="163" x="1626" y="334.4795">getPosition() : Vector2</text><ellipse cx="1617" cy="347.4297" fill="#84BE84" rx="3" ry="3" style="stroke:#038048;stroke-width:1.0;"/><text fill="#000000" font-family="sans-serif" font-size="14" lengthAdjust="spacing" textLength="220" x="1626" y="350.7764">setPosition(position : Vector2)</text><ellipse cx="1617" cy="363.7266" fill="#84BE84" rx="3" ry="3" style="stroke:#038048;stroke-width:1.0;"/><text fill="#000000" font-family="sans-serif" font-size="14" lengthAdjust="spacing" textLength="345" x="1626" y="367.0732">switchCharacterContext(areaName : AreaName)</text><ellipse cx="1617" cy="380.0234" fill="#84BE84" rx="3" ry="3" style="stroke:#038048;stroke-width:1.0;"/><text fill="#000000" font-family="sans-serif" font-size="14" lengthAdjust="spacing" textLength="478" x="1626" y="383.3701">Character(areas : Map&lt;AreaName, Area&gt;, defaultArea : AreaName)</text></g><!--class Overlay--><g id="elem_Overlay"><rect codeLine="47" fill="#F1F1F1" height="80.5938" id="Overlay" rx="2.5" ry="2.5" style="stroke:#181818;stroke-width:0.5;" width="232" x="2145" y="253"/><ellipse cx="2229.25" cy="269" fill="#A9DCDF" rx="11" ry="11" style="stroke:#181818;stroke-width:1.0;"/><path d="M2231.3281,270.8125 L2231.7188,271.7969 L2231.3281,271.7969 C2230.875,271.7969 2230.7656,271.8125 2230.6094,271.9219 C2230.3594,272.0781 2230.2031,272.3594 2230.2031,272.6563 C2230.2031,272.9219 2230.3438,273.1719 2230.5625,273.3281 C2230.7031,273.4531 2230.9063,273.5 2231.3281,273.5 L2233.6875,273.5 C2234.0469,273.5 2234.2656,273.4688 2234.4063,273.375 C2234.6563,273.2344 2234.8125,272.9375 2234.8125,272.6563 C2234.8125,272.375 2234.6719,272.125 2234.4531,271.9688 C2234.2813,271.8281 2234.125,271.7969 2233.6563,271.7969 L2230.2656,263.5938 L2226.5938,263.5938 C2226.1406,263.5938 2226.0156,263.6094 2225.8594,263.7031 C2225.6094,263.875 2225.4531,264.1563 2225.4531,264.4375 C2225.4531,264.7188 2225.5938,264.9688 2225.8125,265.1406 C2225.9844,265.25 2226.1563,265.2813 2226.5938,265.2813 L2227.6719,265.2813 L2225.0313,271.7969 C2224.6094,271.7969 2224.4531,271.8125 2224.2969,271.9219 C2224.0469,272.0781 2223.8906,272.3594 2223.8906,272.6563 C2223.8906,273.2188 2224.2656,273.5 2225.0156,273.5 L2227.2813,273.5 C2227.6406,273.5 2227.8594,273.4688 2227.9844,273.375 C2228.25,273.2344 2228.3906,272.9375 2228.3906,272.6563 C2228.3906,272.375 2228.2656,272.125 2228.0469,271.9531 C2227.875,271.8281 2227.7344,271.7969 2227.2813,271.7969 L2226.8906,271.7969 L2227.2813,270.8125 L2231.3281,270.8125 Z M2230.625,269.1094 L2227.9531,269.1094 L2229.2969,265.8438 L2230.625,269.1094 Z " fill="#000000"/><text fill="#000000" font-family="sans-serif" font-size="14" font-style="italic" lengthAdjust="spacing" textLength="55" x="2249.75" y="273.8467">Overlay</text><line style="stroke:#181818;stroke-width:0.5;" x1="2146" x2="2376" y1="285" y2="285"/><line style="stroke:#181818;stroke-width:0.5;" x1="2146" x2="2376" y1="293" y2="293"/><ellipse cx="2156" cy="306.6484" fill="#84BE84" rx="3" ry="3" style="stroke:#038048;stroke-width:1.0;"/><text fill="#000000" font-family="sans-serif" font-size="14" lengthAdjust="spacing" textLength="167" x="2165" y="309.9951">addActor(actor : Actor)</text><ellipse cx="2156" cy="322.9453" fill="#84BE84" rx="3" ry="3" style="stroke:#038048;stroke-width:1.0;"/><text fill="#000000" font-family="sans-serif" font-size="14" lengthAdjust="spacing" textLength="206" x="2165" y="326.292">Overlay(batch : SpriteBatch)</text></g><!--class HeadsUpDisplay--><g id="elem_HeadsUpDisplay"><rect codeLine="52" fill="#F1F1F1" height="80.5938" id="HeadsUpDisplay" rx="2.5" ry="2.5" style="stroke:#181818;stroke-width:0.5;" width="438" x="1659" y="459"/><ellipse cx="1816.75" cy="475" fill="#ADD1B2" rx="11" ry="11" style="stroke:#181818;stroke-width:1.0;"/><path d="M1819.0938,470.6719 C1818.1563,470.2344 1817.5625,470.0938 1816.6875,470.0938 C1814.0625,470.0938 1812.0625,472.1719 1812.0625,474.8906 L1812.0625,476.0156 C1812.0625,478.5938 1814.1719,480.4844 1817.0625,480.4844 C1818.2813,480.4844 1819.4375,480.1875 1820.1875,479.6406 C1820.7656,479.2344 1821.0938,478.7813 1821.0938,478.3906 C1821.0938,477.9375 1820.7031,477.5469 1820.2344,477.5469 C1820.0156,477.5469 1819.8125,477.625 1819.625,477.8125 C1819.1719,478.2969 1819.1719,478.2969 1818.9844,478.3906 C1818.5625,478.6563 1817.875,478.7813 1817.1094,478.7813 C1815.0625,478.7813 1813.7656,477.6875 1813.7656,475.9844 L1813.7656,474.8906 C1813.7656,473.1094 1815.0156,471.7969 1816.75,471.7969 C1817.3281,471.7969 1817.9375,471.9531 1818.4063,472.2031 C1818.8906,472.4844 1819.0625,472.7031 1819.1563,473.1094 C1819.2188,473.5156 1819.25,473.6406 1819.3906,473.7656 C1819.5313,473.9063 1819.7656,474.0156 1819.9844,474.0156 C1820.25,474.0156 1820.5156,473.875 1820.6875,473.6563 C1820.7969,473.5 1820.8281,473.3125 1820.8281,472.8906 L1820.8281,471.4688 C1820.8281,471.0313 1820.8125,470.9063 1820.7188,470.75 C1820.5625,470.4844 1820.2813,470.3438 1819.9844,470.3438 C1819.6875,470.3438 1819.4844,470.4375 1819.2656,470.75 L1819.0938,470.6719 Z " fill="#000000"/><text fill="#000000" font-family="sans-serif" font-size="14" lengthAdjust="spacing" textLength="114" x="1837.25" y="479.8467">HeadsUpDisplay</text><line style="stroke:#181818;stroke-width:0.5;" x1="1660" x2="2096" y1="491" y2="491"/><line style="stroke:#181818;stroke-width:0.5;" x1="1660" x2="2096" y1="499" y2="499"/><ellipse cx="1670" cy="512.6484" fill="#84BE84" rx="3" ry="3" style="stroke:#038048;stroke-width:1.0;"/><text fill="#000000" font-family="sans-serif" font-size="14" lengthAdjust="spacing" textLength="412" x="1679" y="515.9951">updateMetricElement(metric : MetricName, text : String)</text><ellipse cx="1670" cy="528.9453" fill="#84BE84" rx="3" ry="3" style="stroke:#038048;stroke-width:1.0;"/><text fill="#000000" font-family="sans-serif" font-size="14" lengthAdjust="spacing" textLength="266" x="1679" y="532.292">HeadsUpDisplay(batch : SpriteBatch)</text></g><!--class PauseMenu--><g id="elem_PauseMenu"><rect codeLine="57" fill="#F1F1F1" height="64.2969" id="PauseMenu" rx="2.5" ry="2.5" style="stroke:#181818;stroke-width:0.5;" width="257" x="2132.5" y="467.5"/><ellipse cx="2217.25" cy="483.5" fill="#ADD1B2" rx="11" ry="11" style="stroke:#181818;stroke-width:1.0;"/><path d="M2219.5938,479.1719 C2218.6563,478.7344 2218.0625,478.5938 2217.1875,478.5938 C2214.5625,478.5938 2212.5625,480.6719 2212.5625,483.3906 L2212.5625,484.5156 C2212.5625,487.0938 2214.6719,488.9844 2217.5625,488.9844 C2218.7813,488.9844 2219.9375,488.6875 2220.6875,488.1406 C2221.2656,487.7344 2221.5938,487.2813 2221.5938,486.8906 C2221.5938,486.4375 2221.2031,486.0469 2220.7344,486.0469 C2220.5156,486.0469 2220.3125,486.125 2220.125,486.3125 C2219.6719,486.7969 2219.6719,486.7969 2219.4844,486.8906 C2219.0625,487.1563 2218.375,487.2813 2217.6094,487.2813 C2215.5625,487.2813 2214.2656,486.1875 2214.2656,484.4844 L2214.2656,483.3906 C2214.2656,481.6094 2215.5156,480.2969 2217.25,480.2969 C2217.8281,480.2969 2218.4375,480.4531 2218.9063,480.7031 C2219.3906,480.9844 2219.5625,481.2031 2219.6563,481.6094 C2219.7188,482.0156 2219.75,482.1406 2219.8906,482.2656 C2220.0313,482.4063 2220.2656,482.5156 2220.4844,482.5156 C2220.75,482.5156 2221.0156,482.375 2221.1875,482.1563 C2221.2969,482 2221.3281,481.8125 2221.3281,481.3906 L2221.3281,479.9688 C2221.3281,479.5313 2221.3125,479.4063 2221.2188,479.25 C2221.0625,478.9844 2220.7813,478.8438 2220.4844,478.8438 C2220.1875,478.8438 2219.9844,478.9375 2219.7656,479.25 L2219.5938,479.1719 Z " fill="#000000"/><text fill="#000000" font-family="sans-serif" font-size="14" lengthAdjust="spacing" textLength="79" x="2237.75" y="488.3467">PauseMenu</text><line style="stroke:#181818;stroke-width:0.5;" x1="2133.5" x2="2388.5" y1="499.5" y2="499.5"/><line style="stroke:#181818;stroke-width:0.5;" x1="2133.5" x2="2388.5" y1="507.5" y2="507.5"/><ellipse cx="2143.5" cy="521.1484" fill="#84BE84" rx="3" ry="3" style="stroke:#038048;stroke-width:1.0;"/><text fill="#000000" font-family="sans-serif" font-size="14" lengthAdjust="spacing" textLength="231" x="2152.5" y="524.4951">PauseMenu(batch : SpriteBatch)</text></g><!--class InvalidAreaException--><g id="elem_InvalidAreaException"><rect codeLine="61" fill="#F1F1F1" height="64.2969" id="InvalidAreaException" rx="2.5" ry="2.5" style="stroke:#181818;stroke-width:0.5;" width="308" x="725" y="39.5"/><ellipse cx="798.75" cy="55.5" fill="#ADD1B2" rx="11" ry="11" style="stroke:#181818;stroke-width:1.0;"/><path d="M801.0938,51.1719 C800.1563,50.7344 799.5625,50.5938 798.6875,50.5938 C796.0625,50.5938 794.0625,52.6719 794.0625,55.3906 L794.0625,56.5156 C794.0625,59.0938 796.1719,60.9844 799.0625,60.9844 C800.2813,60.9844 801.4375,60.6875 802.1875,60.1406 C802.7656,59.7344 803.0938,59.2813 803.0938,58.8906 C803.0938,58.4375 802.7031,58.0469 802.2344,58.0469 C802.0156,58.0469 801.8125,58.125 801.625,58.3125 C801.1719,58.7969 801.1719,58.7969 800.9844,58.8906 C800.5625,59.1563 799.875,59.2813 799.1094,59.2813 C797.0625,59.2813 795.7656,58.1875 795.7656,56.4844 L795.7656,55.3906 C795.7656,53.6094 797.0156,52.2969 798.75,52.2969 C799.3281,52.2969 799.9375,52.4531 800.4063,52.7031 C800.8906,52.9844 801.0625,53.2031 801.1563,53.6094 C801.2188,54.0156 801.25,54.1406 801.3906,54.2656 C801.5313,54.4063 801.7656,54.5156 801.9844,54.5156 C802.25,54.5156 802.5156,54.375 802.6875,54.1563 C802.7969,54 802.8281,53.8125 802.8281,53.3906 L802.8281,51.9688 C802.8281,51.5313 802.8125,51.4063 802.7188,51.25 C802.5625,50.9844 802.2813,50.8438 801.9844,50.8438 C801.6875,50.8438 801.4844,50.9375 801.2656,51.25 L801.0938,51.1719 Z " fill="#000000"/><text fill="#000000" font-family="sans-serif" font-size="14" lengthAdjust="spacing" textLength="152" x="819.25" y="60.3467">InvalidAreaException</text><line style="stroke:#181818;stroke-width:0.5;" x1="726" x2="1032" y1="71.5" y2="71.5"/><line style="stroke:#181818;stroke-width:0.5;" x1="726" x2="1032" y1="79.5" y2="79.5"/><ellipse cx="736" cy="93.1484" fill="#84BE84" rx="3" ry="3" style="stroke:#038048;stroke-width:1.0;"/><text fill="#000000" font-family="sans-serif" font-size="14" lengthAdjust="spacing" textLength="282" x="745" y="96.4951">InvalidAreaException(message : String)</text></g><!--class Item--><g id="elem_Item"><rect codeLine="65" fill="#F1F1F1" height="80.5938" id="Item" rx="2.5" ry="2.5" style="stroke:#181818;stroke-width:0.5;" width="616" x="2412" y="253"/><ellipse cx="2698.75" cy="269" fill="#ADD1B2" rx="11" ry="11" style="stroke:#181818;stroke-width:1.0;"/><path d="M2701.0938,264.6719 C2700.1563,264.2344 2699.5625,264.0938 2698.6875,264.0938 C2696.0625,264.0938 2694.0625,266.1719 2694.0625,268.8906 L2694.0625,270.0156 C2694.0625,272.5938 2696.1719,274.4844 2699.0625,274.4844 C2700.2813,274.4844 2701.4375,274.1875 2702.1875,273.6406 C2702.7656,273.2344 2703.0938,272.7813 2703.0938,272.3906 C2703.0938,271.9375 2702.7031,271.5469 2702.2344,271.5469 C2702.0156,271.5469 2701.8125,271.625 2701.625,271.8125 C2701.1719,272.2969 2701.1719,272.2969 2700.9844,272.3906 C2700.5625,272.6563 2699.875,272.7813 2699.1094,272.7813 C2697.0625,272.7813 2695.7656,271.6875 2695.7656,269.9844 L2695.7656,268.8906 C2695.7656,267.1094 2697.0156,265.7969 2698.75,265.7969 C2699.3281,265.7969 2699.9375,265.9531 2700.4063,266.2031 C2700.8906,266.4844 2701.0625,266.7031 2701.1563,267.1094 C2701.2188,267.5156 2701.25,267.6406 2701.3906,267.7656 C2701.5313,267.9063 2701.7656,268.0156 2701.9844,268.0156 C2702.25,268.0156 2702.5156,267.875 2702.6875,267.6563 C2702.7969,267.5 2702.8281,267.3125 2702.8281,266.8906 L2702.8281,265.4688 C2702.8281,265.0313 2702.8125,264.9063 2702.7188,264.75 C2702.5625,264.4844 2702.2813,264.3438 2701.9844,264.3438 C2701.6875,264.3438 2701.4844,264.4375 2701.2656,264.75 L2701.0938,264.6719 Z " fill="#000000"/><text fill="#000000" font-family="sans-serif" font-size="14" lengthAdjust="spacing" textLength="34" x="2719.25" y="273.8467">Item</text><line style="stroke:#181818;stroke-width:0.5;" x1="2413" x2="3027" y1="285" y2="285"/><line style="stroke:#181818;stroke-width:0.5;" x1="2413" x2="3027" y1="293" y2="293"/><ellipse cx="2423" cy="306.6484" fill="#84BE84" rx="3" ry="3" style="stroke:#038048;stroke-width:1.0;"/><text fill="#000000" font-family="sans-serif" font-size="14" lengthAdjust="spacing" textLength="163" x="2432" y="309.9951">getPosition() : Vector2</text><ellipse cx="2423" cy="322.9453" fill="#84BE84" rx="3" ry="3" style="stroke:#038048;stroke-width:1.0;"/><text fill="#000000" font-family="sans-serif" font-size="14" lengthAdjust="spacing" textLength="590" x="2432" y="326.292">Item(position : Vector2, texture : Texture, area : Area, width : Float, height : Float)</text></g><!--class Interactable--><g id="elem_Interactable"><rect codeLine="70" fill="#F1F1F1" height="96.8906" id="Interactable" rx="2.5" ry="2.5" style="stroke:#181818;stroke-width:0.5;" width="804" x="2425" y="451"/><ellipse cx="2778.25" cy="467" fill="#ADD1B2" rx="11" ry="11" style="stroke:#181818;stroke-width:1.0;"/><path d="M2780.5938,462.6719 C2779.6563,462.2344 2779.0625,462.0938 2778.1875,462.0938 C2775.5625,462.0938 2773.5625,464.1719 2773.5625,466.8906 L2773.5625,468.0156 C2773.5625,470.5938 2775.6719,472.4844 2778.5625,472.4844 C2779.7813,472.4844 2780.9375,472.1875 2781.6875,471.6406 C2782.2656,471.2344 2782.5938,470.7813 2782.5938,470.3906 C2782.5938,469.9375 2782.2031,469.5469 2781.7344,469.5469 C2781.5156,469.5469 2781.3125,469.625 2781.125,469.8125 C2780.6719,470.2969 2780.6719,470.2969 2780.4844,470.3906 C2780.0625,470.6563 2779.375,470.7813 2778.6094,470.7813 C2776.5625,470.7813 2775.2656,469.6875 2775.2656,467.9844 L2775.2656,466.8906 C2775.2656,465.1094 2776.5156,463.7969 2778.25,463.7969 C2778.8281,463.7969 2779.4375,463.9531 2779.9063,464.2031 C2780.3906,464.4844 2780.5625,464.7031 2780.6563,465.1094 C2780.7188,465.5156 2780.75,465.6406 2780.8906,465.7656 C2781.0313,465.9063 2781.2656,466.0156 2781.4844,466.0156 C2781.75,466.0156 2782.0156,465.875 2782.1875,465.6563 C2782.2969,465.5 2782.3281,465.3125 2782.3281,464.8906 L2782.3281,463.4688 C2782.3281,463.0313 2782.3125,462.9063 2782.2188,462.75 C2782.0625,462.4844 2781.7813,462.3438 2781.4844,462.3438 C2781.1875,462.3438 2780.9844,462.4375 2780.7656,462.75 L2780.5938,462.6719 Z " fill="#000000"/><text fill="#000000" font-family="sans-serif" font-size="14" lengthAdjust="spacing" textLength="89" x="2798.75" y="471.8467">Interactable</text><line style="stroke:#181818;stroke-width:0.5;" x1="2426" x2="3228" y1="483" y2="483"/><line style="stroke:#181818;stroke-width:0.5;" x1="2426" x2="3228" y1="491" y2="491"/><ellipse cx="2436" cy="504.6484" fill="#84BE84" rx="3" ry="3" style="stroke:#038048;stroke-width:1.0;"/><text fill="#000000" font-family="sans-serif" font-size="14" lengthAdjust="spacing" textLength="68" x="2445" y="507.9951">interact()</text><ellipse cx="2436" cy="520.9453" fill="#84BE84" rx="3" ry="3" style="stroke:#038048;stroke-width:1.0;"/><text fill="#000000" font-family="sans-serif" font-size="14" lengthAdjust="spacing" textLength="272" x="2445" y="524.292">isClose(candidate : Vector2) : Boolean</text><ellipse cx="2436" cy="537.2422" fill="#84BE84" rx="3" ry="3" style="stroke:#038048;stroke-width:1.0;"/><text fill="#000000" font-family="sans-serif" font-size="14" lengthAdjust="spacing" textLength="778" x="2445" y="540.5889">Interactable(position : Vector2, texture : Texture, area : Area, width : Float, height : Float, action : Runnable)</text></g><!--class MetricManager--><g id="elem_MetricManager"><rect codeLine="76" fill="#F1F1F1" height="129.4844" id="MetricManager" rx="2.5" ry="2.5" style="stroke:#181818;stroke-width:0.5;" width="454" x="7" y="229"/><ellipse cx="176.25" cy="245" fill="#ADD1B2" rx="11" ry="11" style="stroke:#181818;stroke-width:1.0;"/><path d="M178.5938,240.6719 C177.6563,240.2344 177.0625,240.0938 176.1875,240.0938 C173.5625,240.0938 171.5625,242.1719 171.5625,244.8906 L171.5625,246.0156 C171.5625,248.5938 173.6719,250.4844 176.5625,250.4844 C177.7813,250.4844 178.9375,250.1875 179.6875,249.6406 C180.2656,249.2344 180.5938,248.7813 180.5938,248.3906 C180.5938,247.9375 180.2031,247.5469 179.7344,247.5469 C179.5156,247.5469 179.3125,247.625 179.125,247.8125 C178.6719,248.2969 178.6719,248.2969 178.4844,248.3906 C178.0625,248.6563 177.375,248.7813 176.6094,248.7813 C174.5625,248.7813 173.2656,247.6875 173.2656,245.9844 L173.2656,244.8906 C173.2656,243.1094 174.5156,241.7969 176.25,241.7969 C176.8281,241.7969 177.4375,241.9531 177.9063,242.2031 C178.3906,242.4844 178.5625,242.7031 178.6563,243.1094 C178.7188,243.5156 178.75,243.6406 178.8906,243.7656 C179.0313,243.9063 179.2656,244.0156 179.4844,244.0156 C179.75,244.0156 180.0156,243.875 180.1875,243.6563 C180.2969,243.5 180.3281,243.3125 180.3281,242.8906 L180.3281,241.4688 C180.3281,241.0313 180.3125,240.9063 180.2188,240.75 C180.0625,240.4844 179.7813,240.3438 179.4844,240.3438 C179.1875,240.3438 178.9844,240.4375 178.7656,240.75 L178.5938,240.6719 Z " fill="#000000"/><text fill="#000000" font-family="sans-serif" font-size="14" lengthAdjust="spacing" textLength="107" x="196.75" y="249.8467">MetricManager</text><line style="stroke:#181818;stroke-width:0.5;" x1="8" x2="460" y1="261" y2="261"/><line style="stroke:#181818;stroke-width:0.5;" x1="8" x2="460" y1="269" y2="269"/><ellipse cx="18" cy="282.6484" fill="#84BE84" rx="3" ry="3" style="stroke:#038048;stroke-width:1.0;"/><text fill="#000000" font-family="sans-serif" font-size="14" lengthAdjust="spacing" textLength="317" x="27" y="285.9951">getMetricValue(metric : MetricName) : Float</text><ellipse cx="18" cy="298.9453" fill="#84BE84" rx="3" ry="3" style="stroke:#038048;stroke-width:1.0;"/><text fill="#000000" font-family="sans-serif" font-size="14" lengthAdjust="spacing" textLength="423" x="27" y="302.292">incrementMetric(metric : MetricName, multiplier : Integer)</text><ellipse cx="18" cy="315.2422" fill="#84BE84" rx="3" ry="3" style="stroke:#038048;stroke-width:1.0;"/><text fill="#000000" font-family="sans-serif" font-size="14" lengthAdjust="spacing" textLength="428" x="27" y="318.5889">decrementMetric(metric : MetricName, multiplier : Integer)</text><ellipse cx="18" cy="331.5391" fill="#84BE84" rx="3" ry="3" style="stroke:#038048;stroke-width:1.0;"/><text fill="#000000" font-family="sans-serif" font-size="14" lengthAdjust="spacing" textLength="274" x="27" y="334.8857">getLastChangedMetric() : MetricName</text><ellipse cx="18" cy="347.8359" fill="#84BE84" rx="3" ry="3" style="stroke:#038048;stroke-width:1.0;"/><text fill="#000000" font-family="sans-serif" font-size="14" lengthAdjust="spacing" textLength="295" x="27" y="351.1826">MetricManager(updateAction : Runnable)</text></g><!--class GameMap--><g id="elem_GameMap"><rect codeLine="84" fill="#F1F1F1" height="129.4844" id="GameMap" rx="2.5" ry="2.5" style="stroke:#181818;stroke-width:0.5;" width="519" x="3063.5" y="229"/><ellipse cx="3282.75" cy="245" fill="#ADD1B2" rx="11" ry="11" style="stroke:#181818;stroke-width:1.0;"/><path d="M3285.0938,240.6719 C3284.1563,240.2344 3283.5625,240.0938 3282.6875,240.0938 C3280.0625,240.0938 3278.0625,242.1719 3278.0625,244.8906 L3278.0625,246.0156 C3278.0625,248.5938 3280.1719,250.4844 3283.0625,250.4844 C3284.2813,250.4844 3285.4375,250.1875 3286.1875,249.6406 C3286.7656,249.2344 3287.0938,248.7813 3287.0938,248.3906 C3287.0938,247.9375 3286.7031,247.5469 3286.2344,247.5469 C3286.0156,247.5469 3285.8125,247.625 3285.625,247.8125 C3285.1719,248.2969 3285.1719,248.2969 3284.9844,248.3906 C3284.5625,248.6563 3283.875,248.7813 3283.1094,248.7813 C3281.0625,248.7813 3279.7656,247.6875 3279.7656,245.9844 L3279.7656,244.8906 C3279.7656,243.1094 3281.0156,241.7969 3282.75,241.7969 C3283.3281,241.7969 3283.9375,241.9531 3284.4063,242.2031 C3284.8906,242.4844 3285.0625,242.7031 3285.1563,243.1094 C3285.2188,243.5156 3285.25,243.6406 3285.3906,243.7656 C3285.5313,243.9063 3285.7656,244.0156 3285.9844,244.0156 C3286.25,244.0156 3286.5156,243.875 3286.6875,243.6563 C3286.7969,243.5 3286.8281,243.3125 3286.8281,242.8906 L3286.8281,241.4688 C3286.8281,241.0313 3286.8125,240.9063 3286.7188,240.75 C3286.5625,240.4844 3286.2813,240.3438 3285.9844,240.3438 C3285.6875,240.3438 3285.4844,240.4375 3285.2656,240.75 L3285.0938,240.6719 Z " fill="#000000"/><text fill="#000000" font-family="sans-serif" font-size="14" lengthAdjust="spacing" textLength="72" x="3303.25" y="249.8467">GameMap</text><line style="stroke:#181818;stroke-width:0.5;" x1="3064.5" x2="3581.5" y1="261" y2="261"/><line style="stroke:#181818;stroke-width:0.5;" x1="3064.5" x2="3581.5" y1="269" y2="269"/><ellipse cx="3074.5" cy="282.6484" fill="#84BE84" rx="3" ry="3" style="stroke:#038048;stroke-width:1.0;"/><text fill="#000000" font-family="sans-serif" font-size="14" lengthAdjust="spacing" textLength="341" x="3083.5" y="285.9951">getBorderObjects() : RectangleMapObject[0..*]</text><ellipse cx="3074.5" cy="298.9453" fill="#84BE84" rx="3" ry="3" style="stroke:#038048;stroke-width:1.0;"/><text fill="#000000" font-family="sans-serif" font-size="14" lengthAdjust="spacing" textLength="181" x="3083.5" y="302.292">scale(value : Float) : Float</text><ellipse cx="3074.5" cy="315.2422" fill="#84BE84" rx="3" ry="3" style="stroke:#038048;stroke-width:1.0;"/><text fill="#000000" font-family="sans-serif" font-size="14" lengthAdjust="spacing" textLength="493" x="3083.5" y="318.5889">bound(candidate : Vector2, hGutter : Float, vGutter : Float) : Vector2</text><ellipse cx="3074.5" cy="331.5391" fill="#84BE84" rx="3" ry="3" style="stroke:#038048;stroke-width:1.0;"/><text fill="#000000" font-family="sans-serif" font-size="14" lengthAdjust="spacing" textLength="312" x="3083.5" y="334.8857">updateView(camera : OrthographicCamera)</text><ellipse cx="3074.5" cy="347.8359" fill="#84BE84" rx="3" ry="3" style="stroke:#038048;stroke-width:1.0;"/><text fill="#000000" font-family="sans-serif" font-size="14" lengthAdjust="spacing" textLength="204" x="3083.5" y="351.1826">GameMap(mapPath : String)</text></g><!--class PlayScreen--><g id="elem_PlayScreen"><rect codeLine="92" fill="#F1F1F1" height="162.0781" id="PlayScreen" rx="2.5" ry="2.5" style="stroke:#181818;stroke-width:0.5;" width="306" x="496" y="212.5"/><ellipse cx="605.25" cy="228.5" fill="#ADD1B2" rx="11" ry="11" style="stroke:#181818;stroke-width:1.0;"/><path d="M607.5938,224.1719 C606.6563,223.7344 606.0625,223.5938 605.1875,223.5938 C602.5625,223.5938 600.5625,225.6719 600.5625,228.3906 L600.5625,229.5156 C600.5625,232.0938 602.6719,233.9844 605.5625,233.9844 C606.7813,233.9844 607.9375,233.6875 608.6875,233.1406 C609.2656,232.7344 609.5938,232.2813 609.5938,231.8906 C609.5938,231.4375 609.2031,231.0469 608.7344,231.0469 C608.5156,231.0469 608.3125,231.125 608.125,231.3125 C607.6719,231.7969 607.6719,231.7969 607.4844,231.8906 C607.0625,232.1563 606.375,232.2813 605.6094,232.2813 C603.5625,232.2813 602.2656,231.1875 602.2656,229.4844 L602.2656,228.3906 C602.2656,226.6094 603.5156,225.2969 605.25,225.2969 C605.8281,225.2969 606.4375,225.4531 606.9063,225.7031 C607.3906,225.9844 607.5625,226.2031 607.6563,226.6094 C607.7188,227.0156 607.75,227.1406 607.8906,227.2656 C608.0313,227.4063 608.2656,227.5156 608.4844,227.5156 C608.75,227.5156 609.0156,227.375 609.1875,227.1563 C609.2969,227 609.3281,226.8125 609.3281,226.3906 L609.3281,224.9688 C609.3281,224.5313 609.3125,224.4063 609.2188,224.25 C609.0625,223.9844 608.7813,223.8438 608.4844,223.8438 C608.1875,223.8438 607.9844,223.9375 607.7656,224.25 L607.5938,224.1719 Z " fill="#000000"/><text fill="#000000" font-family="sans-serif" font-size="14" lengthAdjust="spacing" textLength="79" x="625.75" y="233.3467">PlayScreen</text><line style="stroke:#181818;stroke-width:0.5;" x1="497" x2="801" y1="244.5" y2="244.5"/><line style="stroke:#181818;stroke-width:0.5;" x1="497" x2="801" y1="252.5" y2="252.5"/><ellipse cx="507" cy="266.1484" fill="#84BE84" rx="3" ry="3" style="stroke:#038048;stroke-width:1.0;"/><text fill="#000000" font-family="sans-serif" font-size="14" lengthAdjust="spacing" textLength="61" x="516" y="269.4951">update()</text><ellipse cx="507" cy="282.4453" fill="#84BE84" rx="3" ry="3" style="stroke:#038048;stroke-width:1.0;"/><text fill="#000000" font-family="sans-serif" font-size="14" lengthAdjust="spacing" textLength="280" x="516" y="285.792">resize(width : Integer, height : Integer)</text><ellipse cx="507" cy="298.7422" fill="#84BE84" rx="3" ry="3" style="stroke:#038048;stroke-width:1.0;"/><text fill="#000000" font-family="sans-serif" font-size="14" lengthAdjust="spacing" textLength="46" x="516" y="302.0889">show()</text><ellipse cx="507" cy="315.0391" fill="#84BE84" rx="3" ry="3" style="stroke:#038048;stroke-width:1.0;"/><text fill="#000000" font-family="sans-serif" font-size="14" lengthAdjust="spacing" textLength="41" x="516" y="318.3857">hide()</text><ellipse cx="507" cy="331.3359" fill="#84BE84" rx="3" ry="3" style="stroke:#038048;stroke-width:1.0;"/><text fill="#000000" font-family="sans-serif" font-size="14" lengthAdjust="spacing" textLength="52" x="516" y="334.6826">pause()</text><ellipse cx="507" cy="347.6328" fill="#84BE84" rx="3" ry="3" style="stroke:#038048;stroke-width:1.0;"/><text fill="#000000" font-family="sans-serif" font-size="14" lengthAdjust="spacing" textLength="63" x="516" y="350.9795">resume()</text><ellipse cx="507" cy="363.9297" fill="#84BE84" rx="3" ry="3" style="stroke:#038048;stroke-width:1.0;"/><text fill="#000000" font-family="sans-serif" font-size="14" lengthAdjust="spacing" textLength="231" x="516" y="367.2764">PlayScreen(batch : SpriteBatch)</text></g><!--reverse link Drawable to Item--><g id="link_Drawable_Item"><path codeLine="102" d="M2359.8219,119.8658 C2442.9319,159.6998 2554.15,213.008 2637.3,252.862 " fill="none" id="Drawable-backto-Item" style="stroke:#181818;stroke-width:1.0;stroke-dasharray:7.0,7.0;"/><polygon fill="none" points="2343.59,112.086,2357.2286,125.2765,2362.4152,114.4552,2343.59,112.086" style="stroke:#181818;stroke-width:1.0;"/></g><!--reverse link Drawable to GameMap--><g id="link_Drawable_GameMap"><path codeLine="103" d="M2395.5814,86.2182 C2550.0714,103.2652 2812.32,137.416 3046,196 C3082.06,205.04 3120.08,216.771 3156.01,228.924 " fill="none" id="Drawable-backto-GameMap" style="stroke:#181818;stroke-width:1.0;stroke-dasharray:7.0,7.0;"/><polygon fill="none" points="2377.69,84.244,2394.9233,92.182,2396.2395,80.2544,2377.69,84.244" style="stroke:#181818;stroke-width:1.0;"/></g><!--reverse link Item to Interactable--><g id="link_Item_Interactable"><path codeLine="104" d="M2749.2426,350.2575 C2766.7626,383.6515 2783.46,415.486 2802.03,450.8964 " fill="none" id="Item-backto-Interactable" style="stroke:#181818;stroke-width:1.0;"/><polygon fill="none" points="2740.88,334.318,2743.9294,353.045,2754.5557,347.47,2740.88,334.318" style="stroke:#181818;stroke-width:1.0;"/></g><!--reverse link Overlay to PauseMenu--><g id="link_Overlay_PauseMenu"><path codeLine="105" d="M2261,352.318 C2261,391.278 2261,431.81 2261,467.4475 " fill="none" id="Overlay-backto-PauseMenu" style="stroke:#181818;stroke-width:1.0;"/><polygon fill="none" points="2261,334.318,2255,352.318,2267,352.318,2261,334.318" style="stroke:#181818;stroke-width:1.0;"/></g><!--reverse link Overlay to HeadsUpDisplay--><g id="link_Overlay_HeadsUpDisplay"><path codeLine="106" d="M2197.6168,345.0558 C2173.2468,363.6748 2157.14,374.435 2128,391 C2082.51,416.857 2029.59,440.462 1984.18,458.9226 " fill="none" id="Overlay-backto-HeadsUpDisplay" style="stroke:#181818;stroke-width:1.0;"/><polygon fill="none" points="2211.92,334.128,2193.9742,340.2881,2201.2594,349.8236,2211.92,334.128" style="stroke:#181818;stroke-width:1.0;"/></g><!--reverse link Drawable to Overlay--><g id="link_Drawable_Overlay"><path codeLine="107" d="M2261,130.086 C2261,169.92 2261,213.008 2261,252.862 " fill="none" id="Drawable-backto-Overlay" style="stroke:#181818;stroke-width:1.0;stroke-dasharray:7.0,7.0;"/><polygon fill="none" points="2261,112.086,2255,130.086,2267,130.086,2261,112.086" style="stroke:#181818;stroke-width:1.0;"/></g><!--reverse link Drawable to Character--><g id="link_Drawable_Character"><path codeLine="108" d="M2172.6903,120.7098 C2129.7403,144.1528 2089.12,166.333 2035.07,195.838 " fill="none" id="Drawable-backto-Character" style="stroke:#181818;stroke-width:1.0;stroke-dasharray:7.0,7.0;"/><polygon fill="none" points="2188.49,112.086,2169.8157,115.4432,2175.5649,125.9764,2188.49,112.086" style="stroke:#181818;stroke-width:1.0;"/></g><!--reverse link Drawable to Area--><g id="link_Drawable_Area"><path codeLine="109" d="M2126.5583,94.5996 C1992.1683,117.1566 1782.74,153.963 1589,196 C1583.11,197.279 1577.17,198.582 1571.19,199.908 " fill="none" id="Drawable-backto-Area" style="stroke:#181818;stroke-width:1.0;stroke-dasharray:7.0,7.0;"/><polygon fill="none" points="2144.31,91.62,2125.5651,88.6823,2127.5515,100.5168,2144.31,91.62" style="stroke:#181818;stroke-width:1.0;"/></g><!--SRC=[nLRTJniv47_FNx5lNQuXLFU8q4aaG8jK3WIKbrCV9hl3hYklRTdUf73j_zxnryORagBgJYelhCSpFy_dR_AcjLQPuwCZnK7OlkEpIdP75GTZ3ci6ZOPkCc72edw42eip3MjOSYp-dHJqzxPcHac3vH9irHR7nPtIpEBSdGw2XaPHezwjy7qoGT5tnQb6-1kwX7gFnbw1clh33OFdPvZtZDTCD46sa9swgzXOECTQIzabeGFtONZqv2_KzQKB1YhhmYXPTY3lyhlelzMiQL3dDwQiMd07r3VICCka8Di7hApKVqQpfUn5NLOWQbQ3nStzj6ZVzvPCINJ19TXfiHeB3ZRA0QjN3kA1uPe0EtA35AwrRILLHxMiMdXXVDXOLEMG-uRHMIyavyoGctDPFr7Cv3BmbwvF2_kadAjExPu-fyMQrRRTUDeYQrgRE-fKjnvBkIb_mRX1UndSMcodjdoH3rVGiWDr0nx-Zaf4JL2mFG1vRKPDSG5E-fHweoAHnTXy_bMdbD-5Njnt6xjot_LMVsxfPFwK7L94rHK8Q7nNNENdB8OXqXH19rVuQQY-Evt9jSZF7_7HvkTRLv9SaBwf8FiBOB9BjMy2p9hHa0y-BYHDq5TRGfhrus7iey6cSPoESO63EabAKw_-rxIeyH5wRlrKvnYK5bWQwo2Aa9_h5MeEJzdidpe7IvzcP-l-nyUZxbwU2eWV46hpIPqHwsN0OJv3bSuvTYXihE5Gl121Iy3GiF7XCUGhxzz0R-WXqQUd1y4hXfTY1PpLBbldNojKlc8HOzST-MyCjLlcxGRBOfTiVzecJd57VuGyzDg1tuUlQG6RShx6EdbK6Nj7ZnAZfqPcPi7TXjf1nO6294SGAHFPQlZV7IVTAWBUzaA47JF4CXhoBBr1_W2ynrrDTP3GK_H4Dgu1WyRkDkneV9ZYp9EBYzdJIjZd-D_ioU6FO2oDicYmZY078_kWE0gt31Dq-fFql2TBeeCiCNEfwOV5zV8B5SVuDsxfYzxbJZ78_tatc_tnEV9H1LJLbKjaleEovFssdHs3Ux7JyiadShYZsg0OiyvcrHlsZCFAZLN9Md1S9zFATJ9jMJt0ACSd6MRV3QUD1tkvPlXrUF9jDlCyiIMAWKuyXPnyEpmSZV0a4RQ_6QXjB1xpvHP-rDoI3ejbI-vczWS0]--></g></svg>