<?xml version="1.0" encoding="windows-1252" standalone="no"?>
<svg xmlns="http://www.w3.org/2000/svg" xmlns:xlink="http://www.w3.org/1999/xlink" contentStyleType="text/css" height="432px" preserveAspectRatio="none" style="width:1604px;height:432px;background:#FFFFFF;" version="1.1" viewBox="0 0 1604 432" width="1604px" zoomAndPan="magnify"><defs/><g><!--cluster player--><g id="cluster_player"><path d="M340,55 L391,55 A3.75,3.75 0 0 1 393.5,57.5 L400.5,77.2969 L607,77.2969 A2.5,2.5 0 0 1 609.5,79.7969 L609.5,200.5 A2.5,2.5 0 0 1 607,203 L340,203 A2.5,2.5 0 0 1 337.5,200.5 L337.5,57.5 A2.5,2.5 0 0 1 340,55 " fill="none" style="stroke:#000000;stroke-width:1.5;"/><line style="stroke:#000000;stroke-width:1.5;" x1="337.5" x2="400.5" y1="77.2969" y2="77.2969"/><text fill="#000000" font-family="sans-serif" font-size="14" font-weight="bold" lengthAdjust="spacing" textLength="50" x="341.5" y="69.9951">player</text></g><!--cluster screens--><g id="cluster_screens"><path d="M636,6 L699,6 A3.75,3.75 0 0 1 701.5,8.5 L708.5,28.2969 L969,28.2969 A2.5,2.5 0 0 1 971.5,30.7969 L971.5,249.5 A2.5,2.5 0 0 1 969,252 L636,252 A2.5,2.5 0 0 1 633.5,249.5 L633.5,8.5 A2.5,2.5 0 0 1 636,6 " fill="none" style="stroke:#000000;stroke-width:1.5;"/><line style="stroke:#000000;stroke-width:1.5;" x1="633.5" x2="708.5" y1="28.2969" y2="28.2969"/><text fill="#000000" font-family="sans-serif" font-size="14" font-weight="bold" lengthAdjust="spacing" textLength="62" x="637.5" y="20.9951">screens</text></g><!--cluster sprites--><g id="cluster_sprites"><path d="M998,39 L1056,39 A3.75,3.75 0 0 1 1058.5,41.5 L1065.5,61.2969 L1595,61.2969 A2.5,2.5 0 0 1 1597.5,63.7969 L1597.5,216.5 A2.5,2.5 0 0 1 1595,219 L998,219 A2.5,2.5 0 0 1 995.5,216.5 L995.5,41.5 A2.5,2.5 0 0 1 998,39 " fill="none" style="stroke:#000000;stroke-width:1.5;"/><line style="stroke:#000000;stroke-width:1.5;" x1="995.5" x2="1065.5" y1="61.2969" y2="61.2969"/><text fill="#000000" font-family="sans-serif" font-size="14" font-weight="bold" lengthAdjust="spacing" textLength="57" x="999.5" y="53.9951">sprites</text></g><!--class Metrics--><g id="elem_Metrics"><rect codeLine="4" fill="#F1F1F1" height="96.8906" id="Metrics" rx="2.5" ry="2.5" style="stroke:#181818;stroke-width:0.5;" width="239" x="354" y="90"/><ellipse cx="442.75" cy="106" fill="#ADD1B2" rx="11" ry="11" style="stroke:#181818;stroke-width:1.0;"/><path d="M445.0938,101.6719 C444.1563,101.2344 443.5625,101.0938 442.6875,101.0938 C440.0625,101.0938 438.0625,103.1719 438.0625,105.8906 L438.0625,107.0156 C438.0625,109.5938 440.1719,111.4844 443.0625,111.4844 C444.2813,111.4844 445.4375,111.1875 446.1875,110.6406 C446.7656,110.2344 447.0938,109.7813 447.0938,109.3906 C447.0938,108.9375 446.7031,108.5469 446.2344,108.5469 C446.0156,108.5469 445.8125,108.625 445.625,108.8125 C445.1719,109.2969 445.1719,109.2969 444.9844,109.3906 C444.5625,109.6563 443.875,109.7813 443.1094,109.7813 C441.0625,109.7813 439.7656,108.6875 439.7656,106.9844 L439.7656,105.8906 C439.7656,104.1094 441.0156,102.7969 442.75,102.7969 C443.3281,102.7969 443.9375,102.9531 444.4063,103.2031 C444.8906,103.4844 445.0625,103.7031 445.1563,104.1094 C445.2188,104.5156 445.25,104.6406 445.3906,104.7656 C445.5313,104.9063 445.7656,105.0156 445.9844,105.0156 C446.25,105.0156 446.5156,104.875 446.6875,104.6563 C446.7969,104.5 446.8281,104.3125 446.8281,103.8906 L446.8281,102.4688 C446.8281,102.0313 446.8125,101.9063 446.7188,101.75 C446.5625,101.4844 446.2813,101.3438 445.9844,101.3438 C445.6875,101.3438 445.4844,101.4375 445.2656,101.75 L445.0938,101.6719 Z " fill="#000000"/><text fill="#000000" font-family="sans-serif" font-size="14" lengthAdjust="spacing" textLength="53" x="463.25" y="110.8467">Metrics</text><line style="stroke:#181818;stroke-width:0.5;" x1="355" x2="592" y1="122" y2="122"/><line style="stroke:#181818;stroke-width:0.5;" x1="355" x2="592" y1="130" y2="130"/><ellipse cx="365" cy="143.6484" fill="#84BE84" rx="3" ry="3" style="stroke:#038048;stroke-width:1.0;"/><text fill="#000000" font-family="sans-serif" font-size="14" lengthAdjust="spacing" textLength="213" x="374" y="146.9951">getHappinessLevel() : Integer</text><ellipse cx="365" cy="159.9453" fill="#84BE84" rx="3" ry="3" style="stroke:#038048;stroke-width:1.0;"/><text fill="#000000" font-family="sans-serif" font-size="14" lengthAdjust="spacing" textLength="208" x="374" y="163.292">itemPickedUp(num : Integer)</text><ellipse cx="365" cy="176.2422" fill="#84BE84" rx="3" ry="3" style="stroke:#038048;stroke-width:1.0;"/><text fill="#000000" font-family="sans-serif" font-size="14" lengthAdjust="spacing" textLength="63" x="374" y="179.5889">Metrics()</text></g><!--class PlayScreen--><g id="elem_PlayScreen"><rect codeLine="12" fill="#F1F1F1" height="194.6719" id="PlayScreen" rx="2.5" ry="2.5" style="stroke:#181818;stroke-width:0.5;" width="306" x="649.5" y="41"/><ellipse cx="758.75" cy="57" fill="#ADD1B2" rx="11" ry="11" style="stroke:#181818;stroke-width:1.0;"/><path d="M761.0938,52.6719 C760.1563,52.2344 759.5625,52.0938 758.6875,52.0938 C756.0625,52.0938 754.0625,54.1719 754.0625,56.8906 L754.0625,58.0156 C754.0625,60.5938 756.1719,62.4844 759.0625,62.4844 C760.2813,62.4844 761.4375,62.1875 762.1875,61.6406 C762.7656,61.2344 763.0938,60.7813 763.0938,60.3906 C763.0938,59.9375 762.7031,59.5469 762.2344,59.5469 C762.0156,59.5469 761.8125,59.625 761.625,59.8125 C761.1719,60.2969 761.1719,60.2969 760.9844,60.3906 C760.5625,60.6563 759.875,60.7813 759.1094,60.7813 C757.0625,60.7813 755.7656,59.6875 755.7656,57.9844 L755.7656,56.8906 C755.7656,55.1094 757.0156,53.7969 758.75,53.7969 C759.3281,53.7969 759.9375,53.9531 760.4063,54.2031 C760.8906,54.4844 761.0625,54.7031 761.1563,55.1094 C761.2188,55.5156 761.25,55.6406 761.3906,55.7656 C761.5313,55.9063 761.7656,56.0156 761.9844,56.0156 C762.25,56.0156 762.5156,55.875 762.6875,55.6563 C762.7969,55.5 762.8281,55.3125 762.8281,54.8906 L762.8281,53.4688 C762.8281,53.0313 762.8125,52.9063 762.7188,52.75 C762.5625,52.4844 762.2813,52.3438 761.9844,52.3438 C761.6875,52.3438 761.4844,52.4375 761.2656,52.75 L761.0938,52.6719 Z " fill="#000000"/><text fill="#000000" font-family="sans-serif" font-size="14" lengthAdjust="spacing" textLength="79" x="779.25" y="61.8467">PlayScreen</text><line style="stroke:#181818;stroke-width:0.5;" x1="650.5" x2="954.5" y1="73" y2="73"/><line style="stroke:#181818;stroke-width:0.5;" x1="650.5" x2="954.5" y1="81" y2="81"/><ellipse cx="660.5" cy="94.6484" fill="#84BE84" rx="3" ry="3" style="stroke:#038048;stroke-width:1.0;"/><text fill="#000000" font-family="sans-serif" font-size="14" lengthAdjust="spacing" textLength="46" x="669.5" y="97.9951">show()</text><ellipse cx="660.5" cy="110.9453" fill="#84BE84" rx="3" ry="3" style="stroke:#038048;stroke-width:1.0;"/><text fill="#000000" font-family="sans-serif" font-size="14" lengthAdjust="spacing" textLength="41" x="669.5" y="114.292">hide()</text><ellipse cx="660.5" cy="127.2422" fill="#84BE84" rx="3" ry="3" style="stroke:#038048;stroke-width:1.0;"/><text fill="#000000" font-family="sans-serif" font-size="14" lengthAdjust="spacing" textLength="52" x="669.5" y="130.5889">pause()</text><ellipse cx="660.5" cy="143.5391" fill="#84BE84" rx="3" ry="3" style="stroke:#038048;stroke-width:1.0;"/><text fill="#000000" font-family="sans-serif" font-size="14" lengthAdjust="spacing" textLength="52" x="669.5" y="146.8857">pause()</text><ellipse cx="660.5" cy="159.8359" fill="#84BE84" rx="3" ry="3" style="stroke:#038048;stroke-width:1.0;"/><text fill="#000000" font-family="sans-serif" font-size="14" lengthAdjust="spacing" textLength="96" x="669.5" y="163.1826">handleInput()</text><ellipse cx="660.5" cy="176.1328" fill="#84BE84" rx="3" ry="3" style="stroke:#038048;stroke-width:1.0;"/><text fill="#000000" font-family="sans-serif" font-size="14" lengthAdjust="spacing" textLength="147" x="669.5" y="179.4795">update(delta : Float)</text><ellipse cx="660.5" cy="192.4297" fill="#84BE84" rx="3" ry="3" style="stroke:#038048;stroke-width:1.0;"/><text fill="#000000" font-family="sans-serif" font-size="14" lengthAdjust="spacing" textLength="58" x="669.5" y="195.7764">render()</text><ellipse cx="660.5" cy="208.7266" fill="#84BE84" rx="3" ry="3" style="stroke:#038048;stroke-width:1.0;"/><text fill="#000000" font-family="sans-serif" font-size="14" lengthAdjust="spacing" textLength="280" x="669.5" y="212.0732">resize(width : Integer, height : Integer)</text><ellipse cx="660.5" cy="225.0234" fill="#84BE84" rx="3" ry="3" style="stroke:#038048;stroke-width:1.0;"/><text fill="#000000" font-family="sans-serif" font-size="14" lengthAdjust="spacing" textLength="264" x="669.5" y="228.3701">PlayScreen(game : HeslingtonHustle)</text></g><!--class Character--><g id="elem_Character"><rect codeLine="26" fill="#F1F1F1" height="129.4844" id="Character" rx="2.5" ry="2.5" style="stroke:#181818;stroke-width:0.5;" width="201" x="1380" y="74"/><ellipse cx="1440.75" cy="90" fill="#ADD1B2" rx="11" ry="11" style="stroke:#181818;stroke-width:1.0;"/><path d="M1443.0938,85.6719 C1442.1563,85.2344 1441.5625,85.0938 1440.6875,85.0938 C1438.0625,85.0938 1436.0625,87.1719 1436.0625,89.8906 L1436.0625,91.0156 C1436.0625,93.5938 1438.1719,95.4844 1441.0625,95.4844 C1442.2813,95.4844 1443.4375,95.1875 1444.1875,94.6406 C1444.7656,94.2344 1445.0938,93.7813 1445.0938,93.3906 C1445.0938,92.9375 1444.7031,92.5469 1444.2344,92.5469 C1444.0156,92.5469 1443.8125,92.625 1443.625,92.8125 C1443.1719,93.2969 1443.1719,93.2969 1442.9844,93.3906 C1442.5625,93.6563 1441.875,93.7813 1441.1094,93.7813 C1439.0625,93.7813 1437.7656,92.6875 1437.7656,90.9844 L1437.7656,89.8906 C1437.7656,88.1094 1439.0156,86.7969 1440.75,86.7969 C1441.3281,86.7969 1441.9375,86.9531 1442.4063,87.2031 C1442.8906,87.4844 1443.0625,87.7031 1443.1563,88.1094 C1443.2188,88.5156 1443.25,88.6406 1443.3906,88.7656 C1443.5313,88.9063 1443.7656,89.0156 1443.9844,89.0156 C1444.25,89.0156 1444.5156,88.875 1444.6875,88.6563 C1444.7969,88.5 1444.8281,88.3125 1444.8281,87.8906 L1444.8281,86.4688 C1444.8281,86.0313 1444.8125,85.9063 1444.7188,85.75 C1444.5625,85.4844 1444.2813,85.3438 1443.9844,85.3438 C1443.6875,85.3438 1443.4844,85.4375 1443.2656,85.75 L1443.0938,85.6719 Z " fill="#000000"/><text fill="#000000" font-family="sans-serif" font-size="14" lengthAdjust="spacing" textLength="71" x="1461.25" y="94.8467">Character</text><line style="stroke:#181818;stroke-width:0.5;" x1="1381" x2="1580" y1="106" y2="106"/><ellipse cx="1391" cy="119.6484" fill="none" rx="3" ry="3" style="stroke:#038048;stroke-width:1.0;"/><text fill="#000000" font-family="sans-serif" font-size="14" lengthAdjust="spacing" textLength="94" x="1400" y="122.9951">world : World</text><ellipse cx="1391" cy="135.9453" fill="none" rx="3" ry="3" style="stroke:#038048;stroke-width:1.0;"/><text fill="#000000" font-family="sans-serif" font-size="14" lengthAdjust="spacing" textLength="103" x="1400" y="139.292">b2body : Body</text><ellipse cx="1391" cy="152.2422" fill="none" rx="3" ry="3" style="stroke:#038048;stroke-width:1.0;"/><text fill="#000000" font-family="sans-serif" font-size="14" lengthAdjust="spacing" textLength="170" x="1400" y="155.5889">playerTexture : Texture</text><line style="stroke:#181818;stroke-width:0.5;" x1="1381" x2="1580" y1="162.8906" y2="162.8906"/><ellipse cx="1391" cy="176.5391" fill="#84BE84" rx="3" ry="3" style="stroke:#038048;stroke-width:1.0;"/><text fill="#000000" font-family="sans-serif" font-size="14" lengthAdjust="spacing" textLength="127" x="1400" y="179.8857">defineCharacter()</text><ellipse cx="1391" cy="192.8359" fill="#84BE84" rx="3" ry="3" style="stroke:#038048;stroke-width:1.0;"/><text fill="#000000" font-family="sans-serif" font-size="14" lengthAdjust="spacing" textLength="175" x="1400" y="196.1826">Character(world : World)</text></g><!--class TileMap--><g id="elem_TileMap"><rect codeLine="35" fill="#F1F1F1" height="113.1875" id="TileMap" rx="2.5" ry="2.5" style="stroke:#181818;stroke-width:0.5;" width="333" x="1012" y="82"/><ellipse cx="1146.25" cy="98" fill="#ADD1B2" rx="11" ry="11" style="stroke:#181818;stroke-width:1.0;"/><path d="M1148.5938,93.6719 C1147.6563,93.2344 1147.0625,93.0938 1146.1875,93.0938 C1143.5625,93.0938 1141.5625,95.1719 1141.5625,97.8906 L1141.5625,99.0156 C1141.5625,101.5938 1143.6719,103.4844 1146.5625,103.4844 C1147.7813,103.4844 1148.9375,103.1875 1149.6875,102.6406 C1150.2656,102.2344 1150.5938,101.7813 1150.5938,101.3906 C1150.5938,100.9375 1150.2031,100.5469 1149.7344,100.5469 C1149.5156,100.5469 1149.3125,100.625 1149.125,100.8125 C1148.6719,101.2969 1148.6719,101.2969 1148.4844,101.3906 C1148.0625,101.6563 1147.375,101.7813 1146.6094,101.7813 C1144.5625,101.7813 1143.2656,100.6875 1143.2656,98.9844 L1143.2656,97.8906 C1143.2656,96.1094 1144.5156,94.7969 1146.25,94.7969 C1146.8281,94.7969 1147.4375,94.9531 1147.9063,95.2031 C1148.3906,95.4844 1148.5625,95.7031 1148.6563,96.1094 C1148.7188,96.5156 1148.75,96.6406 1148.8906,96.7656 C1149.0313,96.9063 1149.2656,97.0156 1149.4844,97.0156 C1149.75,97.0156 1150.0156,96.875 1150.1875,96.6563 C1150.2969,96.5 1150.3281,96.3125 1150.3281,95.8906 L1150.3281,94.4688 C1150.3281,94.0313 1150.3125,93.9063 1150.2188,93.75 C1150.0625,93.4844 1149.7813,93.3438 1149.4844,93.3438 C1149.1875,93.3438 1148.9844,93.4375 1148.7656,93.75 L1148.5938,93.6719 Z " fill="#000000"/><text fill="#000000" font-family="sans-serif" font-size="14" lengthAdjust="spacing" textLength="56" x="1166.75" y="102.8467">TileMap</text><line style="stroke:#181818;stroke-width:0.5;" x1="1013" x2="1344" y1="114" y2="114"/><line style="stroke:#181818;stroke-width:0.5;" x1="1013" x2="1344" y1="122" y2="122"/><ellipse cx="1023" cy="135.6484" fill="#84BE84" rx="3" ry="3" style="stroke:#038048;stroke-width:1.0;"/><text fill="#000000" font-family="sans-serif" font-size="14" lengthAdjust="spacing" textLength="122" x="1032" y="138.9951">getScale() : Float</text><ellipse cx="1023" cy="151.9453" fill="#84BE84" rx="3" ry="3" style="stroke:#038048;stroke-width:1.0;"/><text fill="#000000" font-family="sans-serif" font-size="14" lengthAdjust="spacing" textLength="230" x="1032" y="155.292">getProperties() : MapProperties</text><ellipse cx="1023" cy="168.2422" fill="#84BE84" rx="3" ry="3" style="stroke:#038048;stroke-width:1.0;"/><text fill="#000000" font-family="sans-serif" font-size="14" lengthAdjust="spacing" textLength="307" x="1032" y="171.5889">setupMap() : OrthogonalTiledMapRenderer</text><ellipse cx="1023" cy="184.5391" fill="#84BE84" rx="3" ry="3" style="stroke:#038048;stroke-width:1.0;"/><text fill="#000000" font-family="sans-serif" font-size="14" lengthAdjust="spacing" textLength="66" x="1032" y="187.8857">TileMap()</text></g><!--class Item--><g id="elem_Item"><rect codeLine="43" fill="#F1F1F1" height="96.8906" id="Item" rx="2.5" ry="2.5" style="stroke:#181818;stroke-width:0.5;" width="238" x="80.5" y="90"/><ellipse cx="179.25" cy="106" fill="#A9DCDF" rx="11" ry="11" style="stroke:#181818;stroke-width:1.0;"/><path d="M181.3281,107.8125 L181.7188,108.7969 L181.3281,108.7969 C180.875,108.7969 180.7656,108.8125 180.6094,108.9219 C180.3594,109.0781 180.2031,109.3594 180.2031,109.6563 C180.2031,109.9219 180.3438,110.1719 180.5625,110.3281 C180.7031,110.4531 180.9063,110.5 181.3281,110.5 L183.6875,110.5 C184.0469,110.5 184.2656,110.4688 184.4063,110.375 C184.6563,110.2344 184.8125,109.9375 184.8125,109.6563 C184.8125,109.375 184.6719,109.125 184.4531,108.9688 C184.2813,108.8281 184.125,108.7969 183.6563,108.7969 L180.2656,100.5938 L176.5938,100.5938 C176.1406,100.5938 176.0156,100.6094 175.8594,100.7031 C175.6094,100.875 175.4531,101.1563 175.4531,101.4375 C175.4531,101.7188 175.5938,101.9688 175.8125,102.1406 C175.9844,102.25 176.1563,102.2813 176.5938,102.2813 L177.6719,102.2813 L175.0313,108.7969 C174.6094,108.7969 174.4531,108.8125 174.2969,108.9219 C174.0469,109.0781 173.8906,109.3594 173.8906,109.6563 C173.8906,110.2188 174.2656,110.5 175.0156,110.5 L177.2813,110.5 C177.6406,110.5 177.8594,110.4688 177.9844,110.375 C178.25,110.2344 178.3906,109.9375 178.3906,109.6563 C178.3906,109.375 178.2656,109.125 178.0469,108.9531 C177.875,108.8281 177.7344,108.7969 177.2813,108.7969 L176.8906,108.7969 L177.2813,107.8125 L181.3281,107.8125 Z M180.625,106.1094 L177.9531,106.1094 L179.2969,102.8438 L180.625,106.1094 Z " fill="#000000"/><text fill="#000000" font-family="sans-serif" font-size="14" font-style="italic" lengthAdjust="spacing" textLength="32" x="199.75" y="110.8467">Item</text><line style="stroke:#181818;stroke-width:0.5;" x1="81.5" x2="317.5" y1="122" y2="122"/><line style="stroke:#181818;stroke-width:0.5;" x1="81.5" x2="317.5" y1="130" y2="130"/><ellipse cx="91.5" cy="143.6484" fill="#84BE84" rx="3" ry="3" style="stroke:#038048;stroke-width:1.0;"/><text fill="#000000" font-family="sans-serif" font-size="14" lengthAdjust="spacing" textLength="212" x="100.5" y="146.9951">setTexture(texture : Texture)</text><ellipse cx="91.5" cy="159.9453" fill="#84BE84" rx="3" ry="3" style="stroke:#038048;stroke-width:1.0;"/><text fill="#000000" font-family="sans-serif" font-size="14" lengthAdjust="spacing" textLength="160" x="100.5" y="163.292">getTexture() : Texture</text><ellipse cx="91.5" cy="176.2422" fill="#84BE84" rx="3" ry="3" style="stroke:#038048;stroke-width:1.0;"/><text fill="#000000" font-family="sans-serif" font-size="14" lengthAdjust="spacing" textLength="163" x="100.5" y="179.5889">getPosition() : Vector2</text></g><!--class Interactable--><g id="elem_Interactable"><rect codeLine="49" fill="#F1F1F1" height="129.4844" id="Interactable" rx="2.5" ry="2.5" style="stroke:#181818;stroke-width:0.5;" width="385" x="7" y="296"/><ellipse cx="150.75" cy="312" fill="#ADD1B2" rx="11" ry="11" style="stroke:#181818;stroke-width:1.0;"/><path d="M153.0938,307.6719 C152.1563,307.2344 151.5625,307.0938 150.6875,307.0938 C148.0625,307.0938 146.0625,309.1719 146.0625,311.8906 L146.0625,313.0156 C146.0625,315.5938 148.1719,317.4844 151.0625,317.4844 C152.2813,317.4844 153.4375,317.1875 154.1875,316.6406 C154.7656,316.2344 155.0938,315.7813 155.0938,315.3906 C155.0938,314.9375 154.7031,314.5469 154.2344,314.5469 C154.0156,314.5469 153.8125,314.625 153.625,314.8125 C153.1719,315.2969 153.1719,315.2969 152.9844,315.3906 C152.5625,315.6563 151.875,315.7813 151.1094,315.7813 C149.0625,315.7813 147.7656,314.6875 147.7656,312.9844 L147.7656,311.8906 C147.7656,310.1094 149.0156,308.7969 150.75,308.7969 C151.3281,308.7969 151.9375,308.9531 152.4063,309.2031 C152.8906,309.4844 153.0625,309.7031 153.1563,310.1094 C153.2188,310.5156 153.25,310.6406 153.3906,310.7656 C153.5313,310.9063 153.7656,311.0156 153.9844,311.0156 C154.25,311.0156 154.5156,310.875 154.6875,310.6563 C154.7969,310.5 154.8281,310.3125 154.8281,309.8906 L154.8281,308.4688 C154.8281,308.0313 154.8125,307.9063 154.7188,307.75 C154.5625,307.4844 154.2813,307.3438 153.9844,307.3438 C153.6875,307.3438 153.4844,307.4375 153.2656,307.75 L153.0938,307.6719 Z " fill="#000000"/><text fill="#000000" font-family="sans-serif" font-size="14" lengthAdjust="spacing" textLength="89" x="171.25" y="316.8467">Interactable</text><line style="stroke:#181818;stroke-width:0.5;" x1="8" x2="391" y1="328" y2="328"/><line style="stroke:#181818;stroke-width:0.5;" x1="8" x2="391" y1="336" y2="336"/><ellipse cx="18" cy="349.6484" fill="#84BE84" rx="3" ry="3" style="stroke:#038048;stroke-width:1.0;"/><text fill="#000000" font-family="sans-serif" font-size="14" lengthAdjust="spacing" textLength="68" x="27" y="352.9951">interact()</text><ellipse cx="18" cy="365.9453" fill="#84BE84" rx="3" ry="3" style="stroke:#038048;stroke-width:1.0;"/><text fill="#000000" font-family="sans-serif" font-size="14" lengthAdjust="spacing" textLength="89" x="27" y="369.292">toggleHide()</text><ellipse cx="18" cy="382.2422" fill="#84BE84" rx="3" ry="3" style="stroke:#038048;stroke-width:1.0;"/><text fill="#000000" font-family="sans-serif" font-size="14" lengthAdjust="spacing" textLength="142" x="27" y="385.5889">isHidden() : Boolean</text><ellipse cx="18" cy="398.5391" fill="#84BE84" rx="3" ry="3" style="stroke:#038048;stroke-width:1.0;"/><text fill="#000000" font-family="sans-serif" font-size="14" lengthAdjust="spacing" textLength="65" x="27" y="401.8857">dispose()</text><ellipse cx="18" cy="414.8359" fill="#84BE84" rx="3" ry="3" style="stroke:#038048;stroke-width:1.0;"/><text fill="#000000" font-family="sans-serif" font-size="14" lengthAdjust="spacing" textLength="359" x="27" y="418.1826">Interactable(position : Vector2, texture : Texture)</text></g><!--reverse link Item to Interactable--><g id="link_Item_Interactable"><path codeLine="57" d="M199.5,205.237 C199.5,237.083 199.5,261.311 199.5,295.987 " fill="none" id="Item-backto-Interactable" style="stroke:#181818;stroke-width:1.0;"/><polygon fill="none" points="199.5,187.237,193.5,205.237,205.5,205.237,199.5,187.237" style="stroke:#181818;stroke-width:1.0;"/></g><!--SRC=[VLB1RXiX4BtlL-ojM8vZASUefrIAR2bHhIPjpsEO0WeB26Rhfct-lIp6XesixcMNDszdtZpU1qNau-rwxGrO6WTppTsmvWPYN0aDCi3GTHxu2qZi4-SLG_-dwzEJEVqZKj0y5cnwbX9f0zvhYp4-u4yqRD7VzbjBA35KcYOSTfg_eFZgcHs7obbKKcdFZj1RzrR5H1uGRPofsIM1Jnbl1KNb3gnfghJ0zknXZFy755XXS6lzI2qyUW64JA0XIFBlZGDgoW6jmC1cIDI_aHsq85NtlUeLQgdeeWDr9IPXmCJPO3JQId9sCqOoUCaR7vAzSsy-AGZ0wNn_kVl11IDIp-_JkyBxcxqJhmc_Iw_6btp_p_YBnZ0fALzTPGZyaUxzFAhTlOApeIVrZT9dRV0H_BjCFN4mcAEKVPxLTi5v3AGnPaBwkI9D3f16dsgPypcGSj9PCDCuaU0l-RhQY1OXRVfW7sbQeqZTfX0NdLFxOWYZznOTEqnIJvH5uzzv3HSrQMTpyHjoSk5c6bfcfMnCes5ly3HJ5wn8N9AJqk2c1dofOpe9FFQySyuWs6D5wEZTEUVBjZtpHKdLSTLVM2ffomvy_BjQpVJz0m00]--></g></svg>