<?xml version="1.0" encoding="windows-1252" standalone="no"?>
<svg xmlns="http://www.w3.org/2000/svg" xmlns:xlink="http://www.w3.org/1999/xlink" contentStyleType="text/css" height="694px" preserveAspectRatio="none" style="width:4701px;height:694px;background:#FFFFFF;" version="1.1" viewBox="0 0 4701 694" width="4701px" zoomAndPan="magnify"><defs/><g><!--cluster scene--><g id="cluster_scene"><path d="M2569.5,6 L2616.5,6 A3.75,3.75 0 0 1 2619,8.5 L2626,28.2969 L4369.5,28.2969 A2.5,2.5 0 0 1 4372,30.7969 L4372,644.5 A2.5,2.5 0 0 1 4369.5,647 L2569.5,647 A2.5,2.5 0 0 1 2567,644.5 L2567,8.5 A2.5,2.5 0 0 1 2569.5,6 " fill="none" style="stroke:#000000;stroke-width:1.5;"/><line style="stroke:#000000;stroke-width:1.5;" x1="2567" x2="2626" y1="28.2969" y2="28.2969"/><text fill="#000000" font-family="sans-serif" font-size="14" font-weight="bold" lengthAdjust="spacing" textLength="46" x="2571" y="20.9951">scene</text></g><!--cluster metrics--><g id="cluster_metrics"><path d="M8.5,228 L71.5,228 A3.75,3.75 0 0 1 74,230.5 L81,250.2969 L1347.5,250.2969 A2.5,2.5 0 0 1 1350,252.7969 L1350,685 A2.5,2.5 0 0 1 1347.5,687.5 L8.5,687.5 A2.5,2.5 0 0 1 6,685 L6,230.5 A2.5,2.5 0 0 1 8.5,228 " fill="none" style="stroke:#000000;stroke-width:1.5;"/><line style="stroke:#000000;stroke-width:1.5;" x1="6" x2="81" y1="250.2969" y2="250.2969"/><text fill="#000000" font-family="sans-serif" font-size="14" font-weight="bold" lengthAdjust="spacing" textLength="62" x="10" y="242.9951">metrics</text></g><!--cluster ui--><g id="cluster_ui"><path d="M1376.5,260.5 L1392.5,260.5 A3.75,3.75 0 0 1 1395,263 L1402,282.7969 L2540.5,282.7969 A2.5,2.5 0 0 1 2543,285.2969 L2543,636 A2.5,2.5 0 0 1 2540.5,638.5 L1376.5,638.5 A2.5,2.5 0 0 1 1374,636 L1374,263 A2.5,2.5 0 0 1 1376.5,260.5 " fill="none" style="stroke:#000000;stroke-width:1.5;"/><line style="stroke:#000000;stroke-width:1.5;" x1="1374" x2="1402" y1="282.7969" y2="282.7969"/><text fill="#000000" font-family="sans-serif" font-size="14" font-weight="bold" lengthAdjust="spacing" textLength="15" x="1378" y="275.4951">ui</text></g><!--class Drawable--><g id="elem_Drawable"><rect codeLine="4" fill="#F1F1F1" height="80.5938" id="Drawable" rx="2.5" ry="2.5" style="stroke:#181818;stroke-width:0.5;" width="233" x="3517.5" y="65"/><ellipse cx="3595.75" cy="81" fill="#B4A7E5" rx="11" ry="11" style="stroke:#181818;stroke-width:1.0;"/><path d="M3596.7031,77.7813 L3598.4219,77.7813 C3598.8125,77.7813 3599,77.75 3599.125,77.6719 C3599.3906,77.5156 3599.5313,77.2344 3599.5313,76.9375 C3599.5313,76.6719 3599.4219,76.4063 3599.1875,76.2344 C3599.0156,76.125 3598.875,76.0938 3598.4219,76.0938 L3593.2813,76.0938 C3592.8438,76.0938 3592.7188,76.1094 3592.5625,76.2031 C3592.3125,76.3594 3592.1563,76.6563 3592.1563,76.9375 C3592.1563,77.2188 3592.2969,77.4688 3592.5156,77.6406 C3592.6719,77.75 3592.8594,77.7813 3593.2813,77.7813 L3595,77.7813 L3595,84.2969 L3593.2813,84.2969 C3592.8438,84.2969 3592.7188,84.3125 3592.5625,84.4219 C3592.3125,84.5781 3592.1563,84.8594 3592.1563,85.1563 C3592.1563,85.4063 3592.2969,85.6719 3592.5156,85.8281 C3592.6719,85.9531 3592.875,86 3593.2813,86 L3598.4219,86 C3599.1719,86 3599.5313,85.7188 3599.5313,85.1563 C3599.5313,84.875 3599.4219,84.625 3599.1875,84.4531 C3599.0156,84.3281 3598.875,84.2969 3598.4219,84.2969 L3596.7031,84.2969 L3596.7031,77.7813 Z " fill="#000000"/><text fill="#000000" font-family="sans-serif" font-size="14" font-style="italic" lengthAdjust="spacing" textLength="68" x="3616.25" y="85.8467">Drawable</text><line style="stroke:#181818;stroke-width:0.5;" x1="3518.5" x2="3749.5" y1="97" y2="97"/><line style="stroke:#181818;stroke-width:0.5;" x1="3518.5" x2="3749.5" y1="105" y2="105"/><ellipse cx="3528.5" cy="118.6484" fill="#84BE84" rx="3" ry="3" style="stroke:#038048;stroke-width:1.0;"/><text fill="#000000" font-family="sans-serif" font-size="14" lengthAdjust="spacing" textLength="207" x="3537.5" y="121.9951">dispose(batch : SpriteBatch)</text><ellipse cx="3528.5" cy="134.9453" fill="#84BE84" rx="3" ry="3" style="stroke:#038048;stroke-width:1.0;"/><text fill="#000000" font-family="sans-serif" font-size="14" lengthAdjust="spacing" textLength="200" x="3537.5" y="138.292">render(batch : SpriteBatch)</text></g><!--class InvalidAreaException--><g id="elem_InvalidAreaException"><rect codeLine="9" fill="#F1F1F1" height="64.2969" id="InvalidAreaException" rx="2.5" ry="2.5" style="stroke:#181818;stroke-width:0.5;" width="308" x="3174" y="73.5"/><ellipse cx="3247.75" cy="89.5" fill="#ADD1B2" rx="11" ry="11" style="stroke:#181818;stroke-width:1.0;"/><path d="M3250.0938,85.1719 C3249.1563,84.7344 3248.5625,84.5938 3247.6875,84.5938 C3245.0625,84.5938 3243.0625,86.6719 3243.0625,89.3906 L3243.0625,90.5156 C3243.0625,93.0938 3245.1719,94.9844 3248.0625,94.9844 C3249.2813,94.9844 3250.4375,94.6875 3251.1875,94.1406 C3251.7656,93.7344 3252.0938,93.2813 3252.0938,92.8906 C3252.0938,92.4375 3251.7031,92.0469 3251.2344,92.0469 C3251.0156,92.0469 3250.8125,92.125 3250.625,92.3125 C3250.1719,92.7969 3250.1719,92.7969 3249.9844,92.8906 C3249.5625,93.1563 3248.875,93.2813 3248.1094,93.2813 C3246.0625,93.2813 3244.7656,92.1875 3244.7656,90.4844 L3244.7656,89.3906 C3244.7656,87.6094 3246.0156,86.2969 3247.75,86.2969 C3248.3281,86.2969 3248.9375,86.4531 3249.4063,86.7031 C3249.8906,86.9844 3250.0625,87.2031 3250.1563,87.6094 C3250.2188,88.0156 3250.25,88.1406 3250.3906,88.2656 C3250.5313,88.4063 3250.7656,88.5156 3250.9844,88.5156 C3251.25,88.5156 3251.5156,88.375 3251.6875,88.1563 C3251.7969,88 3251.8281,87.8125 3251.8281,87.3906 L3251.8281,85.9688 C3251.8281,85.5313 3251.8125,85.4063 3251.7188,85.25 C3251.5625,84.9844 3251.2813,84.8438 3250.9844,84.8438 C3250.6875,84.8438 3250.4844,84.9375 3250.2656,85.25 L3250.0938,85.1719 Z " fill="#000000"/><text fill="#000000" font-family="sans-serif" font-size="14" lengthAdjust="spacing" textLength="152" x="3268.25" y="94.3467">InvalidAreaException</text><line style="stroke:#181818;stroke-width:0.5;" x1="3175" x2="3481" y1="105.5" y2="105.5"/><line style="stroke:#181818;stroke-width:0.5;" x1="3175" x2="3481" y1="113.5" y2="113.5"/><ellipse cx="3185" cy="127.1484" fill="#84BE84" rx="3" ry="3" style="stroke:#038048;stroke-width:1.0;"/><text fill="#000000" font-family="sans-serif" font-size="14" lengthAdjust="spacing" textLength="282" x="3194" y="130.4951">InvalidAreaException(message : String)</text></g><!--class AreaFactory--><g id="elem_AreaFactory"><rect codeLine="13" fill="#F1F1F1" height="129.4844" id="AreaFactory" rx="2.5" ry="2.5" style="stroke:#181818;stroke-width:0.5;" width="556" x="2583" y="41"/><ellipse cx="2813.25" cy="57" fill="#ADD1B2" rx="11" ry="11" style="stroke:#181818;stroke-width:1.0;"/><path d="M2815.5938,52.6719 C2814.6563,52.2344 2814.0625,52.0938 2813.1875,52.0938 C2810.5625,52.0938 2808.5625,54.1719 2808.5625,56.8906 L2808.5625,58.0156 C2808.5625,60.5938 2810.6719,62.4844 2813.5625,62.4844 C2814.7813,62.4844 2815.9375,62.1875 2816.6875,61.6406 C2817.2656,61.2344 2817.5938,60.7813 2817.5938,60.3906 C2817.5938,59.9375 2817.2031,59.5469 2816.7344,59.5469 C2816.5156,59.5469 2816.3125,59.625 2816.125,59.8125 C2815.6719,60.2969 2815.6719,60.2969 2815.4844,60.3906 C2815.0625,60.6563 2814.375,60.7813 2813.6094,60.7813 C2811.5625,60.7813 2810.2656,59.6875 2810.2656,57.9844 L2810.2656,56.8906 C2810.2656,55.1094 2811.5156,53.7969 2813.25,53.7969 C2813.8281,53.7969 2814.4375,53.9531 2814.9063,54.2031 C2815.3906,54.4844 2815.5625,54.7031 2815.6563,55.1094 C2815.7188,55.5156 2815.75,55.6406 2815.8906,55.7656 C2816.0313,55.9063 2816.2656,56.0156 2816.4844,56.0156 C2816.75,56.0156 2817.0156,55.875 2817.1875,55.6563 C2817.2969,55.5 2817.3281,55.3125 2817.3281,54.8906 L2817.3281,53.4688 C2817.3281,53.0313 2817.3125,52.9063 2817.2188,52.75 C2817.0625,52.4844 2816.7813,52.3438 2816.4844,52.3438 C2816.1875,52.3438 2815.9844,52.4375 2815.7656,52.75 L2815.5938,52.6719 Z " fill="#000000"/><text fill="#000000" font-family="sans-serif" font-size="14" lengthAdjust="spacing" textLength="87" x="2833.75" y="61.8467">AreaFactory</text><line style="stroke:#181818;stroke-width:0.5;" x1="2584" x2="3138" y1="73" y2="73"/><line style="stroke:#181818;stroke-width:0.5;" x1="2584" x2="3138" y1="81" y2="81"/><ellipse cx="2594" cy="94.6484" fill="#84BE84" rx="3" ry="3" style="stroke:#038048;stroke-width:1.0;"/><text fill="#000000" font-family="sans-serif" font-size="14" lengthAdjust="spacing" textLength="192" x="2603" y="97.9951">createOutdoorMap() : Area</text><ellipse cx="2594" cy="110.9453" fill="#84BE84" rx="3" ry="3" style="stroke:#038048;stroke-width:1.0;"/><text fill="#000000" font-family="sans-serif" font-size="14" lengthAdjust="spacing" textLength="178" x="2603" y="114.292">createPiazzaMap() : Area</text><ellipse cx="2594" cy="127.2422" fill="#84BE84" rx="3" ry="3" style="stroke:#038048;stroke-width:1.0;"/><text fill="#000000" font-family="sans-serif" font-size="14" lengthAdjust="spacing" textLength="152" x="2603" y="130.5889">createCSMap() : Area</text><ellipse cx="2594" cy="143.5391" fill="#84BE84" rx="3" ry="3" style="stroke:#038048;stroke-width:1.0;"/><text fill="#000000" font-family="sans-serif" font-size="14" lengthAdjust="spacing" textLength="199" x="2603" y="146.8857">createBedroomMap() : Area</text><ellipse cx="2594" cy="159.8359" fill="#84BE84" rx="3" ry="3" style="stroke:#038048;stroke-width:1.0;"/><text fill="#000000" font-family="sans-serif" font-size="14" lengthAdjust="spacing" textLength="530" x="2603" y="163.1826">AreaFactory(metricController : MetricController, playScreen : PlayScreen)</text></g><!--class GameMap--><g id="elem_GameMap"><rect codeLine="21" fill="#F1F1F1" height="64.2969" id="GameMap" rx="2.5" ry="2.5" style="stroke:#181818;stroke-width:0.5;" width="216" x="2583" y="320"/><ellipse cx="2650.75" cy="336" fill="#ADD1B2" rx="11" ry="11" style="stroke:#181818;stroke-width:1.0;"/><path d="M2653.0938,331.6719 C2652.1563,331.2344 2651.5625,331.0938 2650.6875,331.0938 C2648.0625,331.0938 2646.0625,333.1719 2646.0625,335.8906 L2646.0625,337.0156 C2646.0625,339.5938 2648.1719,341.4844 2651.0625,341.4844 C2652.2813,341.4844 2653.4375,341.1875 2654.1875,340.6406 C2654.7656,340.2344 2655.0938,339.7813 2655.0938,339.3906 C2655.0938,338.9375 2654.7031,338.5469 2654.2344,338.5469 C2654.0156,338.5469 2653.8125,338.625 2653.625,338.8125 C2653.1719,339.2969 2653.1719,339.2969 2652.9844,339.3906 C2652.5625,339.6563 2651.875,339.7813 2651.1094,339.7813 C2649.0625,339.7813 2647.7656,338.6875 2647.7656,336.9844 L2647.7656,335.8906 C2647.7656,334.1094 2649.0156,332.7969 2650.75,332.7969 C2651.3281,332.7969 2651.9375,332.9531 2652.4063,333.2031 C2652.8906,333.4844 2653.0625,333.7031 2653.1563,334.1094 C2653.2188,334.5156 2653.25,334.6406 2653.3906,334.7656 C2653.5313,334.9063 2653.7656,335.0156 2653.9844,335.0156 C2654.25,335.0156 2654.5156,334.875 2654.6875,334.6563 C2654.7969,334.5 2654.8281,334.3125 2654.8281,333.8906 L2654.8281,332.4688 C2654.8281,332.0313 2654.8125,331.9063 2654.7188,331.75 C2654.5625,331.4844 2654.2813,331.3438 2653.9844,331.3438 C2653.6875,331.3438 2653.4844,331.4375 2653.2656,331.75 L2653.0938,331.6719 Z " fill="#000000"/><text fill="#000000" font-family="sans-serif" font-size="14" lengthAdjust="spacing" textLength="72" x="2671.25" y="340.8467">GameMap</text><line style="stroke:#181818;stroke-width:0.5;" x1="2584" x2="2798" y1="352" y2="352"/><line style="stroke:#181818;stroke-width:0.5;" x1="2584" x2="2798" y1="360" y2="360"/><text fill="#000000" font-family="sans-serif" font-size="14" lengthAdjust="spacing" textLength="204" x="2589" y="376.9951">GameMap(mapPath : String)</text></g><!--class Item--><g id="elem_Item"><rect codeLine="25" fill="#F1F1F1" height="64.2969" id="Item" rx="2.5" ry="2.5" style="stroke:#181818;stroke-width:0.5;" width="602" x="2834" y="320"/><ellipse cx="3113.75" cy="336" fill="#ADD1B2" rx="11" ry="11" style="stroke:#181818;stroke-width:1.0;"/><path d="M3116.0938,331.6719 C3115.1563,331.2344 3114.5625,331.0938 3113.6875,331.0938 C3111.0625,331.0938 3109.0625,333.1719 3109.0625,335.8906 L3109.0625,337.0156 C3109.0625,339.5938 3111.1719,341.4844 3114.0625,341.4844 C3115.2813,341.4844 3116.4375,341.1875 3117.1875,340.6406 C3117.7656,340.2344 3118.0938,339.7813 3118.0938,339.3906 C3118.0938,338.9375 3117.7031,338.5469 3117.2344,338.5469 C3117.0156,338.5469 3116.8125,338.625 3116.625,338.8125 C3116.1719,339.2969 3116.1719,339.2969 3115.9844,339.3906 C3115.5625,339.6563 3114.875,339.7813 3114.1094,339.7813 C3112.0625,339.7813 3110.7656,338.6875 3110.7656,336.9844 L3110.7656,335.8906 C3110.7656,334.1094 3112.0156,332.7969 3113.75,332.7969 C3114.3281,332.7969 3114.9375,332.9531 3115.4063,333.2031 C3115.8906,333.4844 3116.0625,333.7031 3116.1563,334.1094 C3116.2188,334.5156 3116.25,334.6406 3116.3906,334.7656 C3116.5313,334.9063 3116.7656,335.0156 3116.9844,335.0156 C3117.25,335.0156 3117.5156,334.875 3117.6875,334.6563 C3117.7969,334.5 3117.8281,334.3125 3117.8281,333.8906 L3117.8281,332.4688 C3117.8281,332.0313 3117.8125,331.9063 3117.7188,331.75 C3117.5625,331.4844 3117.2813,331.3438 3116.9844,331.3438 C3116.6875,331.3438 3116.4844,331.4375 3116.2656,331.75 L3116.0938,331.6719 Z " fill="#000000"/><text fill="#000000" font-family="sans-serif" font-size="14" lengthAdjust="spacing" textLength="34" x="3134.25" y="340.8467">Item</text><line style="stroke:#181818;stroke-width:0.5;" x1="2835" x2="3435" y1="352" y2="352"/><line style="stroke:#181818;stroke-width:0.5;" x1="2835" x2="3435" y1="360" y2="360"/><text fill="#000000" font-family="sans-serif" font-size="14" lengthAdjust="spacing" textLength="590" x="2840" y="376.9951">Item(position : Vector2, texture : Texture, area : Area, width : Float, height : Float)</text></g><!--class Interactable--><g id="elem_Interactable"><rect codeLine="29" fill="#F1F1F1" height="80.5938" id="Interactable" rx="2.5" ry="2.5" style="stroke:#181818;stroke-width:0.5;" width="790" x="2740" y="550"/><ellipse cx="3086.25" cy="566" fill="#ADD1B2" rx="11" ry="11" style="stroke:#181818;stroke-width:1.0;"/><path d="M3088.5938,561.6719 C3087.6563,561.2344 3087.0625,561.0938 3086.1875,561.0938 C3083.5625,561.0938 3081.5625,563.1719 3081.5625,565.8906 L3081.5625,567.0156 C3081.5625,569.5938 3083.6719,571.4844 3086.5625,571.4844 C3087.7813,571.4844 3088.9375,571.1875 3089.6875,570.6406 C3090.2656,570.2344 3090.5938,569.7813 3090.5938,569.3906 C3090.5938,568.9375 3090.2031,568.5469 3089.7344,568.5469 C3089.5156,568.5469 3089.3125,568.625 3089.125,568.8125 C3088.6719,569.2969 3088.6719,569.2969 3088.4844,569.3906 C3088.0625,569.6563 3087.375,569.7813 3086.6094,569.7813 C3084.5625,569.7813 3083.2656,568.6875 3083.2656,566.9844 L3083.2656,565.8906 C3083.2656,564.1094 3084.5156,562.7969 3086.25,562.7969 C3086.8281,562.7969 3087.4375,562.9531 3087.9063,563.2031 C3088.3906,563.4844 3088.5625,563.7031 3088.6563,564.1094 C3088.7188,564.5156 3088.75,564.6406 3088.8906,564.7656 C3089.0313,564.9063 3089.2656,565.0156 3089.4844,565.0156 C3089.75,565.0156 3090.0156,564.875 3090.1875,564.6563 C3090.2969,564.5 3090.3281,564.3125 3090.3281,563.8906 L3090.3281,562.4688 C3090.3281,562.0313 3090.3125,561.9063 3090.2188,561.75 C3090.0625,561.4844 3089.7813,561.3438 3089.4844,561.3438 C3089.1875,561.3438 3088.9844,561.4375 3088.7656,561.75 L3088.5938,561.6719 Z " fill="#000000"/><text fill="#000000" font-family="sans-serif" font-size="14" lengthAdjust="spacing" textLength="89" x="3106.75" y="570.8467">Interactable</text><line style="stroke:#181818;stroke-width:0.5;" x1="2741" x2="3529" y1="582" y2="582"/><line style="stroke:#181818;stroke-width:0.5;" x1="2741" x2="3529" y1="590" y2="590"/><text fill="#000000" font-family="sans-serif" font-size="14" lengthAdjust="spacing" textLength="778" x="2746" y="606.9951">Interactable(position : Vector2, texture : Texture, area : Area, width : Float, height : Float, action : Runnable)</text><text fill="#000000" font-family="sans-serif" font-size="14" lengthAdjust="spacing" textLength="670" x="2746" y="623.292">Interactable(position : Vector2, texture : Texture, area : Area, scale : Float, action : Runnable)</text></g><!--class Character--><g id="elem_Character"><rect codeLine="34" fill="#F1F1F1" height="194.6719" id="Character" rx="2.5" ry="2.5" style="stroke:#181818;stroke-width:0.5;" width="330" x="3471" y="254.5"/><ellipse cx="3596.25" cy="270.5" fill="#ADD1B2" rx="11" ry="11" style="stroke:#181818;stroke-width:1.0;"/><path d="M3598.5938,266.1719 C3597.6563,265.7344 3597.0625,265.5938 3596.1875,265.5938 C3593.5625,265.5938 3591.5625,267.6719 3591.5625,270.3906 L3591.5625,271.5156 C3591.5625,274.0938 3593.6719,275.9844 3596.5625,275.9844 C3597.7813,275.9844 3598.9375,275.6875 3599.6875,275.1406 C3600.2656,274.7344 3600.5938,274.2813 3600.5938,273.8906 C3600.5938,273.4375 3600.2031,273.0469 3599.7344,273.0469 C3599.5156,273.0469 3599.3125,273.125 3599.125,273.3125 C3598.6719,273.7969 3598.6719,273.7969 3598.4844,273.8906 C3598.0625,274.1563 3597.375,274.2813 3596.6094,274.2813 C3594.5625,274.2813 3593.2656,273.1875 3593.2656,271.4844 L3593.2656,270.3906 C3593.2656,268.6094 3594.5156,267.2969 3596.25,267.2969 C3596.8281,267.2969 3597.4375,267.4531 3597.9063,267.7031 C3598.3906,267.9844 3598.5625,268.2031 3598.6563,268.6094 C3598.7188,269.0156 3598.75,269.1406 3598.8906,269.2656 C3599.0313,269.4063 3599.2656,269.5156 3599.4844,269.5156 C3599.75,269.5156 3600.0156,269.375 3600.1875,269.1563 C3600.2969,269 3600.3281,268.8125 3600.3281,268.3906 L3600.3281,266.9688 C3600.3281,266.5313 3600.3125,266.4063 3600.2188,266.25 C3600.0625,265.9844 3599.7813,265.8438 3599.4844,265.8438 C3599.1875,265.8438 3598.9844,265.9375 3598.7656,266.25 L3598.5938,266.1719 Z " fill="#000000"/><text fill="#000000" font-family="sans-serif" font-size="14" lengthAdjust="spacing" textLength="71" x="3616.75" y="275.3467">Character</text><line style="stroke:#181818;stroke-width:0.5;" x1="3472" x2="3800" y1="286.5" y2="286.5"/><line style="stroke:#181818;stroke-width:0.5;" x1="3472" x2="3800" y1="294.5" y2="294.5"/><ellipse cx="3482" cy="308.1484" fill="#84BE84" rx="3" ry="3" style="stroke:#038048;stroke-width:1.0;"/><text fill="#000000" font-family="sans-serif" font-size="14" lengthAdjust="spacing" textLength="69" x="3491" y="311.4951">moveUp()</text><ellipse cx="3482" cy="324.4453" fill="#84BE84" rx="3" ry="3" style="stroke:#038048;stroke-width:1.0;"/><text fill="#000000" font-family="sans-serif" font-size="14" lengthAdjust="spacing" textLength="90" x="3491" y="327.792">moveDown()</text><ellipse cx="3482" cy="340.7422" fill="#84BE84" rx="3" ry="3" style="stroke:#038048;stroke-width:1.0;"/><text fill="#000000" font-family="sans-serif" font-size="14" lengthAdjust="spacing" textLength="80" x="3491" y="344.0889">moveLeft()</text><ellipse cx="3482" cy="357.0391" fill="#84BE84" rx="3" ry="3" style="stroke:#038048;stroke-width:1.0;"/><text fill="#000000" font-family="sans-serif" font-size="14" lengthAdjust="spacing" textLength="89" x="3491" y="360.3857">moveRight()</text><ellipse cx="3482" cy="373.3359" fill="#84BE84" rx="3" ry="3" style="stroke:#038048;stroke-width:1.0;"/><text fill="#000000" font-family="sans-serif" font-size="14" lengthAdjust="spacing" textLength="50" x="3491" y="376.6826">move()</text><ellipse cx="3482" cy="389.6328" fill="#84BE84" rx="3" ry="3" style="stroke:#038048;stroke-width:1.0;"/><text fill="#000000" font-family="sans-serif" font-size="14" lengthAdjust="spacing" textLength="163" x="3491" y="392.9795">getPosition() : Vector2</text><ellipse cx="3482" cy="405.9297" fill="#84BE84" rx="3" ry="3" style="stroke:#038048;stroke-width:1.0;"/><text fill="#000000" font-family="sans-serif" font-size="14" lengthAdjust="spacing" textLength="220" x="3491" y="409.2764">setPosition(position : Vector2)</text><ellipse cx="3482" cy="422.2266" fill="#84BE84" rx="3" ry="3" style="stroke:#038048;stroke-width:1.0;"/><text fill="#000000" font-family="sans-serif" font-size="14" lengthAdjust="spacing" textLength="304" x="3491" y="425.5732">switchCharacterContext(area : AreaName)</text><ellipse cx="3482" cy="438.5234" fill="#84BE84" rx="3" ry="3" style="stroke:#038048;stroke-width:1.0;"/><text fill="#000000" font-family="sans-serif" font-size="14" lengthAdjust="spacing" textLength="299" x="3491" y="441.8701">Character(areas : Map&lt;AreaName, Area&gt;)</text></g><!--class Area--><g id="elem_Area"><rect codeLine="46" fill="#F1F1F1" height="162.0781" id="Area" rx="2.5" ry="2.5" style="stroke:#181818;stroke-width:0.5;" width="519" x="3836.5" y="271"/><ellipse cx="4075.25" cy="287" fill="#ADD1B2" rx="11" ry="11" style="stroke:#181818;stroke-width:1.0;"/><path d="M4077.5938,282.6719 C4076.6563,282.2344 4076.0625,282.0938 4075.1875,282.0938 C4072.5625,282.0938 4070.5625,284.1719 4070.5625,286.8906 L4070.5625,288.0156 C4070.5625,290.5938 4072.6719,292.4844 4075.5625,292.4844 C4076.7813,292.4844 4077.9375,292.1875 4078.6875,291.6406 C4079.2656,291.2344 4079.5938,290.7813 4079.5938,290.3906 C4079.5938,289.9375 4079.2031,289.5469 4078.7344,289.5469 C4078.5156,289.5469 4078.3125,289.625 4078.125,289.8125 C4077.6719,290.2969 4077.6719,290.2969 4077.4844,290.3906 C4077.0625,290.6563 4076.375,290.7813 4075.6094,290.7813 C4073.5625,290.7813 4072.2656,289.6875 4072.2656,287.9844 L4072.2656,286.8906 C4072.2656,285.1094 4073.5156,283.7969 4075.25,283.7969 C4075.8281,283.7969 4076.4375,283.9531 4076.9063,284.2031 C4077.3906,284.4844 4077.5625,284.7031 4077.6563,285.1094 C4077.7188,285.5156 4077.75,285.6406 4077.8906,285.7656 C4078.0313,285.9063 4078.2656,286.0156 4078.4844,286.0156 C4078.75,286.0156 4079.0156,285.875 4079.1875,285.6563 C4079.2969,285.5 4079.3281,285.3125 4079.3281,284.8906 L4079.3281,283.4688 C4079.3281,283.0313 4079.3125,282.9063 4079.2188,282.75 C4079.0625,282.4844 4078.7813,282.3438 4078.4844,282.3438 C4078.1875,282.3438 4077.9844,282.4375 4077.7656,282.75 L4077.5938,282.6719 Z " fill="#000000"/><text fill="#000000" font-family="sans-serif" font-size="14" lengthAdjust="spacing" textLength="33" x="4095.75" y="291.8467">Area</text><line style="stroke:#181818;stroke-width:0.5;" x1="3837.5" x2="4354.5" y1="303" y2="303"/><line style="stroke:#181818;stroke-width:0.5;" x1="3837.5" x2="4354.5" y1="311" y2="311"/><ellipse cx="3847.5" cy="324.6484" fill="#84BE84" rx="3" ry="3" style="stroke:#038048;stroke-width:1.0;"/><text fill="#000000" font-family="sans-serif" font-size="14" lengthAdjust="spacing" textLength="353" x="3856.5" y="327.9951">triggerInteractables(characterPosition : Vector2)</text><ellipse cx="3847.5" cy="340.9453" fill="#84BE84" rx="3" ry="3" style="stroke:#038048;stroke-width:1.0;"/><text fill="#000000" font-family="sans-serif" font-size="14" lengthAdjust="spacing" textLength="493" x="3856.5" y="344.292">bound(candidate : Vector2, hGutter : Float, vGutter : Float) : Vector2</text><ellipse cx="3847.5" cy="357.2422" fill="#84BE84" rx="3" ry="3" style="stroke:#038048;stroke-width:1.0;"/><text fill="#000000" font-family="sans-serif" font-size="14" lengthAdjust="spacing" textLength="312" x="3856.5" y="360.5889">updateView(camera : OrthographicCamera)</text><ellipse cx="3847.5" cy="373.5391" fill="#84BE84" rx="3" ry="3" style="stroke:#038048;stroke-width:1.0;"/><text fill="#000000" font-family="sans-serif" font-size="14" lengthAdjust="spacing" textLength="43" x="3856.5" y="376.8857">step()</text><ellipse cx="3847.5" cy="389.8359" fill="#84BE84" rx="3" ry="3" style="stroke:#038048;stroke-width:1.0;"/><text fill="#000000" font-family="sans-serif" font-size="14" lengthAdjust="spacing" textLength="274" x="3856.5" y="393.1826">getInitialCharacterPosition() : Vector2</text><ellipse cx="3847.5" cy="406.1328" fill="#84BE84" rx="3" ry="3" style="stroke:#038048;stroke-width:1.0;"/><text fill="#000000" font-family="sans-serif" font-size="14" lengthAdjust="spacing" textLength="331" x="3856.5" y="409.4795">setInitialCharacterPosition(position : Vector2)</text><text fill="#000000" font-family="sans-serif" font-size="14" lengthAdjust="spacing" textLength="412" x="3856.5" y="425.7764">Area(mapPath : String, initialCharacterPosition : Vector2)</text></g><!--class MetricListener--><g id="elem_MetricListener"><rect codeLine="64" fill="#F1F1F1" height="64.2969" id="MetricListener" rx="2.5" ry="2.5" style="stroke:#181818;stroke-width:0.5;" width="369" x="598.5" y="320"/><ellipse cx="728.25" cy="336" fill="#B4A7E5" rx="11" ry="11" style="stroke:#181818;stroke-width:1.0;"/><path d="M729.2031,332.7813 L730.9219,332.7813 C731.3125,332.7813 731.5,332.75 731.625,332.6719 C731.8906,332.5156 732.0313,332.2344 732.0313,331.9375 C732.0313,331.6719 731.9219,331.4063 731.6875,331.2344 C731.5156,331.125 731.375,331.0938 730.9219,331.0938 L725.7813,331.0938 C725.3438,331.0938 725.2188,331.1094 725.0625,331.2031 C724.8125,331.3594 724.6563,331.6563 724.6563,331.9375 C724.6563,332.2188 724.7969,332.4688 725.0156,332.6406 C725.1719,332.75 725.3594,332.7813 725.7813,332.7813 L727.5,332.7813 L727.5,339.2969 L725.7813,339.2969 C725.3438,339.2969 725.2188,339.3125 725.0625,339.4219 C724.8125,339.5781 724.6563,339.8594 724.6563,340.1563 C724.6563,340.4063 724.7969,340.6719 725.0156,340.8281 C725.1719,340.9531 725.375,341 725.7813,341 L730.9219,341 C731.6719,341 732.0313,340.7188 732.0313,340.1563 C732.0313,339.875 731.9219,339.625 731.6875,339.4531 C731.5156,339.3281 731.375,339.2969 730.9219,339.2969 L729.2031,339.2969 L729.2031,332.7813 Z " fill="#000000"/><text fill="#000000" font-family="sans-serif" font-size="14" font-style="italic" lengthAdjust="spacing" textLength="101" x="748.75" y="340.8467">MetricListener</text><line style="stroke:#181818;stroke-width:0.5;" x1="599.5" x2="966.5" y1="352" y2="352"/><line style="stroke:#181818;stroke-width:0.5;" x1="599.5" x2="966.5" y1="360" y2="360"/><ellipse cx="609.5" cy="373.6484" fill="#84BE84" rx="3" ry="3" style="stroke:#038048;stroke-width:1.0;"/><text fill="#000000" font-family="sans-serif" font-size="14" lengthAdjust="spacing" textLength="343" x="618.5" y="376.9951">updateMetricText(metric : Metric, text : String)</text></g><!--class MetricEntry--><g id="elem_MetricEntry"><rect codeLine="68" fill="#F1F1F1" height="64.2969" id="MetricEntry" rx="2.5" ry="2.5" style="stroke:#181818;stroke-width:0.5;" width="157" x="231.5" y="320"/><ellipse cx="266.3" cy="336" fill="#B4A7E5" rx="11" ry="11" style="stroke:#181818;stroke-width:1.0;"/><path d="M267.2531,332.7813 L268.9719,332.7813 C269.3625,332.7813 269.55,332.75 269.675,332.6719 C269.9406,332.5156 270.0813,332.2344 270.0813,331.9375 C270.0813,331.6719 269.9719,331.4063 269.7375,331.2344 C269.5656,331.125 269.425,331.0938 268.9719,331.0938 L263.8313,331.0938 C263.3938,331.0938 263.2688,331.1094 263.1125,331.2031 C262.8625,331.3594 262.7063,331.6563 262.7063,331.9375 C262.7063,332.2188 262.8469,332.4688 263.0656,332.6406 C263.2219,332.75 263.4094,332.7813 263.8313,332.7813 L265.55,332.7813 L265.55,339.2969 L263.8313,339.2969 C263.3938,339.2969 263.2688,339.3125 263.1125,339.4219 C262.8625,339.5781 262.7063,339.8594 262.7063,340.1563 C262.7063,340.4063 262.8469,340.6719 263.0656,340.8281 C263.2219,340.9531 263.425,341 263.8313,341 L268.9719,341 C269.7219,341 270.0813,340.7188 270.0813,340.1563 C270.0813,339.875 269.9719,339.625 269.7375,339.4531 C269.5656,339.3281 269.425,339.2969 268.9719,339.2969 L267.2531,339.2969 L267.2531,332.7813 Z " fill="#000000"/><text fill="#000000" font-family="sans-serif" font-size="14" font-style="italic" lengthAdjust="spacing" textLength="81" x="284.7" y="340.8467">MetricEntry</text><line style="stroke:#181818;stroke-width:0.5;" x1="232.5" x2="387.5" y1="352" y2="352"/><line style="stroke:#181818;stroke-width:0.5;" x1="232.5" x2="387.5" y1="360" y2="360"/><ellipse cx="242.5" cy="373.6484" fill="#84BE84" rx="3" ry="3" style="stroke:#038048;stroke-width:1.0;"/><text fill="#000000" font-family="sans-serif" font-size="14" lengthAdjust="spacing" textLength="131" x="251.5" y="376.9951">getValue() : String</text></g><!--class AreaMetric--><g id="elem_AreaMetric"><rect codeLine="72" fill="#F1F1F1" height="64.2969" id="AreaMetric" rx="2.5" ry="2.5" style="stroke:#181818;stroke-width:0.5;" width="261" x="179.5" y="558.5"/><ellipse cx="266.25" cy="574.5" fill="#ADD1B2" rx="11" ry="11" style="stroke:#181818;stroke-width:1.0;"/><path d="M268.5938,570.1719 C267.6563,569.7344 267.0625,569.5938 266.1875,569.5938 C263.5625,569.5938 261.5625,571.6719 261.5625,574.3906 L261.5625,575.5156 C261.5625,578.0938 263.6719,579.9844 266.5625,579.9844 C267.7813,579.9844 268.9375,579.6875 269.6875,579.1406 C270.2656,578.7344 270.5938,578.2813 270.5938,577.8906 C270.5938,577.4375 270.2031,577.0469 269.7344,577.0469 C269.5156,577.0469 269.3125,577.125 269.125,577.3125 C268.6719,577.7969 268.6719,577.7969 268.4844,577.8906 C268.0625,578.1563 267.375,578.2813 266.6094,578.2813 C264.5625,578.2813 263.2656,577.1875 263.2656,575.4844 L263.2656,574.3906 C263.2656,572.6094 264.5156,571.2969 266.25,571.2969 C266.8281,571.2969 267.4375,571.4531 267.9063,571.7031 C268.3906,571.9844 268.5625,572.2031 268.6563,572.6094 C268.7188,573.0156 268.75,573.1406 268.8906,573.2656 C269.0313,573.4063 269.2656,573.5156 269.4844,573.5156 C269.75,573.5156 270.0156,573.375 270.1875,573.1563 C270.2969,573 270.3281,572.8125 270.3281,572.3906 L270.3281,570.9688 C270.3281,570.5313 270.3125,570.4063 270.2188,570.25 C270.0625,569.9844 269.7813,569.8438 269.4844,569.8438 C269.1875,569.8438 268.9844,569.9375 268.7656,570.25 L268.5938,570.1719 Z " fill="#000000"/><text fill="#000000" font-family="sans-serif" font-size="14" lengthAdjust="spacing" textLength="79" x="286.75" y="579.3467">AreaMetric</text><line style="stroke:#181818;stroke-width:0.5;" x1="180.5" x2="439.5" y1="590.5" y2="590.5"/><line style="stroke:#181818;stroke-width:0.5;" x1="180.5" x2="439.5" y1="598.5" y2="598.5"/><text fill="#000000" font-family="sans-serif" font-size="14" lengthAdjust="spacing" textLength="249" x="185.5" y="615.4951">AreaMetric(initialArea : AreaName)</text></g><!--class DayOfWeek--><g id="elem_DayOfWeek"><rect codeLine="76" fill="#F1F1F1" height="178.375" id="DayOfWeek" rx="2.5" ry="2.5" style="stroke:#181818;stroke-width:0.5;" width="117" x="446.5" y="263"/><ellipse cx="461.5" cy="279" fill="#EB937F" rx="11" ry="11" style="stroke:#181818;stroke-width:1.0;"/><path d="M460.2969,279.875 L461.75,279.875 L461.75,279.9844 C461.75,280.3906 461.7813,280.5469 461.8594,280.7031 C462.0156,280.9531 462.2969,281.1094 462.5938,281.1094 C462.8438,281.1094 463.1094,280.9688 463.2656,280.75 C463.3906,280.5938 463.4219,280.4375 463.4219,279.9844 L463.4219,278.0625 C463.4219,277.9063 463.4219,277.8594 463.4063,277.7031 C463.3438,277.2344 463.0313,276.9219 462.5781,276.9219 C462.3281,276.9219 462.0625,277.0625 461.8906,277.2813 C461.7813,277.4531 461.75,277.6094 461.75,278.0625 L461.75,278.1875 L460.2969,278.1875 L460.2969,275.7813 L464.2813,275.7813 L464.2813,276.6406 C464.2813,277.0469 464.3125,277.2188 464.3906,277.375 C464.5625,277.625 464.8438,277.7813 465.125,277.7813 C465.3906,277.7813 465.6563,277.6406 465.8281,277.4219 C465.9375,277.25 465.9688,277.1094 465.9688,276.6406 L465.9688,274.0938 L458.3438,274.0938 C457.9063,274.0938 457.7813,274.1094 457.625,274.2031 C457.375,274.3594 457.2188,274.6563 457.2188,274.9375 C457.2188,275.2188 457.3594,275.4688 457.5781,275.6406 C457.7344,275.75 457.9219,275.7813 458.3438,275.7813 L458.5938,275.7813 L458.5938,282.2969 L458.3438,282.2969 C457.9375,282.2969 457.7813,282.3125 457.625,282.4219 C457.375,282.5938 457.2188,282.8594 457.2188,283.1563 C457.2188,283.4219 457.3594,283.6719 457.5781,283.8281 C457.7188,283.9531 457.9531,284 458.3438,284 L466.3438,284 L466.3438,281.4219 C466.3438,280.9844 466.3125,280.8438 466.2344,280.6875 C466.0625,280.4375 465.7813,280.2813 465.5,280.2813 C465.2344,280.2813 464.9688,280.3906 464.7969,280.6406 C464.6875,280.7969 464.6563,280.9375 464.6563,281.4219 L464.6563,282.2969 L460.2969,282.2969 L460.2969,279.875 Z " fill="#000000"/><text fill="#000000" font-family="sans-serif" font-size="14" lengthAdjust="spacing" textLength="85" x="475.5" y="283.8467">DayOfWeek</text><line style="stroke:#181818;stroke-width:0.5;" x1="447.5" x2="562.5" y1="295" y2="295"/><text fill="#000000" font-family="sans-serif" font-size="14" lengthAdjust="spacing" textLength="55" x="452.5" y="311.9951">Monday</text><text fill="#000000" font-family="sans-serif" font-size="14" lengthAdjust="spacing" textLength="58" x="452.5" y="328.292">Tuesday</text><text fill="#000000" font-family="sans-serif" font-size="14" lengthAdjust="spacing" textLength="82" x="452.5" y="344.5889">Wednesday</text><text fill="#000000" font-family="sans-serif" font-size="14" lengthAdjust="spacing" textLength="64" x="452.5" y="360.8857">Thursday</text><text fill="#000000" font-family="sans-serif" font-size="14" lengthAdjust="spacing" textLength="43" x="452.5" y="377.1826">Friday</text><text fill="#000000" font-family="sans-serif" font-size="14" lengthAdjust="spacing" textLength="63" x="452.5" y="393.4795">Saturday</text><text fill="#000000" font-family="sans-serif" font-size="14" lengthAdjust="spacing" textLength="51" x="452.5" y="409.7764">Sunday</text><line style="stroke:#181818;stroke-width:0.5;" x1="447.5" x2="562.5" y1="417.0781" y2="417.0781"/><text fill="#000000" font-family="sans-serif" font-size="14" lengthAdjust="spacing" textLength="95" x="452.5" y="434.0732">DayOfWeek()</text></g><!--class DOWMetric--><g id="elem_DOWMetric"><rect codeLine="88" fill="#F1F1F1" height="64.2969" id="DOWMetric" rx="2.5" ry="2.5" style="stroke:#181818;stroke-width:0.5;" width="114" x="476" y="558.5"/><ellipse cx="491" cy="574.5" fill="#ADD1B2" rx="11" ry="11" style="stroke:#181818;stroke-width:1.0;"/><path d="M493.3438,570.1719 C492.4063,569.7344 491.8125,569.5938 490.9375,569.5938 C488.3125,569.5938 486.3125,571.6719 486.3125,574.3906 L486.3125,575.5156 C486.3125,578.0938 488.4219,579.9844 491.3125,579.9844 C492.5313,579.9844 493.6875,579.6875 494.4375,579.1406 C495.0156,578.7344 495.3438,578.2813 495.3438,577.8906 C495.3438,577.4375 494.9531,577.0469 494.4844,577.0469 C494.2656,577.0469 494.0625,577.125 493.875,577.3125 C493.4219,577.7969 493.4219,577.7969 493.2344,577.8906 C492.8125,578.1563 492.125,578.2813 491.3594,578.2813 C489.3125,578.2813 488.0156,577.1875 488.0156,575.4844 L488.0156,574.3906 C488.0156,572.6094 489.2656,571.2969 491,571.2969 C491.5781,571.2969 492.1875,571.4531 492.6563,571.7031 C493.1406,571.9844 493.3125,572.2031 493.4063,572.6094 C493.4688,573.0156 493.5,573.1406 493.6406,573.2656 C493.7813,573.4063 494.0156,573.5156 494.2344,573.5156 C494.5,573.5156 494.7656,573.375 494.9375,573.1563 C495.0469,573 495.0781,572.8125 495.0781,572.3906 L495.0781,570.9688 C495.0781,570.5313 495.0625,570.4063 494.9688,570.25 C494.8125,569.9844 494.5313,569.8438 494.2344,569.8438 C493.9375,569.8438 493.7344,569.9375 493.5156,570.25 L493.3438,570.1719 Z " fill="#000000"/><text fill="#000000" font-family="sans-serif" font-size="14" lengthAdjust="spacing" textLength="82" x="505" y="579.3467">DOWMetric</text><line style="stroke:#181818;stroke-width:0.5;" x1="477" x2="589" y1="590.5" y2="590.5"/><line style="stroke:#181818;stroke-width:0.5;" x1="477" x2="589" y1="598.5" y2="598.5"/><text fill="#000000" font-family="sans-serif" font-size="14" lengthAdjust="spacing" textLength="92" x="482" y="615.4951">DOWMetric()</text></g><!--class PlayerMetric--><g id="elem_PlayerMetric"><rect codeLine="92" fill="#F1F1F1" height="64.2969" id="PlayerMetric" rx="2.5" ry="2.5" style="stroke:#181818;stroke-width:0.5;" width="122" x="22" y="558.5"/><ellipse cx="37" cy="574.5" fill="#ADD1B2" rx="11" ry="11" style="stroke:#181818;stroke-width:1.0;"/><path d="M39.3438,570.1719 C38.4063,569.7344 37.8125,569.5938 36.9375,569.5938 C34.3125,569.5938 32.3125,571.6719 32.3125,574.3906 L32.3125,575.5156 C32.3125,578.0938 34.4219,579.9844 37.3125,579.9844 C38.5313,579.9844 39.6875,579.6875 40.4375,579.1406 C41.0156,578.7344 41.3438,578.2813 41.3438,577.8906 C41.3438,577.4375 40.9531,577.0469 40.4844,577.0469 C40.2656,577.0469 40.0625,577.125 39.875,577.3125 C39.4219,577.7969 39.4219,577.7969 39.2344,577.8906 C38.8125,578.1563 38.125,578.2813 37.3594,578.2813 C35.3125,578.2813 34.0156,577.1875 34.0156,575.4844 L34.0156,574.3906 C34.0156,572.6094 35.2656,571.2969 37,571.2969 C37.5781,571.2969 38.1875,571.4531 38.6563,571.7031 C39.1406,571.9844 39.3125,572.2031 39.4063,572.6094 C39.4688,573.0156 39.5,573.1406 39.6406,573.2656 C39.7813,573.4063 40.0156,573.5156 40.2344,573.5156 C40.5,573.5156 40.7656,573.375 40.9375,573.1563 C41.0469,573 41.0781,572.8125 41.0781,572.3906 L41.0781,570.9688 C41.0781,570.5313 41.0625,570.4063 40.9688,570.25 C40.8125,569.9844 40.5313,569.8438 40.2344,569.8438 C39.9375,569.8438 39.7344,569.9375 39.5156,570.25 L39.3438,570.1719 Z " fill="#000000"/><text fill="#000000" font-family="sans-serif" font-size="14" lengthAdjust="spacing" textLength="90" x="51" y="579.3467">PlayerMetric</text><line style="stroke:#181818;stroke-width:0.5;" x1="23" x2="143" y1="590.5" y2="590.5"/><line style="stroke:#181818;stroke-width:0.5;" x1="23" x2="143" y1="598.5" y2="598.5"/><text fill="#000000" font-family="sans-serif" font-size="14" lengthAdjust="spacing" textLength="100" x="28" y="615.4951">PlayerMetric()</text></g><!--class MetricUpdater--><g id="elem_MetricUpdater"><rect codeLine="96" fill="#F1F1F1" height="80.5938" id="MetricUpdater" rx="2.5" ry="2.5" style="stroke:#181818;stroke-width:0.5;" width="331" x="1002.5" y="311.5"/><ellipse cx="1111.75" cy="327.5" fill="#ADD1B2" rx="11" ry="11" style="stroke:#181818;stroke-width:1.0;"/><path d="M1114.0938,323.1719 C1113.1563,322.7344 1112.5625,322.5938 1111.6875,322.5938 C1109.0625,322.5938 1107.0625,324.6719 1107.0625,327.3906 L1107.0625,328.5156 C1107.0625,331.0938 1109.1719,332.9844 1112.0625,332.9844 C1113.2813,332.9844 1114.4375,332.6875 1115.1875,332.1406 C1115.7656,331.7344 1116.0938,331.2813 1116.0938,330.8906 C1116.0938,330.4375 1115.7031,330.0469 1115.2344,330.0469 C1115.0156,330.0469 1114.8125,330.125 1114.625,330.3125 C1114.1719,330.7969 1114.1719,330.7969 1113.9844,330.8906 C1113.5625,331.1563 1112.875,331.2813 1112.1094,331.2813 C1110.0625,331.2813 1108.7656,330.1875 1108.7656,328.4844 L1108.7656,327.3906 C1108.7656,325.6094 1110.0156,324.2969 1111.75,324.2969 C1112.3281,324.2969 1112.9375,324.4531 1113.4063,324.7031 C1113.8906,324.9844 1114.0625,325.2031 1114.1563,325.6094 C1114.2188,326.0156 1114.25,326.1406 1114.3906,326.2656 C1114.5313,326.4063 1114.7656,326.5156 1114.9844,326.5156 C1115.25,326.5156 1115.5156,326.375 1115.6875,326.1563 C1115.7969,326 1115.8281,325.8125 1115.8281,325.3906 L1115.8281,323.9688 C1115.8281,323.5313 1115.8125,323.4063 1115.7188,323.25 C1115.5625,322.9844 1115.2813,322.8438 1114.9844,322.8438 C1114.6875,322.8438 1114.4844,322.9375 1114.2656,323.25 L1114.0938,323.1719 Z " fill="#000000"/><text fill="#000000" font-family="sans-serif" font-size="14" lengthAdjust="spacing" textLength="104" x="1132.25" y="332.3467">MetricUpdater</text><line style="stroke:#181818;stroke-width:0.5;" x1="1003.5" x2="1332.5" y1="343.5" y2="343.5"/><line style="stroke:#181818;stroke-width:0.5;" x1="1003.5" x2="1332.5" y1="351.5" y2="351.5"/><ellipse cx="1013.5" cy="365.1484" fill="#84BE84" rx="3" ry="3" style="stroke:#038048;stroke-width:1.0;"/><text fill="#000000" font-family="sans-serif" font-size="14" lengthAdjust="spacing" textLength="305" x="1022.5" y="368.4951">sendUpdate(metric : Metric, value : String)</text><ellipse cx="1013.5" cy="381.4453" fill="#84BE84" rx="3" ry="3" style="stroke:#038048;stroke-width:1.0;"/><text fill="#000000" font-family="sans-serif" font-size="14" lengthAdjust="spacing" textLength="287" x="1022.5" y="384.792">MetricUpdater(listener : MetricListener)</text></g><!--class Metric--><g id="elem_Metric"><rect codeLine="101" fill="#F1F1F1" height="64.2969" id="Metric" rx="2.5" ry="2.5" style="stroke:#181818;stroke-width:0.5;" width="216" x="625" y="558.5"/><ellipse cx="705.75" cy="574.5" fill="#EB937F" rx="11" ry="11" style="stroke:#181818;stroke-width:1.0;"/><path d="M704.5469,575.375 L706,575.375 L706,575.4844 C706,575.8906 706.0313,576.0469 706.1094,576.2031 C706.2656,576.4531 706.5469,576.6094 706.8438,576.6094 C707.0938,576.6094 707.3594,576.4688 707.5156,576.25 C707.6406,576.0938 707.6719,575.9375 707.6719,575.4844 L707.6719,573.5625 C707.6719,573.4063 707.6719,573.3594 707.6563,573.2031 C707.5938,572.7344 707.2813,572.4219 706.8281,572.4219 C706.5781,572.4219 706.3125,572.5625 706.1406,572.7813 C706.0313,572.9531 706,573.1094 706,573.5625 L706,573.6875 L704.5469,573.6875 L704.5469,571.2813 L708.5313,571.2813 L708.5313,572.1406 C708.5313,572.5469 708.5625,572.7188 708.6406,572.875 C708.8125,573.125 709.0938,573.2813 709.375,573.2813 C709.6406,573.2813 709.9063,573.1406 710.0781,572.9219 C710.1875,572.75 710.2188,572.6094 710.2188,572.1406 L710.2188,569.5938 L702.5938,569.5938 C702.1563,569.5938 702.0313,569.6094 701.875,569.7031 C701.625,569.8594 701.4688,570.1563 701.4688,570.4375 C701.4688,570.7188 701.6094,570.9688 701.8281,571.1406 C701.9844,571.25 702.1719,571.2813 702.5938,571.2813 L702.8438,571.2813 L702.8438,577.7969 L702.5938,577.7969 C702.1875,577.7969 702.0313,577.8125 701.875,577.9219 C701.625,578.0938 701.4688,578.3594 701.4688,578.6563 C701.4688,578.9219 701.6094,579.1719 701.8281,579.3281 C701.9688,579.4531 702.2031,579.5 702.5938,579.5 L710.5938,579.5 L710.5938,576.9219 C710.5938,576.4844 710.5625,576.3438 710.4844,576.1875 C710.3125,575.9375 710.0313,575.7813 709.75,575.7813 C709.4844,575.7813 709.2188,575.8906 709.0469,576.1406 C708.9375,576.2969 708.9063,576.4375 708.9063,576.9219 L708.9063,577.7969 L704.5469,577.7969 L704.5469,575.375 Z " fill="#000000"/><text fill="#000000" font-family="sans-serif" font-size="14" lengthAdjust="spacing" textLength="46" x="726.25" y="579.3467">Metric</text><line style="stroke:#181818;stroke-width:0.5;" x1="626" x2="840" y1="590.5" y2="590.5"/><line style="stroke:#181818;stroke-width:0.5;" x1="626" x2="840" y1="598.5" y2="598.5"/><text fill="#000000" font-family="sans-serif" font-size="14" lengthAdjust="spacing" textLength="204" x="631" y="615.4951">Metric(displayName : String)</text></g><!--class MetricController--><g id="elem_MetricController"><rect codeLine="105" fill="#F1F1F1" height="162.0781" id="MetricController" rx="2.5" ry="2.5" style="stroke:#181818;stroke-width:0.5;" width="457" x="876.5" y="509.5"/><ellipse cx="1041.25" cy="525.5" fill="#ADD1B2" rx="11" ry="11" style="stroke:#181818;stroke-width:1.0;"/><path d="M1043.5938,521.1719 C1042.6563,520.7344 1042.0625,520.5938 1041.1875,520.5938 C1038.5625,520.5938 1036.5625,522.6719 1036.5625,525.3906 L1036.5625,526.5156 C1036.5625,529.0938 1038.6719,530.9844 1041.5625,530.9844 C1042.7813,530.9844 1043.9375,530.6875 1044.6875,530.1406 C1045.2656,529.7344 1045.5938,529.2813 1045.5938,528.8906 C1045.5938,528.4375 1045.2031,528.0469 1044.7344,528.0469 C1044.5156,528.0469 1044.3125,528.125 1044.125,528.3125 C1043.6719,528.7969 1043.6719,528.7969 1043.4844,528.8906 C1043.0625,529.1563 1042.375,529.2813 1041.6094,529.2813 C1039.5625,529.2813 1038.2656,528.1875 1038.2656,526.4844 L1038.2656,525.3906 C1038.2656,523.6094 1039.5156,522.2969 1041.25,522.2969 C1041.8281,522.2969 1042.4375,522.4531 1042.9063,522.7031 C1043.3906,522.9844 1043.5625,523.2031 1043.6563,523.6094 C1043.7188,524.0156 1043.75,524.1406 1043.8906,524.2656 C1044.0313,524.4063 1044.2656,524.5156 1044.4844,524.5156 C1044.75,524.5156 1045.0156,524.375 1045.1875,524.1563 C1045.2969,524 1045.3281,523.8125 1045.3281,523.3906 L1045.3281,521.9688 C1045.3281,521.5313 1045.3125,521.4063 1045.2188,521.25 C1045.0625,520.9844 1044.7813,520.8438 1044.4844,520.8438 C1044.1875,520.8438 1043.9844,520.9375 1043.7656,521.25 L1043.5938,521.1719 Z " fill="#000000"/><text fill="#000000" font-family="sans-serif" font-size="14" lengthAdjust="spacing" textLength="119" x="1061.75" y="530.3467">MetricController</text><line style="stroke:#181818;stroke-width:0.5;" x1="877.5" x2="1332.5" y1="541.5" y2="541.5"/><line style="stroke:#181818;stroke-width:0.5;" x1="877.5" x2="1332.5" y1="549.5" y2="549.5"/><ellipse cx="887.5" cy="563.1484" fill="#84BE84" rx="3" ry="3" style="stroke:#038048;stroke-width:1.0;"/><text fill="#000000" font-family="sans-serif" font-size="14" lengthAdjust="spacing" textLength="426" x="896.5" y="566.4951">incrementPlayerMetric(metric : Metric, multiplier : Integer)</text><ellipse cx="887.5" cy="579.4453" fill="#84BE84" rx="3" ry="3" style="stroke:#038048;stroke-width:1.0;"/><text fill="#000000" font-family="sans-serif" font-size="14" lengthAdjust="spacing" textLength="431" x="896.5" y="582.792">decrementPlayerMetric(metric : Metric, multiplier : Integer)</text><ellipse cx="887.5" cy="595.7422" fill="#84BE84" rx="3" ry="3" style="stroke:#038048;stroke-width:1.0;"/><text fill="#000000" font-family="sans-serif" font-size="14" lengthAdjust="spacing" textLength="151" x="896.5" y="599.0889">advanceDOWMetric()</text><ellipse cx="887.5" cy="612.0391" fill="#84BE84" rx="3" ry="3" style="stroke:#038048;stroke-width:1.0;"/><text fill="#000000" font-family="sans-serif" font-size="14" lengthAdjust="spacing" textLength="152" x="896.5" y="615.3857">isFinalDay() : Boolean</text><ellipse cx="887.5" cy="628.3359" fill="#84BE84" rx="3" ry="3" style="stroke:#038048;stroke-width:1.0;"/><text fill="#000000" font-family="sans-serif" font-size="14" lengthAdjust="spacing" textLength="259" x="896.5" y="631.6826">changeAreaMetric(area : AreaName)</text><ellipse cx="887.5" cy="644.6328" fill="#84BE84" rx="3" ry="3" style="stroke:#038048;stroke-width:1.0;"/><text fill="#000000" font-family="sans-serif" font-size="14" lengthAdjust="spacing" textLength="328" x="896.5" y="647.9795">getMetricStringValue(metric : Metric) : String</text><ellipse cx="887.5" cy="660.9297" fill="#84BE84" rx="3" ry="3" style="stroke:#038048;stroke-width:1.0;"/><text fill="#000000" font-family="sans-serif" font-size="14" lengthAdjust="spacing" textLength="344" x="896.5" y="664.2764">MetricController(updateAction : MetricUpdater)</text></g><!--class Overlay--><g id="elem_Overlay"><rect codeLine="121" fill="#F1F1F1" height="64.2969" id="Overlay" rx="2.5" ry="2.5" style="stroke:#181818;stroke-width:0.5;" width="218" x="2131" y="320"/><ellipse cx="2208.25" cy="336" fill="#A9DCDF" rx="11" ry="11" style="stroke:#181818;stroke-width:1.0;"/><path d="M2210.3281,337.8125 L2210.7188,338.7969 L2210.3281,338.7969 C2209.875,338.7969 2209.7656,338.8125 2209.6094,338.9219 C2209.3594,339.0781 2209.2031,339.3594 2209.2031,339.6563 C2209.2031,339.9219 2209.3438,340.1719 2209.5625,340.3281 C2209.7031,340.4531 2209.9063,340.5 2210.3281,340.5 L2212.6875,340.5 C2213.0469,340.5 2213.2656,340.4688 2213.4063,340.375 C2213.6563,340.2344 2213.8125,339.9375 2213.8125,339.6563 C2213.8125,339.375 2213.6719,339.125 2213.4531,338.9688 C2213.2813,338.8281 2213.125,338.7969 2212.6563,338.7969 L2209.2656,330.5938 L2205.5938,330.5938 C2205.1406,330.5938 2205.0156,330.6094 2204.8594,330.7031 C2204.6094,330.875 2204.4531,331.1563 2204.4531,331.4375 C2204.4531,331.7188 2204.5938,331.9688 2204.8125,332.1406 C2204.9844,332.25 2205.1563,332.2813 2205.5938,332.2813 L2206.6719,332.2813 L2204.0313,338.7969 C2203.6094,338.7969 2203.4531,338.8125 2203.2969,338.9219 C2203.0469,339.0781 2202.8906,339.3594 2202.8906,339.6563 C2202.8906,340.2188 2203.2656,340.5 2204.0156,340.5 L2206.2813,340.5 C2206.6406,340.5 2206.8594,340.4688 2206.9844,340.375 C2207.25,340.2344 2207.3906,339.9375 2207.3906,339.6563 C2207.3906,339.375 2207.2656,339.125 2207.0469,338.9531 C2206.875,338.8281 2206.7344,338.7969 2206.2813,338.7969 L2205.8906,338.7969 L2206.2813,337.8125 L2210.3281,337.8125 Z M2209.625,336.1094 L2206.9531,336.1094 L2208.2969,332.8438 L2209.625,336.1094 Z " fill="#000000"/><text fill="#000000" font-family="sans-serif" font-size="14" font-style="italic" lengthAdjust="spacing" textLength="55" x="2228.75" y="340.8467">Overlay</text><line style="stroke:#181818;stroke-width:0.5;" x1="2132" x2="2348" y1="352" y2="352"/><line style="stroke:#181818;stroke-width:0.5;" x1="2132" x2="2348" y1="360" y2="360"/><text fill="#000000" font-family="sans-serif" font-size="14" lengthAdjust="spacing" textLength="206" x="2137" y="376.9951">Overlay(batch : SpriteBatch)</text></g><!--class HeadsUpDisplay--><g id="elem_HeadsUpDisplay"><rect codeLine="125" fill="#F1F1F1" height="64.2969" id="HeadsUpDisplay" rx="2.5" ry="2.5" style="stroke:#181818;stroke-width:0.5;" width="545" x="1390.5" y="558.5"/><ellipse cx="1601.75" cy="574.5" fill="#ADD1B2" rx="11" ry="11" style="stroke:#181818;stroke-width:1.0;"/><path d="M1604.0938,570.1719 C1603.1563,569.7344 1602.5625,569.5938 1601.6875,569.5938 C1599.0625,569.5938 1597.0625,571.6719 1597.0625,574.3906 L1597.0625,575.5156 C1597.0625,578.0938 1599.1719,579.9844 1602.0625,579.9844 C1603.2813,579.9844 1604.4375,579.6875 1605.1875,579.1406 C1605.7656,578.7344 1606.0938,578.2813 1606.0938,577.8906 C1606.0938,577.4375 1605.7031,577.0469 1605.2344,577.0469 C1605.0156,577.0469 1604.8125,577.125 1604.625,577.3125 C1604.1719,577.7969 1604.1719,577.7969 1603.9844,577.8906 C1603.5625,578.1563 1602.875,578.2813 1602.1094,578.2813 C1600.0625,578.2813 1598.7656,577.1875 1598.7656,575.4844 L1598.7656,574.3906 C1598.7656,572.6094 1600.0156,571.2969 1601.75,571.2969 C1602.3281,571.2969 1602.9375,571.4531 1603.4063,571.7031 C1603.8906,571.9844 1604.0625,572.2031 1604.1563,572.6094 C1604.2188,573.0156 1604.25,573.1406 1604.3906,573.2656 C1604.5313,573.4063 1604.7656,573.5156 1604.9844,573.5156 C1605.25,573.5156 1605.5156,573.375 1605.6875,573.1563 C1605.7969,573 1605.8281,572.8125 1605.8281,572.3906 L1605.8281,570.9688 C1605.8281,570.5313 1605.8125,570.4063 1605.7188,570.25 C1605.5625,569.9844 1605.2813,569.8438 1604.9844,569.8438 C1604.6875,569.8438 1604.4844,569.9375 1604.2656,570.25 L1604.0938,570.1719 Z " fill="#000000"/><text fill="#000000" font-family="sans-serif" font-size="14" lengthAdjust="spacing" textLength="114" x="1622.25" y="579.3467">HeadsUpDisplay</text><line style="stroke:#181818;stroke-width:0.5;" x1="1391.5" x2="1934.5" y1="590.5" y2="590.5"/><line style="stroke:#181818;stroke-width:0.5;" x1="1391.5" x2="1934.5" y1="598.5" y2="598.5"/><text fill="#000000" font-family="sans-serif" font-size="14" lengthAdjust="spacing" textLength="533" x="1396.5" y="615.4951">HeadsUpDisplay(batch : SpriteBatch, left : Metric[0..*], right : Metric[0..*])</text></g><!--class PauseMenu--><g id="elem_PauseMenu"><rect codeLine="129" fill="#F1F1F1" height="64.2969" id="PauseMenu" rx="2.5" ry="2.5" style="stroke:#181818;stroke-width:0.5;" width="243" x="1970.5" y="558.5"/><ellipse cx="2048.25" cy="574.5" fill="#ADD1B2" rx="11" ry="11" style="stroke:#181818;stroke-width:1.0;"/><path d="M2050.5938,570.1719 C2049.6563,569.7344 2049.0625,569.5938 2048.1875,569.5938 C2045.5625,569.5938 2043.5625,571.6719 2043.5625,574.3906 L2043.5625,575.5156 C2043.5625,578.0938 2045.6719,579.9844 2048.5625,579.9844 C2049.7813,579.9844 2050.9375,579.6875 2051.6875,579.1406 C2052.2656,578.7344 2052.5938,578.2813 2052.5938,577.8906 C2052.5938,577.4375 2052.2031,577.0469 2051.7344,577.0469 C2051.5156,577.0469 2051.3125,577.125 2051.125,577.3125 C2050.6719,577.7969 2050.6719,577.7969 2050.4844,577.8906 C2050.0625,578.1563 2049.375,578.2813 2048.6094,578.2813 C2046.5625,578.2813 2045.2656,577.1875 2045.2656,575.4844 L2045.2656,574.3906 C2045.2656,572.6094 2046.5156,571.2969 2048.25,571.2969 C2048.8281,571.2969 2049.4375,571.4531 2049.9063,571.7031 C2050.3906,571.9844 2050.5625,572.2031 2050.6563,572.6094 C2050.7188,573.0156 2050.75,573.1406 2050.8906,573.2656 C2051.0313,573.4063 2051.2656,573.5156 2051.4844,573.5156 C2051.75,573.5156 2052.0156,573.375 2052.1875,573.1563 C2052.2969,573 2052.3281,572.8125 2052.3281,572.3906 L2052.3281,570.9688 C2052.3281,570.5313 2052.3125,570.4063 2052.2188,570.25 C2052.0625,569.9844 2051.7813,569.8438 2051.4844,569.8438 C2051.1875,569.8438 2050.9844,569.9375 2050.7656,570.25 L2050.5938,570.1719 Z " fill="#000000"/><text fill="#000000" font-family="sans-serif" font-size="14" lengthAdjust="spacing" textLength="79" x="2068.75" y="579.3467">PauseMenu</text><line style="stroke:#181818;stroke-width:0.5;" x1="1971.5" x2="2212.5" y1="590.5" y2="590.5"/><line style="stroke:#181818;stroke-width:0.5;" x1="1971.5" x2="2212.5" y1="598.5" y2="598.5"/><text fill="#000000" font-family="sans-serif" font-size="14" lengthAdjust="spacing" textLength="231" x="1976.5" y="615.4951">PauseMenu(batch : SpriteBatch)</text></g><!--class GameOverMenu--><g id="elem_GameOverMenu"><rect codeLine="133" fill="#F1F1F1" height="64.2969" id="GameOverMenu" rx="2.5" ry="2.5" style="stroke:#181818;stroke-width:0.5;" width="278" x="2249" y="558.5"/><ellipse cx="2326.75" cy="574.5" fill="#ADD1B2" rx="11" ry="11" style="stroke:#181818;stroke-width:1.0;"/><path d="M2329.0938,570.1719 C2328.1563,569.7344 2327.5625,569.5938 2326.6875,569.5938 C2324.0625,569.5938 2322.0625,571.6719 2322.0625,574.3906 L2322.0625,575.5156 C2322.0625,578.0938 2324.1719,579.9844 2327.0625,579.9844 C2328.2813,579.9844 2329.4375,579.6875 2330.1875,579.1406 C2330.7656,578.7344 2331.0938,578.2813 2331.0938,577.8906 C2331.0938,577.4375 2330.7031,577.0469 2330.2344,577.0469 C2330.0156,577.0469 2329.8125,577.125 2329.625,577.3125 C2329.1719,577.7969 2329.1719,577.7969 2328.9844,577.8906 C2328.5625,578.1563 2327.875,578.2813 2327.1094,578.2813 C2325.0625,578.2813 2323.7656,577.1875 2323.7656,575.4844 L2323.7656,574.3906 C2323.7656,572.6094 2325.0156,571.2969 2326.75,571.2969 C2327.3281,571.2969 2327.9375,571.4531 2328.4063,571.7031 C2328.8906,571.9844 2329.0625,572.2031 2329.1563,572.6094 C2329.2188,573.0156 2329.25,573.1406 2329.3906,573.2656 C2329.5313,573.4063 2329.7656,573.5156 2329.9844,573.5156 C2330.25,573.5156 2330.5156,573.375 2330.6875,573.1563 C2330.7969,573 2330.8281,572.8125 2330.8281,572.3906 L2330.8281,570.9688 C2330.8281,570.5313 2330.8125,570.4063 2330.7188,570.25 C2330.5625,569.9844 2330.2813,569.8438 2329.9844,569.8438 C2329.6875,569.8438 2329.4844,569.9375 2329.2656,570.25 L2329.0938,570.1719 Z " fill="#000000"/><text fill="#000000" font-family="sans-serif" font-size="14" lengthAdjust="spacing" textLength="114" x="2347.25" y="579.3467">GameOverMenu</text><line style="stroke:#181818;stroke-width:0.5;" x1="2250" x2="2526" y1="590.5" y2="590.5"/><line style="stroke:#181818;stroke-width:0.5;" x1="2250" x2="2526" y1="598.5" y2="598.5"/><text fill="#000000" font-family="sans-serif" font-size="14" lengthAdjust="spacing" textLength="266" x="2255" y="615.4951">GameOverMenu(batch : SpriteBatch)</text></g><!--class OverlayFactory--><g id="elem_OverlayFactory"><rect codeLine="137" fill="#F1F1F1" height="113.1875" id="OverlayFactory" rx="2.5" ry="2.5" style="stroke:#181818;stroke-width:0.5;" width="439" x="1597.5" y="295.5"/><ellipse cx="1758.75" cy="311.5" fill="#ADD1B2" rx="11" ry="11" style="stroke:#181818;stroke-width:1.0;"/><path d="M1761.0938,307.1719 C1760.1563,306.7344 1759.5625,306.5938 1758.6875,306.5938 C1756.0625,306.5938 1754.0625,308.6719 1754.0625,311.3906 L1754.0625,312.5156 C1754.0625,315.0938 1756.1719,316.9844 1759.0625,316.9844 C1760.2813,316.9844 1761.4375,316.6875 1762.1875,316.1406 C1762.7656,315.7344 1763.0938,315.2813 1763.0938,314.8906 C1763.0938,314.4375 1762.7031,314.0469 1762.2344,314.0469 C1762.0156,314.0469 1761.8125,314.125 1761.625,314.3125 C1761.1719,314.7969 1761.1719,314.7969 1760.9844,314.8906 C1760.5625,315.1563 1759.875,315.2813 1759.1094,315.2813 C1757.0625,315.2813 1755.7656,314.1875 1755.7656,312.4844 L1755.7656,311.3906 C1755.7656,309.6094 1757.0156,308.2969 1758.75,308.2969 C1759.3281,308.2969 1759.9375,308.4531 1760.4063,308.7031 C1760.8906,308.9844 1761.0625,309.2031 1761.1563,309.6094 C1761.2188,310.0156 1761.25,310.1406 1761.3906,310.2656 C1761.5313,310.4063 1761.7656,310.5156 1761.9844,310.5156 C1762.25,310.5156 1762.5156,310.375 1762.6875,310.1563 C1762.7969,310 1762.8281,309.8125 1762.8281,309.3906 L1762.8281,307.9688 C1762.8281,307.5313 1762.8125,307.4063 1762.7188,307.25 C1762.5625,306.9844 1762.2813,306.8438 1761.9844,306.8438 C1761.6875,306.8438 1761.4844,306.9375 1761.2656,307.25 L1761.0938,307.1719 Z " fill="#000000"/><text fill="#000000" font-family="sans-serif" font-size="14" lengthAdjust="spacing" textLength="108" x="1779.25" y="316.3467">OverlayFactory</text><line style="stroke:#181818;stroke-width:0.5;" x1="1598.5" x2="2035.5" y1="327.5" y2="327.5"/><line style="stroke:#181818;stroke-width:0.5;" x1="1598.5" x2="2035.5" y1="335.5" y2="335.5"/><ellipse cx="1608.5" cy="349.1484" fill="#84BE84" rx="3" ry="3" style="stroke:#038048;stroke-width:1.0;"/><text fill="#000000" font-family="sans-serif" font-size="14" lengthAdjust="spacing" textLength="238" x="1617.5" y="352.4951">createGameOverMenu() : Overlay</text><ellipse cx="1608.5" cy="365.4453" fill="#84BE84" rx="3" ry="3" style="stroke:#038048;stroke-width:1.0;"/><text fill="#000000" font-family="sans-serif" font-size="14" lengthAdjust="spacing" textLength="203" x="1617.5" y="368.792">createPauseMenu() : Overlay</text><ellipse cx="1608.5" cy="381.7422" fill="#84BE84" rx="3" ry="3" style="stroke:#038048;stroke-width:1.0;"/><text fill="#000000" font-family="sans-serif" font-size="14" lengthAdjust="spacing" textLength="413" x="1617.5" y="385.0889">createHUD(left : Metric[0..*], right : Metric[0..*]) : Overlay</text><ellipse cx="1608.5" cy="398.0391" fill="#84BE84" rx="3" ry="3" style="stroke:#038048;stroke-width:1.0;"/><text fill="#000000" font-family="sans-serif" font-size="14" lengthAdjust="spacing" textLength="260" x="1617.5" y="401.3857">OverlayFactory(batch : SpriteBatch)</text></g><!--class PlayScreen--><g id="elem_PlayScreen"><rect codeLine="151" fill="#F1F1F1" height="178.375" id="PlayScreen" rx="2.5" ry="2.5" style="stroke:#181818;stroke-width:0.5;" width="306" x="4388" y="16.5"/><ellipse cx="4497.25" cy="32.5" fill="#ADD1B2" rx="11" ry="11" style="stroke:#181818;stroke-width:1.0;"/><path d="M4499.5938,28.1719 C4498.6563,27.7344 4498.0625,27.5938 4497.1875,27.5938 C4494.5625,27.5938 4492.5625,29.6719 4492.5625,32.3906 L4492.5625,33.5156 C4492.5625,36.0938 4494.6719,37.9844 4497.5625,37.9844 C4498.7813,37.9844 4499.9375,37.6875 4500.6875,37.1406 C4501.2656,36.7344 4501.5938,36.2813 4501.5938,35.8906 C4501.5938,35.4375 4501.2031,35.0469 4500.7344,35.0469 C4500.5156,35.0469 4500.3125,35.125 4500.125,35.3125 C4499.6719,35.7969 4499.6719,35.7969 4499.4844,35.8906 C4499.0625,36.1563 4498.375,36.2813 4497.6094,36.2813 C4495.5625,36.2813 4494.2656,35.1875 4494.2656,33.4844 L4494.2656,32.3906 C4494.2656,30.6094 4495.5156,29.2969 4497.25,29.2969 C4497.8281,29.2969 4498.4375,29.4531 4498.9063,29.7031 C4499.3906,29.9844 4499.5625,30.2031 4499.6563,30.6094 C4499.7188,31.0156 4499.75,31.1406 4499.8906,31.2656 C4500.0313,31.4063 4500.2656,31.5156 4500.4844,31.5156 C4500.75,31.5156 4501.0156,31.375 4501.1875,31.1563 C4501.2969,31 4501.3281,30.8125 4501.3281,30.3906 L4501.3281,28.9688 C4501.3281,28.5313 4501.3125,28.4063 4501.2188,28.25 C4501.0625,27.9844 4500.7813,27.8438 4500.4844,27.8438 C4500.1875,27.8438 4499.9844,27.9375 4499.7656,28.25 L4499.5938,28.1719 Z " fill="#000000"/><text fill="#000000" font-family="sans-serif" font-size="14" lengthAdjust="spacing" textLength="79" x="4517.75" y="37.3467">PlayScreen</text><line style="stroke:#181818;stroke-width:0.5;" x1="4389" x2="4693" y1="48.5" y2="48.5"/><line style="stroke:#181818;stroke-width:0.5;" x1="4389" x2="4693" y1="56.5" y2="56.5"/><ellipse cx="4399" cy="70.1484" fill="#84BE84" rx="3" ry="3" style="stroke:#038048;stroke-width:1.0;"/><text fill="#000000" font-family="sans-serif" font-size="14" lengthAdjust="spacing" textLength="280" x="4408" y="73.4951">resize(width : Integer, height : Integer)</text><ellipse cx="4399" cy="86.4453" fill="#84BE84" rx="3" ry="3" style="stroke:#038048;stroke-width:1.0;"/><text fill="#000000" font-family="sans-serif" font-size="14" lengthAdjust="spacing" textLength="46" x="4408" y="89.792">show()</text><ellipse cx="4399" cy="102.7422" fill="#84BE84" rx="3" ry="3" style="stroke:#038048;stroke-width:1.0;"/><text fill="#000000" font-family="sans-serif" font-size="14" lengthAdjust="spacing" textLength="41" x="4408" y="106.0889">hide()</text><ellipse cx="4399" cy="119.0391" fill="#84BE84" rx="3" ry="3" style="stroke:#038048;stroke-width:1.0;"/><text fill="#000000" font-family="sans-serif" font-size="14" lengthAdjust="spacing" textLength="52" x="4408" y="122.3857">pause()</text><ellipse cx="4399" cy="135.3359" fill="#84BE84" rx="3" ry="3" style="stroke:#038048;stroke-width:1.0;"/><text fill="#000000" font-family="sans-serif" font-size="14" lengthAdjust="spacing" textLength="63" x="4408" y="138.6826">resume()</text><ellipse cx="4399" cy="151.6328" fill="#84BE84" rx="3" ry="3" style="stroke:#038048;stroke-width:1.0;"/><text fill="#000000" font-family="sans-serif" font-size="14" lengthAdjust="spacing" textLength="207" x="4408" y="154.9795">switchArea(area : AreaName)</text><ellipse cx="4399" cy="167.9297" fill="#84BE84" rx="3" ry="3" style="stroke:#038048;stroke-width:1.0;"/><text fill="#000000" font-family="sans-serif" font-size="14" lengthAdjust="spacing" textLength="96" x="4408" y="171.2764">advanceDay()</text><ellipse cx="4399" cy="184.2266" fill="#84BE84" rx="3" ry="3" style="stroke:#038048;stroke-width:1.0;"/><text fill="#000000" font-family="sans-serif" font-size="14" lengthAdjust="spacing" textLength="231" x="4408" y="187.5732">PlayScreen(batch : SpriteBatch)</text></g><!--reverse link Drawable to Area--><g id="link_Drawable_Area"><path codeLine="56" d="M3724.6495,154.4746 C3788.2395,188.1276 3865.66,229.101 3944.77,270.965 " fill="none" id="Drawable-backto-Area" style="stroke:#181818;stroke-width:1.0;stroke-dasharray:7.0,7.0;"/><polygon fill="none" points="3708.74,146.055,3721.8429,159.7777,3727.456,149.1714,3708.74,146.055" style="stroke:#181818;stroke-width:1.0;"/></g><!--reverse link Drawable to Character--><g id="link_Drawable_Character"><path codeLine="57" d="M3634.4676,164.0544 C3634.7076,193.3154 3634.9,216.475 3635.21,254.239 " fill="none" id="Drawable-backto-Character" style="stroke:#181818;stroke-width:1.0;stroke-dasharray:7.0,7.0;"/><polygon fill="none" points="3634.32,146.055,3628.4678,164.1036,3640.4674,164.0052,3634.32,146.055" style="stroke:#181818;stroke-width:1.0;"/></g><!--reverse link Drawable to Item--><g id="link_Drawable_Item"><path codeLine="58" d="M3562.9021,156.2419 C3539.1421,172.2159 3525.76,180.164 3499,194.5 C3405.78,244.448 3293.23,290.85 3218.2,319.949 " fill="none" id="Drawable-backto-Item" style="stroke:#181818;stroke-width:1.0;stroke-dasharray:7.0,7.0;"/><polygon fill="none" points="3577.84,146.199,3559.5545,151.2625,3566.2497,161.2212,3577.84,146.199" style="stroke:#181818;stroke-width:1.0;"/></g><!--reverse link Item to Interactable--><g id="link_Item_Interactable"><path codeLine="59" d="M3135,402.405 C3135,445.001 3135,503.102 3135,549.666 " fill="none" id="Item-backto-Interactable" style="stroke:#181818;stroke-width:1.0;"/><polygon fill="none" points="3135,384.405,3129,402.405,3141,402.405,3135,384.405" style="stroke:#181818;stroke-width:1.0;"/></g><!--reverse link Drawable to GameMap--><g id="link_Drawable_GameMap"><path codeLine="60" d="M3572.8401,156.776 C3548.2301,175.127 3531,184.338 3499,194.5 C3354.24,240.471 2954.49,157.642 2816,220 C2769.42,240.973 2731.61,288.104 2710.2,319.733 " fill="none" id="Drawable-backto-GameMap" style="stroke:#181818;stroke-width:1.0;stroke-dasharray:7.0,7.0;"/><polygon fill="none" points="3587.27,146.016,3569.2534,151.966,3576.4267,161.586,3587.27,146.016" style="stroke:#181818;stroke-width:1.0;"/></g><!--reverse link MetricEntry to AreaMetric--><g id="link_MetricEntry_AreaMetric"><path codeLine="115" d="M310,402.405 C310,447.765 310,513.12 310,558.341 " fill="none" id="MetricEntry-backto-AreaMetric" style="stroke:#181818;stroke-width:1.0;stroke-dasharray:7.0,7.0;"/><polygon fill="none" points="310,384.405,304,402.405,316,402.405,310,384.405" style="stroke:#181818;stroke-width:1.0;"/></g><!--reverse link MetricEntry to DOWMetric--><g id="link_MetricEntry_DOWMetric"><path codeLine="116" d="M351.9047,397.2059 C381.8057,428.7619 416.983,465.939 458,509.5 C473.139,525.578 489.958,543.511 503.825,558.317 " fill="none" id="MetricEntry-backto-DOWMetric" style="stroke:#181818;stroke-width:1.0;stroke-dasharray:7.0,7.0;"/><polygon fill="none" points="339.524,384.14,347.5494,401.3328,356.26,393.079,339.524,384.14" style="stroke:#181818;stroke-width:1.0;"/></g><!--reverse link MetricEntry to PlayerMetric--><g id="link_MetricEntry_PlayerMetric"><path codeLine="117" d="M267.3917,397.3912 C223.8547,442.7512 156.312,513.12 112.907,558.341 " fill="none" id="MetricEntry-backto-PlayerMetric" style="stroke:#181818;stroke-width:1.0;stroke-dasharray:7.0,7.0;"/><polygon fill="none" points="279.856,384.405,263.063,393.2364,271.7204,401.546,279.856,384.405" style="stroke:#181818;stroke-width:1.0;"/></g><!--reverse link Overlay to GameOverMenu--><g id="link_Overlay_GameOverMenu"><path codeLine="144" d="M2269.1997,399.6629 C2297.5897,445.0229 2340.2,513.12 2368.5,558.341 " fill="none" id="Overlay-backto-GameOverMenu" style="stroke:#181818;stroke-width:1.0;"/><polygon fill="none" points="2259.65,384.405,2264.1137,402.8461,2274.2856,396.4797,2259.65,384.405" style="stroke:#181818;stroke-width:1.0;"/></g><!--reverse link Overlay to HeadsUpDisplay--><g id="link_Overlay_HeadsUpDisplay"><path codeLine="145" d="M2168.9976,392.7762 C2132.4876,412.7442 2099.02,429.869 2054,449.5 C1956.35,492.082 1841.17,532.146 1761.23,558.414 " fill="none" id="Overlay-backto-HeadsUpDisplay" style="stroke:#181818;stroke-width:1.0;"/><polygon fill="none" points="2184.79,384.139,2166.1186,387.512,2171.8767,398.0403,2184.79,384.139" style="stroke:#181818;stroke-width:1.0;"/></g><!--reverse link Overlay to PauseMenu--><g id="link_Overlay_PauseMenu"><path codeLine="146" d="M2210.8003,399.6629 C2182.4103,445.0229 2139.8,513.12 2111.5,558.341 " fill="none" id="Overlay-backto-PauseMenu" style="stroke:#181818;stroke-width:1.0;"/><polygon fill="none" points="2220.35,384.405,2205.7144,396.4797,2215.8863,402.8461,2220.35,384.405" style="stroke:#181818;stroke-width:1.0;"/></g><!--reverse link Drawable to Overlay--><g id="link_Drawable_Overlay"><path codeLine="147" d="M3572.892,156.927 C3548.292,175.313 3531.05,184.498 3499,194.5 C3301.22,256.226 2769.88,177.987 2567,220 C2469.09,240.276 2362.86,288.088 2298.87,319.992 " fill="none" id="Drawable-backto-Overlay" style="stroke:#181818;stroke-width:1.0;stroke-dasharray:7.0,7.0;"/><polygon fill="none" points="3587.31,146.151,3569.3,152.121,3576.484,161.733,3587.31,146.151" style="stroke:#181818;stroke-width:1.0;"/></g><!--reverse link MetricListener to HeadsUpDisplay--><g id="link_MetricListener_HeadsUpDisplay"><path codeLine="148" d="M853.2738,392.7704 C892.9808,414.2274 932.902,433.139 985,449.5 C1141.85,498.758 1189.1,475.779 1350,509.5 C1417.25,523.593 1491.81,542.516 1551.28,558.421 " fill="none" id="MetricListener-backto-HeadsUpDisplay" style="stroke:#181818;stroke-width:1.0;stroke-dasharray:7.0,7.0;"/><polygon fill="none" points="837.438,384.213,850.4213,398.049,856.1262,387.4918,837.438,384.213" style="stroke:#181818;stroke-width:1.0;"/></g><!--SRC=[hLVFRziw3Bxdh_1jxfgcmux5y82sMRS2wnAilmuFxy3QR2pCbWr9JjPk_TyVPScE92jP3ysb5KL-8lcHbFokKAgH9yV7JGbSjLKvo-hgE2j1ogESmKf0DPaqaFs45IOoGux9xqb2FyOLYaV8C9aBsC13sM_ets7EP5DBJ1z0PKLoabmtWYayqwk3hPP0dgFOhVGowVvqtYINV0qboqy5mkTV6JQArTmzChQVLYYbzfp0bM1y5S7L1XUGgLeykN0PYHKkMfNNjRY29ZqW4AqRgYmPF3_3FetpwtsxPvYBkgxYAevp50k5a9tNN8cwB56GybKWcYP4uzCr0IEdxUMmYCJz1IgaGvsOhIIje5c2AlObxL9XvLZgPKg4iuwKa-GEjSiVfud2NweLElytvhzf0XIIZNEQR5ZU7NHHrg2cIO5iLQX-7Iq2gZhAHr1lhlZj_I3Tp0B-Q3dNXnoytT4oWnB_UfINXVC2z95K0ax1LlKQRwc6VCcytl1GzWqVLIZxeGCEXUvwXMffe-lgrCQtLP2EmZWF3fBSCEhm8GPTlPIOr4dATof4ns1GxNIahdjeFlMAqyxadnsTxMQ8YdcrGk4o9jEi1r_ky_cXRdcUPi1pbbFFklmMNrgbkcwq3AvzGJHPRQDXxXXk2BGYTqXf8LHHqy1j2chfJkWcJM4Jq779oLyepyC0TjApqs0VNJg9euamfV4VnmeXB2737V7fpsosdN6-U02BxEa9C-b73OcEZhpEYrZOQJPvsTvVPeBAqGrcnkWtHadcVbCPdio-RbyxX8VHQzexFYb3_CyqfRqhXZYyWxB5ZZ0342zYO- -OReMf9U8qrZqM27bR9NDuMZpU8_vqOAvgdiFJiBnfKRhhUyovBxafMk49BWHpbzT00yuJjDq9mthm8etqwtnnFufqaCKCzFs6OcJZYcDcPkUsezPZMz9xn8Z7FAyrKm7HdP67bfPz4Pq4LJLcPEItzLY_dIW2JUE-ApYy-zr06ATRlqAkl5ICOghQKh6cP9sxkfrMlP_c4OTlWGBv6dY68P76Jtd1E9HK5LqFdDLrYS2T5r81V8LEjU- -9AYPZ8v9c6cimDUWpnpwjcbCJSkVzjUmHwz7WzlLmrWpmlZ-a8BujfjbTsgrp58B3rBfWMSBOB56GIOExrRooWVrLuHStZPpKsuEZByHGvic9RqXXkpy-s4sU__VD17srUHAOsqBhQIPobktPtlPAvtNqrs76y2uubSYsQJj_0Jm87K5MOFHTy0GmHwbhxVpzFMfY-7uxlurnhv8kXlJ3MMywzC-tXy2Z5oshfl1RThj1zZat7Q2syyLatZw9fJi6TF-GMxdYVCazoRCeIpgZPqeXmNB-oVhOQETxHU4sLR3ohm_ktTDT9mC4qjF9IFPkXbF-Cl_]--></g></svg>